<svg width="96" height="92" viewBox="0 0 96 92" fill="none" xmlns="http://www.w3.org/2000/svg"><path d="M48 92c25.37 0 45.938-20.595 45.938-46S73.37 0 48 0 2.062 20.595 2.062 46 22.63 92 48 92z" fill="#1A2B63"/><path d="M86.979 20.826c-.518 0-1.057.383-1.227.873l-.48 1.153c-.224.454-.116 1.106.253 1.472l1.79 1.78a.593.593 0 0 1 .175.423.59.59 0 0 1-.176.424l-3.246 3.226a.603.603 0 0 1-.429.176.604.604 0 0 1-.429-.176L81.42 28.4c-.229-.228-.583-.364-.946-.364-.196 0-.382.04-.54.117l-1.166.479c-.48.164-.865.702-.865 1.221v2.508c0 .333-.27.604-.603.604h-4.596a.604.604 0 0 1-.603-.604v-2.508c0-.52-.385-1.057-.875-1.225l-1.167-.48a1.221 1.221 0 0 0-.529-.112c-.363 0-.717.136-.946.363l-1.79 1.78a.604.604 0 0 1-.429.175.603.603 0 0 1-.429-.176l-3.246-3.226a.594.594 0 0 1-.176-.424c0-.16.062-.311.175-.424l1.79-1.779c.37-.366.478-1.018.248-1.484l-.479-1.151c-.166-.48-.705-.863-1.223-.863H60.49a.598.598 0 0 1-.426-.178.599.599 0 0 1-.177-.426v-2.304H9a1.882 1.882 0 0 0-1.875 1.878v50.506h81.75V20.825h-1.896z" fill="#85A0DD"/><path d="M84.068 30.177a.603.603 0 0 1-.428.176.604.604 0 0 1-.43-.176L81.42 28.4c-.228-.228-.582-.364-.946-.364-.195 0-.382.04-.539.117l-1.167.479c-.48.164-.864.702-.864 1.221v2.508c0 .333-.27.604-.603.604h-4.597a.604.604 0 0 1-.603-.604v-2.508c0-.52-.384-1.057-.875-1.225l-1.167-.48a1.223 1.223 0 0 0-.528-.112c-.364 0-.718.136-.947.363l-1.79 1.78a.604.604 0 0 1-.429.175.604.604 0 0 1-.429-.176l-3.246-3.226a.594.594 0 0 1-.176-.424c0-.16.062-.311.176-.424l1.79-1.779c.369-.366.477-1.018.247-1.484l-.095-.228H12.75a.941.941 0 0 0-.938.939v41.681a.94.94 0 0 0 .938.939h70.5a.94.94 0 0 0 .938-.939V30.06l-.12.118z" fill="#fff"/><path d="M47.406 36.976c0-.36.293-.653.653-.653h2.445v-8.88a.941.941 0 0 0-.938-.94H37.07a.94.94 0 0 0-.937.94v11.079a.94.94 0 0 0 .937.938h10.336v-2.484z" fill="#5DC1D8"/><path d="M79.935 28.152l-1.167.479c-.48.164-.865.702-.865 1.221v2.509c0 .332-.27.603-.603.603h-4.596a.604.604 0 0 1-.603-.603v-2.509c0-.519-.385-1.057-.875-1.225l-1.167-.48a1.223 1.223 0 0 0-.529-.112c-.363 0-.717.136-.946.364l-1.79 1.778a.604.604 0 0 1-.429.176.604.604 0 0 1-.429-.175l-3.246-3.226a.594.594 0 0 1-.176-.424l.002-.024H53.57a.94.94 0 0 0-.937.939v8.88h9.058c.36 0 .653.293.653.653v2.484h16.66a.94.94 0 0 0 .937-.939V28.15l-.006.003z" fill="#69CDFF"/><path d="M39.853 38.522v-11.08a.94.94 0 0 1 .938-.938h-3.72a.94.94 0 0 0-.938.939v11.079a.94.94 0 0 0 .937.938h3.72a.94.94 0 0 1-.937-.938z" fill="#28A5A5"/><path d="M56.353 36.323v-8.88c0-.517.422-.94.938-.94h-3.72a.94.94 0 0 0-.938.94v8.88h3.72z" fill="#3EB7FF"/><path d="M12.75 22.612a.941.941 0 0 0-.938.939v41.681a.94.94 0 0 0 .938.939h18.938v-43.56H12.75z" fill="#D9EAFC"/><path d="M15.533 65.232V23.551c0-.517.422-.94.937-.94h-3.72a.941.941 0 0 0-.938.94v41.681a.94.94 0 0 0 .938.939h3.72a.94.94 0 0 1-.937-.939z" fill="#C3DDF4"/><path d="M96 77.812a.94.94 0 0 1-.938.939H.939A.94.94 0 0 1 0 77.81v-6.759a.94.94 0 0 1 .938-.938h94.124a.94.94 0 0 1 .938.938v6.76z" fill="#445EA0"/><path d="M3.72 77.812v-6.76a.94.94 0 0 1 .938-.938H.938a.94.94 0 0 0-.938.938v6.76a.94.94 0 0 0 .938.939h3.72a.94.94 0 0 1-.938-.94z" fill="#293D7C"/><path d="M26.381 33.545H15.693a1.407 1.407 0 0 1 0-2.817h10.688a1.407 1.407 0 0 1 0 2.817zm0 6.197H15.693a1.407 1.407 0 0 1 0-2.817h10.688a1.407 1.407 0 0 1 0 2.817zm0 6.195H15.693a1.407 1.407 0 0 1 0-2.816h10.688a1.407 1.407 0 0 1 0 2.816zm0 6.197H15.693a1.407 1.407 0 0 1 0-2.816h10.688a1.407 1.407 0 0 1 0 2.816zm-3.187 6.197h-7.501a1.407 1.407 0 0 1 0-2.816h7.5a1.407 1.407 0 0 1 0 2.816z" fill="#445EA0"/><path d="M40.351 61.782c0 .31-.253.564-.562.564h-3.094a.564.564 0 0 1-.562-.564V45.45c0-.31.253-.564.562-.564h3.094c.31 0 .562.254.562.564v16.333zm5.625 0c0 .31-.253.564-.562.564H42.32a.565.565 0 0 1-.562-.564v-10.42c0-.31.253-.563.562-.563h3.094c.309 0 .562.254.562.564v10.42zm5.624 0c0 .31-.252.563-.562.563h-3.093a.565.565 0 0 1-.563-.563V54.46c0-.31.253-.563.563-.563h3.093c.31 0 .563.253.563.563v7.322z" fill="#91E0E8"/><path d="M57.226 61.783c0 .31-.254.563-.563.563H53.57a.565.565 0 0 1-.563-.563V48.547c0-.31.253-.564.563-.564h3.093c.31 0 .563.254.563.564v13.236zm5.624-.001c0 .31-.253.564-.562.564h-3.094a.564.564 0 0 1-.562-.563V52.77c0-.31.253-.563.562-.563h3.094c.31 0 .562.253.562.563v9.011zm5.625 0c0 .31-.253.563-.563.563H64.82a.565.565 0 0 1-.563-.563V56.15c0-.31.254-.564.563-.564h3.093c.31 0 .563.254.563.564v5.632z" fill="#52BBEF"/><path d="M74.1 61.782c0 .31-.253.564-.563.564h-3.093a.564.564 0 0 1-.563-.564V49.11c0-.31.253-.564.563-.564h3.093c.31 0 .563.254.563.564v12.672zm5.624 0c0 .31-.253.564-.562.564h-3.094a.564.564 0 0 1-.562-.564V45.45c0-.31.253-.564.562-.564h3.094c.31 0 .562.254.562.564v16.333z" fill="#F87EAB"/><path d="M38.166 61.782V45.45c0-.31.253-.564.562-.564h-2.033a.564.564 0 0 0-.562.564v16.333c0 .31.253.564.562.564h2.033a.565.565 0 0 1-.562-.564zm5.624 0v-10.42c0-.31.254-.563.563-.563H42.32a.565.565 0 0 0-.562.564v10.42c0 .31.253.563.562.563h2.033a.565.565 0 0 1-.563-.564zm5.625 0V54.46c0-.31.253-.563.563-.563h-2.033a.565.565 0 0 0-.563.563v7.322c0 .31.253.563.563.563h2.033a.565.565 0 0 1-.563-.563z" fill="#5DC1D8"/><path d="M55.04 61.783V48.547c0-.31.253-.564.562-.564H53.57a.565.565 0 0 0-.563.564v13.236c0 .31.253.563.563.563h2.032a.565.565 0 0 1-.562-.563zm5.624-.001v-9.011c0-.31.254-.563.563-.563h-2.033a.565.565 0 0 0-.562.563v9.011c0 .31.253.564.562.564h2.033a.565.565 0 0 1-.563-.563zm5.626 0V56.15c0-.31.252-.564.562-.564h-2.033a.565.565 0 0 0-.563.564v5.632c0 .31.254.563.563.563h2.033a.564.564 0 0 1-.563-.563z" fill="#3EB7FF"/><path d="M71.914 61.782V49.11c0-.31.253-.564.563-.564h-2.033a.565.565 0 0 0-.563.564v12.672c0 .31.253.564.563.564h2.033a.565.565 0 0 1-.563-.564zm5.625 0V45.45c0-.31.253-.564.562-.564h-2.033a.564.564 0 0 0-.562.564v16.333c0 .31.253.564.562.564h2.033a.565.565 0 0 1-.562-.564z" fill="#E26693"/><path d="M36.188 70.114v2.065c0 1.033.843 1.878 1.874 1.878h19.876a1.882 1.882 0 0 0 1.874-1.878v-2.065H36.189z" fill="#293D7C"/><path d="M39.908 72.18v-2.066h-3.72v2.065c0 1.033.843 1.878 1.874 1.878h3.72a1.882 1.882 0 0 1-1.874-1.878z" fill="#1A2B63"/><path d="M62.531 36.976a.843.843 0 0 0-.84-.842H48.06a.843.843 0 0 0-.84.842v6.17c0 .463.378.841.84.841h4.378c.463 0 1.03.328 1.26.73l.758 1.312c.231.401.61.401.84 0l.757-1.313c.232-.4.799-.729 1.26-.729h4.38c.461 0 .84-.378.84-.84v-6.171z" fill="#FFD00D"/><path d="M50.94 43.146v-6.17c0-.463.377-.842.84-.842h-3.72a.843.843 0 0 0-.841.842v6.17c0 .463.378.841.84.841h3.72a.843.843 0 0 1-.84-.84z" fill="#FFAF10"/><path d="M71.913 32.36c0 .435.356.791.79.791H77.3c.435 0 .79-.356.79-.791v-2.508c0-.436.337-.907.749-1.048l1.178-.484c.39-.19.963-.095 1.272.212l1.79 1.778a.8.8 0 0 0 1.121 0l3.247-3.226a.787.787 0 0 0 0-1.114l-1.79-1.78c-.309-.306-.404-.877-.211-1.267l.483-1.162c.143-.412.615-.748 1.05-.748h2.537c.434 0 .79-.356.79-.792v-4.556a.793.793 0 0 0-.79-.791h-2.537c-.435 0-.907-.337-1.05-.748l-.483-1.162c-.193-.39-.098-.96.21-1.268l1.79-1.778a.787.787 0 0 0 0-1.115l-3.245-3.226a.8.8 0 0 0-1.122 0l-1.79 1.778c-.309.307-.881.402-1.272.212l-1.178-.484c-.411-.14-.748-.612-.748-1.048V3.527a.793.793 0 0 0-.79-.792h-4.597a.793.793 0 0 0-.79.792v2.508c0 .436-.337.907-.748 1.048l-1.178.484c-.39.19-.963.095-1.272-.212l-1.79-1.778a.8.8 0 0 0-1.122 0l-3.247 3.225a.787.787 0 0 0 0 1.115l1.79 1.78c.309.306.404.876.211 1.266l-.483 1.163c-.143.411-.615.748-1.05.748H60.49a.793.793 0 0 0-.79.791v4.556c0 .436.355.792.79.792h2.536c.435 0 .907.336 1.05.747l.483 1.163c.193.39.098.96-.21 1.267l-1.79 1.78a.787.787 0 0 0 0 1.114l3.246 3.226a.8.8 0 0 0 1.122 0l1.79-1.779c.308-.307.88-.402 1.272-.211l1.177.483c.412.142.748.613.748 1.048v2.509z" fill="#EF8318"/><path d="M75.002 25.263c4.067 0 7.365-3.277 7.365-7.32 0-4.042-3.298-7.319-7.365-7.319-4.068 0-7.365 3.277-7.365 7.32 0 4.042 3.297 7.319 7.365 7.319z" fill="#FF9518"/><path d="M69.877 17.943c0-3.664 2.71-6.699 6.245-7.235a7.48 7.48 0 0 0-1.12-.084c-4.068 0-7.365 3.277-7.365 7.32 0 4.042 3.297 7.319 7.365 7.319.381 0 .755-.029 1.12-.084-3.536-.536-6.245-3.572-6.245-7.236z" fill="#EF8318"/><path d="M75.002 26.45c-4.715 0-8.55-3.816-8.55-8.507 0-4.69 3.835-8.506 8.55-8.506 4.716 0 8.552 3.816 8.552 8.506 0 4.691-3.837 8.507-8.552 8.507zm0-14.639c-3.407 0-6.18 2.751-6.18 6.132 0 3.382 2.773 6.133 6.18 6.133 3.408 0 6.18-2.751 6.18-6.133 0-3.38-2.772-6.132-6.18-6.132z" fill="#DB722C"/><path d="M75.002 21.037a3.104 3.104 0 0 0 3.113-3.094 3.104 3.104 0 0 0-3.113-3.094 3.104 3.104 0 0 0-3.114 3.094 3.104 3.104 0 0 0 3.114 3.094z" fill="#FF9518"/><path d="M74.13 17.943c0-1.316.827-2.437 1.993-2.884a3.119 3.119 0 0 0-1.12-.21 3.104 3.104 0 0 0-3.114 3.094 3.104 3.104 0 0 0 3.113 3.094c.396 0 .772-.076 1.12-.21a3.093 3.093 0 0 1-1.993-2.884z" fill="#EF8318"/><path d="M75.002 22.225c-2.37 0-4.299-1.92-4.299-4.281 0-2.361 1.929-4.282 4.3-4.282 2.37 0 4.298 1.92 4.298 4.282 0 2.36-1.928 4.281-4.299 4.281zm0-6.188a1.92 1.92 0 0 0-1.928 1.907 1.92 1.92 0 0 0 1.928 1.907 1.92 1.92 0 0 0 1.928-1.907 1.92 1.92 0 0 0-1.928-1.907z" fill="#DB722C"/></svg>