<svg xmlns="http://www.w3.org/2000/svg" width="93.169" height="93.169"><path d="M64.902 0H28.265a6.72 6.72 0 0 0-6.72 6.72v79.729a6.72 6.72 0 0 0 6.72 6.72h36.637a6.72 6.72 0 0 0 6.722-6.72V6.72A6.722 6.722 0 0 0 64.902 0zM42.088 3.973h8.991a.587.587 0 0 1 0 1.173h-8.991a.586.586 0 0 1 0-1.173zm-8.962-1.41a.938.938 0 1 1 0 1.876.938.938 0 0 1 0-1.876zm-4.25-.562a1.5 1.5 0 1 1 0 3 1.5 1.5 0 0 1 0-3zM48.93 89.758h-4.691a2.692 2.692 0 1 1 0-5.383h4.691a2.692 2.692 0 1 1 0 5.383zm19.847-7.51H24.391V10.92h44.386v71.328z"/></svg>