<svg width="13" height="15" viewBox="0 0 13 15" fill="none" xmlns="http://www.w3.org/2000/svg">
<path d="M11.4466 6.05762H11.1543V4.68969C11.1543 2.15958 9.14649 0.0460417 6.63697 0.000924531C6.56841 -0.000308177 6.43139 -0.000308177 6.36285 0.000924531C3.85327 0.0460417 1.8455 2.15958 1.8455 4.68969V6.05762H1.55319C1.10276 6.05762 0.735352 6.52242 0.735352 7.09646V13.9575C0.735352 14.5309 1.10276 15 1.55322 15H11.4466C11.897 15 12.2644 14.5309 12.2644 13.9575V7.09646C12.2644 6.52245 11.897 6.05762 11.4466 6.05762ZM7.42677 10.52V12.5931C7.42677 12.8305 7.22803 13.0314 6.99045 13.0314H6.0094C5.7718 13.0314 5.57306 12.8305 5.57306 12.5931V10.52C5.34263 10.2932 5.20848 9.97955 5.20848 9.6326C5.20848 8.97514 5.7167 8.41019 6.36288 8.38408C6.43136 8.38131 6.56853 8.38131 6.63701 8.38408C7.28319 8.41019 7.79141 8.97514 7.79141 9.6326C7.79134 9.97955 7.6572 10.2932 7.42677 10.52ZM9.22788 6.05762H3.77194V4.68969C3.77194 3.18255 4.99676 1.93637 6.4999 1.93637C8.00303 1.93637 9.22791 3.18255 9.22791 4.68969L9.22788 6.05762Z" fill="white"/>
</svg>
