<svg width="744" height="387" viewBox="0 0 744 387" fill="none" xmlns="http://www.w3.org/2000/svg">
<g filter="url(#filter0_d)">
<rect x="138" width="23" height="23" fill="white"/>
<rect x="184" width="23" height="23" fill="white"/>
<path d="M268.5 375H689V9H17V375H96.5" stroke="white" stroke-width="2"/>
<path d="M93.0234 54.625V157H68.4141V119.172L61.1719 120.086L52.1016 120.648C38.3203 120.648 27.7734 117.672 20.4609 111.719C13.1484 105.719 9.44531 97.2344 9.35156 86.2656V54.625H34.0312V85.9141C34.0312 91.4922 35.3672 95.5234 38.0391 98.0078C40.7578 100.445 45.4453 101.664 52.1016 101.664L54.2109 101.594C59.9766 101.312 64.7109 100.867 68.4141 100.258V54.625H93.0234ZM200.714 113.617H161.902V138.016H207.745V157H137.222V54.625H207.886V73.6797H161.902V95.2656H200.714V113.617ZM271.28 122.266V157H246.6V54.625H287.452C295.28 54.625 302.194 56.0781 308.194 58.9844C314.241 61.8438 318.905 65.9453 322.186 71.2891C325.514 76.5859 327.178 82.6094 327.178 89.3594C327.178 99.3438 323.592 107.336 316.42 113.336C309.295 119.289 299.498 122.266 287.03 122.266H271.28ZM271.28 103.211H287.452C292.233 103.211 295.866 102.016 298.35 99.625C300.881 97.2344 302.147 93.8594 302.147 89.5C302.147 84.7188 300.858 80.8984 298.28 78.0391C295.702 75.1797 292.186 73.7266 287.733 73.6797H271.28V103.211ZM454.767 157H430.228V114.25H393.877V157H369.197V54.625H393.877V95.2656H430.228V54.625H454.767V157ZM558.661 137.875H524.841L518.934 157H492.567L530.114 54.625H553.317L591.145 157H564.638L558.661 137.875ZM530.747 118.82H552.755L541.716 83.3125L530.747 118.82ZM671.555 157V121.07H657.352L640.055 157H613.266L634.289 112.703C625.148 106.75 620.578 98.0078 620.578 86.4766C620.578 76.3516 623.906 68.5234 630.562 62.9922C637.219 57.4141 646.805 54.625 659.32 54.625H696.305V157H671.555ZM645.188 88.6562C645.188 93.8594 646.242 97.6328 648.352 99.9766C650.461 102.32 654 103.492 658.969 103.492H671.555V73.6797H659.109C654.188 73.6797 650.625 74.9688 648.422 77.5469C646.266 80.0781 645.188 83.7812 645.188 88.6562ZM93.7266 325H69.0469V241.68H32.2734V325H7.59375V222.625H93.7266V325ZM157.531 325V289.07H143.328L126.031 325H99.2419L120.265 280.703C111.125 274.75 106.554 266.008 106.554 254.477C106.554 244.352 109.882 236.523 116.539 230.992C123.195 225.414 132.781 222.625 145.297 222.625H182.281V325H157.531ZM131.164 256.656C131.164 261.859 132.218 265.633 134.328 267.977C136.437 270.32 139.976 271.492 144.945 271.492H157.531V241.68H145.086C140.164 241.68 136.601 242.969 134.398 245.547C132.242 248.078 131.164 251.781 131.164 256.656ZM278.992 241.68H248.265V325H223.585V241.68H193.421V222.625H278.992V241.68ZM379.358 325H354.819V282.25H318.468V325H293.788V222.625H318.468V263.266H354.819V222.625H379.358V325ZM459.405 222.625H484.085V325H459.405V260.453L422.632 325H397.952V222.625H422.632V287.242L459.405 222.625ZM501.834 222.625H526.373V306.016H563.147V222.625H587.897V306.227H603.577L602.17 349.68H578.897V325H501.834V222.625ZM678.35 305.875H644.529L638.623 325H612.256L649.803 222.625H673.006L710.834 325H684.326L678.35 305.875ZM650.436 286.82H672.443L661.404 251.312L650.436 286.82Z" fill="white"/>
</g>
<defs>
<filter id="filter0_d" x="3.59375" y="0" width="711.24" height="384" filterUnits="userSpaceOnUse" color-interpolation-filters="sRGB">
<feFlood flood-opacity="0" result="BackgroundImageFix"/>
<feColorMatrix in="SourceAlpha" type="matrix" values="0 0 0 0 0 0 0 0 0 0 0 0 0 0 0 0 0 0 127 0"/>
<feOffset dy="4"/>
<feGaussianBlur stdDeviation="2"/>
<feColorMatrix type="matrix" values="0 0 0 0 1 0 0 0 0 1 0 0 0 0 1 0 0 0 0.25 0"/>
<feBlend mode="normal" in2="BackgroundImageFix" result="effect1_dropShadow"/>
<feBlend mode="normal" in="SourceGraphic" in2="effect1_dropShadow" result="shape"/>
</filter>
</defs>
</svg>
