<svg width="14" height="14" fill="none" xmlns="http://www.w3.org/2000/svg"><path d="M13.02 6.326l-.363-1.45a.22.22 0 0 0 .174-.214v-.234a.922.922 0 0 0-.92-.92h-1.652v-.483a.454.454 0 0 0-.453-.453H1.388a.454.454 0 0 0-.453.453V7a.22.22 0 0 0 .439 0V3.025c0-.008.006-.015.014-.015h8.418c.008 0 .014.007.014.015V7a.22.22 0 1 0 .439 0v-.248h2.586c.32 0 .59.209.682.496h-.681a.22.22 0 0 0-.22.22v.467c0 .379.308.687.687.687h.248v.965h-.573a1.39 1.39 0 0 0-1.312-.936 1.39 1.39 0 0 0-1.312.936h-.105V7.935a.22.22 0 1 0-.439 0v1.652H5.272A1.39 1.39 0 0 0 3.96 8.65a1.39 1.39 0 0 0-1.312.936h-1.26a.015.015 0 0 1-.014-.015V9.09h.95a.22.22 0 0 0 0-.439H.219a.22.22 0 0 0 0 .439h.716v.482c0 .25.204.453.453.453h1.184v.015a1.39 1.39 0 0 0 1.388 1.388 1.39 1.39 0 0 0 1.39-1.388v-.015h4.94v.015a1.39 1.39 0 0 0 1.387 1.388 1.39 1.39 0 0 0 1.389-1.388v-.015h.716a.22.22 0 0 0 .219-.22V7.469c0-.578-.426-1.057-.98-1.142zm-2.761-2.38h1.651c.266 0 .482.216.482.482v.015H10.26v-.497zm0 2.367V4.881h1.948l.358 1.432h-2.306zM3.96 10.99a.95.95 0 0 1 0-1.9.951.951 0 0 1 0 1.9zm7.716 0a.95.95 0 0 1 0-1.9.95.95 0 0 1 0 1.9zm1.886-2.805h-.249a.249.249 0 0 1-.248-.249v-.248h.497v.497z" fill="#000"/><path d="M3.96 9.587a.454.454 0 1 0 .001.907.454.454 0 0 0 0-.907zm7.716 0a.454.454 0 1 0 .001.907.454.454 0 0 0 0-.907zm-2.572-.936H5.831a.22.22 0 0 0 0 .439h3.273a.22.22 0 0 0 0-.439zm-5.611-.935H.687a.22.22 0 0 0 0 .438h2.806a.22.22 0 0 0 0-.438zm4.13-2.976a.22.22 0 0 0-.31 0l-1.95 1.95L4.35 5.676a.22.22 0 1 0-.31.31l1.17 1.169a.218.218 0 0 0 .31 0l2.104-2.104a.22.22 0 0 0 0-.31z" fill="#000"/></svg>