<svg width="12" height="12" fill="none" xmlns="http://www.w3.org/2000/svg"><path d="M12 5.59h-.582V2.942c0-.635-.521-1.152-1.163-1.152h-.787L8.66.355a.699.699 0 0 0-.949-.268L4.62 1.79H1.163A1.16 1.16 0 0 0 0 2.942v7.906A1.16 1.16 0 0 0 1.163 12h9.092c.642 0 1.163-.517 1.163-1.152V8.526H12V5.59zm-1.745-3.34c.358 0 .651.27.69.615h-.874l-.345-.614h.53zM7.94.49a.238.238 0 0 1 .316.089L9.54 2.865H3.624L7.939.49zm3.014 10.358a.695.695 0 0 1-.698.691H1.163a.695.695 0 0 1-.698-.69V2.941c0-.381.313-.691.698-.691h2.62l-1.117.614H1.31a.231.231 0 0 0-.233.23c0 .127.104.23.233.23h9.644V5.59H9.252c-.79 0-1.433.637-1.433 1.419v.099c0 .782.643 1.419 1.433 1.419h1.701v2.322zm.582-2.782H9.252a.964.964 0 0 1-.968-.958v-.1c0-.528.434-.957.968-.957h2.283v2.015zm-1.57-.989a.51.51 0 0 1-.514.509.51.51 0 0 1-.514-.509c0-.28.23-.508.514-.508a.51.51 0 0 1 .513.508z" fill="#000"/></svg>