<?xml version="1.0" standalone="no"?>
<!DOCTYPE svg PUBLIC "-//W3C//DTD SVG 1.1//EN" "http://www.w3.org/Graphics/SVG/1.1/DTD/svg11.dtd" >
<svg xmlns="http://www.w3.org/2000/svg" xmlns:xlink="http://www.w3.org/1999/xlink" version="1.1">
<metadata>
Created by FontForge 20170731 at Fri Jan 26 16:12:41 2018
 By Aleksey,,,
a_CopperGothCaps *Arsenal Company (c) 1996*  FAX: (095)924-3775; e-Mail: arsenal@itco.msk.su; Phone: (095)924-5811 (Design and Featuring W.Chufarofsky)
</metadata>
<defs>
<font id="CopperPlate-Bold" horiz-adv-x="599" >
  <font-face 
    font-family="CopperPlate"
    font-weight="700"
    font-stretch="normal"
    units-per-em="1000"
    panose-1="0 0 0 0 0 0 0 0 0 0"
    ascent="800"
    descent="-200"
    x-height="575"
    cap-height="700"
    bbox="-22 -204 1057 894"
    underline-thickness="90"
    underline-position="-403"
    unicode-range="U+0020-2219"
  />
<missing-glyph horiz-adv-x="500" 
d="M375 63v769h-250v-769h250zM63 894h375v-894h-375v894z" />
    <glyph glyph-name=".notdef" horiz-adv-x="500" 
d="M375 63v769h-250v-769h250zM63 894h375v-894h-375v894z" />
    <glyph glyph-name=".null" horiz-adv-x="0" 
 />
    <glyph glyph-name="nonmarkingreturn" horiz-adv-x="333" 
 />
    <glyph glyph-name="space" unicode=" " horiz-adv-x="366" 
 />
    <glyph glyph-name="exclam" unicode="!" horiz-adv-x="351" 
d="M175 148q33 0 56.5 -23.5t23.5 -56.5t-23.5 -56t-56.5 -23t-56.5 23t-23.5 56t23.5 56.5t56.5 23.5zM225 229l6 -1v-17h-112v17l6 1q16 6 21 12.5t4 23.5l-2 23l-43 317q-5 31 -9 35q-3 6 -23 11v16h204v-16q-19 -4 -23 -11q-4 -6 -9 -35l-43 -317l-1 -15v-8
q0 -17 4.5 -23.5t19.5 -12.5z" />
    <glyph glyph-name="quotedbl" unicode="&#x22;" horiz-adv-x="466" 
d="M39 683v21h155v-21q-14 0 -19 -8q-13 -19 -28 -190l-5 -46q0 -27 24 -27v-15h-97v15q24 0 24 27q0 29 -14 129q-13 96 -20 106q-6 9 -20 9zM273 683v21h155v-21q-14 0 -19 -8q-13 -19 -28 -190l-5 -46q0 -27 24 -27v-15h-97v15q24 0 24 27q0 29 -14 129q-13 96 -20 106
q-6 9 -20 9z" />
    <glyph glyph-name="numbersign" unicode="#" horiz-adv-x="805" 
d="M336 434l-33 -167h168l33 167h-168zM762 577h17l-33 -175h-18q-5 32 -30 32h-87l-31 -167h85q29 0 43 33h16l-32 -175h-17q-1 33 -31 33h-86l-19 -104v-4q-1 -1 -1 -3q0 -19 26 -30l-4 -17h-174l4 17q36 11 40 38l19 103h-168l-19 -104v-4q-1 -1 -1 -3q0 -19 26 -30
l-3 -17h-174l3 17q36 11 41 38l19 103h-85q-30 0 -44 -33h-17l34 175h17q3 -33 31 -33h86l32 167h-87q-27 0 -42 -32h-18l35 175h16q1 -34 31 -34h86q8 48 21 107v5q0 21 -27 28l4 17h175l-4 -17q-34 -9 -40 -37l-20 -103h168q8 48 21 107v5q0 21 -27 28l3 17h175l-3 -17
q-36 -8 -41 -37l-19 -103h84q31 0 44 34z" />
    <glyph glyph-name="dollar" unicode="$" 
d="M450 197q0 51 -33 71q-25 16 -80 16v-175q113 11 113 88zM276 428v162q-39 0 -72 -18q-40 -21 -40 -57q0 -45 35 -68q29 -19 77 -19zM558 648l12 -7l-68 -165l-11 8q0 46 -56 78q-47 28 -98 28v-162q108 0 167 -50q64 -54 64 -159q0 -74 -39 -131t-108 -82
q-41 -14 -84 -14v-34q0 -29 25 -38v-16h-112v16q22 7 26 29v43q-95 8 -202 71q-10 5 -15 5q-6 0 -17 -11l-11 7l61 172l11 -6q0 -53 62 -88q49 -28 111 -33v176q-99 0 -160 52q-65 56 -65 152q0 102 61 161.5t164 59.5v28q0 26 -26 37v16h114v-16q-21 -7 -26 -26
q-1 -3 -1 -39q78 -7 162 -58q25 -15 38 -15q7 0 21 11z" />
    <glyph glyph-name="percent" unicode="%" horiz-adv-x="742" 
d="M243 523q0 110 -73 110q-38 0 -57 -37q-15 -30 -15 -71t16 -70q20 -38 56 -38q38 0 57 36q16 29 16 70zM643 174q0 42 -15 71q-20 38 -57 38q-36 0 -56 -38q-16 -31 -16 -71t16 -69q21 -37 56 -37q37 0 56 37q16 28 16 69zM314 523q0 -72 -35 -122q-39 -57 -109 -57
q-69 0 -108 58q-34 50 -34 123t34 123q39 58 108 58q71 0 110 -58q34 -49 34 -125zM491 679v21h145v-21q-30 -5 -70 -68l-330 -533q-14 -23 -14 -35q0 -19 24 -27v-16h-148v21q25 0 46 24q8 9 30 45l324 521q17 28 17 49q0 19 -24 19zM714 172q0 -71 -35 -121
q-38 -55 -108 -55q-71 0 -108 56q-34 49 -34 123t33 124q37 58 109 58q71 0 110 -59q33 -51 33 -126z" />
    <glyph glyph-name="ampersand" unicode="&#x26;" horiz-adv-x="650" 
d="M381 218q0 52 -39 89q-40 38 -91 38q-47 0 -80 -35q-33 -34 -33 -82q0 -52 32.5 -86.5t83.5 -34.5q50 0 88 31q39 32 39 80zM366 519q0 40 -23 64t-62 24t-62.5 -24.5t-23.5 -63.5q0 -37 24.5 -62t61.5 -25q36 0 60.5 25.5t24.5 61.5zM614 158h13v-158q-67 0 -107 18
q-44 20 -82 71q-83 -99 -198 -99q-94 0 -154 57q-61 60 -61 152q0 132 125 209q-56 62 -56 132q0 77 53 124q52 48 131 48t133 -48t54 -126q0 -49 -19 -83q-17 -29 -56 -64q46 -36 66 -98q35 76 65 114q42 51 106 75v-195h-13q-2 27 -12 27q-26 0 -58 -48q-27 -42 -34 -73
q50 -60 83 -60q18 0 21 25z" />
    <glyph glyph-name="quotesingle" unicode="'" horiz-adv-x="233" 
d="M39 683v21h155v-21q-14 0 -19 -8q-13 -19 -28 -190l-5 -46q0 -27 24 -27v-15h-97v15q24 0 24 27q0 29 -14 129q-13 96 -20 106q-6 9 -20 9z" />
    <glyph glyph-name="parenleft" unicode="(" horiz-adv-x="281" 
d="M274 -35l-46 -47q-83 74 -129 197q-44 117 -44 235t44 235q47 126 129 199l46 -46q-109 -154 -109 -388q0 -121 22 -203q26 -98 87 -182z" />
    <glyph glyph-name="parenright" unicode=")" horiz-adv-x="281" 
d="M225 350q0 -121 -43 -235q-46 -123 -129 -197l-47 47q109 148 109 385q0 122 -21 204q-26 97 -88 184l47 46q84 -77 130 -199q42 -113 42 -235z" />
    <glyph glyph-name="asterisk" unicode="*" horiz-adv-x="423" 
d="M332 701l14 5l38 -148l-14 -6q-14 23 -30 23q-15 0 -84 -23q54 -90 77 -90q6 0 15 6l9 -17l-101 -91l-8 16q10 16 10 26q0 27 -46 109q-45 -81 -45 -109q0 -12 11 -26l-11 -16l-100 91l9 17q11 -6 16 -6q25 0 75 89q-65 24 -83 24q-16 0 -30 -23l-15 5l39 148l15 -5
q0 -31 32 -54q17 -10 60 -30q0 73 -7 101t-28 34v20h124v-20q-20 -6 -27 -35t-7 -100q64 29 77 42q15 15 15 43z" />
    <glyph glyph-name="plus" unicode="+" horiz-adv-x="644" 
d="M536 433h12v-166h-12q-8 33 -27 33h-147v-183q0 -27 27 -35v-14h-133v15q26 8 26 32v185h-147q-19 0 -27 -33h-12v166h12q8 -33 27 -33h147v185q0 24 -26 33v14h133v-14q-27 -12 -27 -35v-183h147q19 0 27 33z" />
    <glyph glyph-name="comma" unicode="," horiz-adv-x="293" 
d="M50 -165v37q56 24 84 52q31 29 38 72q-24 -6 -36 -6q-29 0 -54 18q-22 19 -22 59t23 63q21 22 55 22q48 0 72 -39q23 -35 23 -80q0 -81 -78 -146q-43 -34 -105 -52z" />
    <glyph glyph-name="hyphen" unicode="-" horiz-adv-x="187" 
d="M174 376h13v-177h-13q-8 33 -30 33h-102q-22 0 -29 -33h-13v177h13q7 -33 29 -33h102q22 0 30 33z" />
    <glyph glyph-name="period" unicode="." horiz-adv-x="280" 
d="M140 148q33 0 56.5 -23.5t23.5 -56.5t-23.5 -55.5t-56.5 -22.5t-56.5 22.5t-23.5 55.5t23.5 56.5t56.5 23.5z" />
    <glyph glyph-name="slash" unicode="/" horiz-adv-x="638" 
d="M418 684v16h192v-16q-21 -4 -41 -29q-10 -13 -29 -44l-330 -533q-15 -24 -15 -35q0 -20 25 -27v-16h-192v16q6 1 18 5q17 6 56 69l323 521q18 29 18 42q0 24 -25 31z" />
    <glyph glyph-name="zero" unicode="0" 
d="M440 351q0 91 -28 154q-37 88 -114 88q-73 0 -110 -88q-29 -69 -29 -150q0 -82 29 -151q39 -89 111 -89q73 0 111 86q30 67 30 150zM565 345q0 -103 -35 -187q-40 -96 -121 -142q-50 -26 -110 -26q-133 0 -205 119q-60 101 -60 242q0 142 60 241q70 120 204 120
q135 0 207 -122q60 -101 60 -245z" />
    <glyph glyph-name="one" unicode="1" 
d="M407 16v-16h-171v16q26 11 26 35v449l-39 -15q-21 -8 -29 -38h-13v187h13q6 -31 21 -31q13 0 47 19v24q0 30 -26 38v16h171v-16q-26 -8 -26 -38v-593q0 -26 26 -37z" />
    <glyph glyph-name="two" unicode="2" 
d="M554 159h12v-190h-12q-8 31 -31 31h-436q-21 0 -27.5 -5.5t-9.5 -25.5h-13q-3 20 -3 31q0 148 78 230q46 49 205 139q92 53 92 130q0 94 -100 94q-63 0 -112 -36q-49 -34 -49 -72q0 -8 6 -32l-8 -12l-110 148l10 10q12 -6 24 -6q7 0 41 31l44 39q71 49 168 49
q98 0 154.5 -58t56.5 -158q0 -84 -38.5 -139.5t-115.5 -97.5l-63 -35l-76 -39q-44 -23 -59 -57v-2h341q22 0 31 33z" />
    <glyph glyph-name="three" unicode="3" 
d="M566 212q0 -108 -76 -168q-67 -54 -180 -54q-117 0 -204 53q-38 23 -48 23q-12 0 -28 -19l-12 7l66 190l13 -5q-4 -9 -4 -18q0 -55 84 -88q67 -26 132 -26q56 0 92 24q42 27 42 80q0 101 -131 101q-35 0 -46 -4q-24 -8 -28 -32h-12v171h12q6 -25 27 -33q9 -4 45 -4
q121 0 121 93q0 90 -122 90q-53 0 -107 -22q-69 -27 -69 -70q0 -11 5 -23l-10 -10l-94 145l10 10q15 -9 22 -9q8 0 23 12q107 86 229 86q98 0 160 -50q65 -54 65 -151q0 -92 -70 -144q93 -43 93 -155z" />
    <glyph glyph-name="four" unicode="4" 
d="M380 234v307l-217 -307h217zM559 266h13v-182h-13q-6 27 -18 32q-6 2 -42 2v-65q0 -26 26 -37v-16h-171v16q26 11 26 37v65h-298q-20 0 -28 -6.5t-11 -27.5h-13v150l278 390q19 26 19 38q0 19 -22 22v16h220v-16q-26 -8 -26 -38v-412h31q21 0 29 32z" />
    <glyph glyph-name="five" unicode="5" 
d="M573 237q0 -116 -68.5 -181.5t-186.5 -65.5q-114 0 -171 42l-43 32q-26 20 -46 20q-8 0 -24 -11l-11 10l99 163l11 -8q-3 -14 -3 -23q0 -45 72 -79q63 -29 113 -29q62 0 99 34.5t37 94.5q0 58 -37.5 91.5t-98.5 33.5q-37 0 -76 -13q-52 -16 -52 -44q0 -9 6 -21l-10 -11
l-145 181l10 13q16 0 21 8q3 4 3 23v147q0 32 -26 40v16h444q24 0 31 34h13v-186h-13q-9 33 -31 33h-320v-151q68 42 157 42q113 0 179.5 -62.5t66.5 -172.5z" />
    <glyph glyph-name="six" unicode="6" 
d="M451 224q0 59 -37 90.5t-99 31.5q-59 0 -96.5 -32.5t-37.5 -88.5q0 -55 41 -90q38 -32 95 -32t95.5 33.5t38.5 87.5zM558 669l11 -9l-72 -168l-12 7q0 4 0.5 7.5t0.5 5.5l1 2q0 24 -15 39q-22 20 -63 34q-37 12 -71 12q-89 0 -138 -70q-44 -62 -44 -153q78 87 182 87
q102 0 166 -66q64 -65 64 -168q0 -109 -73 -175q-70 -64 -182 -64q-143 0 -213 110q-61 94 -61 243t72 253q83 116 227 116q50 0 84 -10q28 -7 87 -38q17 -9 28 -9q13 0 21 14z" />
    <glyph glyph-name="seven" unicode="7" 
d="M552 734h13v-135l-253 -519q-15 -32 -15 -39q0 -14 23 -25v-16h-200v16q32 12 57 64l250 505h-349q-22 0 -31 -33h-13v182h13q7 -34 31 -34h444q23 0 30 34z" />
    <glyph glyph-name="eight" unicode="8" 
d="M444 211q0 56 -46 84q-37 22 -98 22t-98 -22q-46 -28 -46 -84q0 -53 47 -82q38 -22 97 -22q60 0 97 22q47 27 47 82zM427 517q0 86 -127 86q-49 0 -83 -18q-44 -23 -44 -67q0 -43 44 -66q35 -18 83 -18q47 0 83 17q44 23 44 66zM569 209q0 -114 -80 -171
q-68 -48 -188 -48q-123 0 -190 47q-80 57 -80 172q0 126 125 165q-101 50 -101 150q0 98 77 148q64 40 169 40q106 0 168 -40q76 -49 76 -148q0 -100 -101 -150q125 -39 125 -165z" />
    <glyph glyph-name="nine" unicode="9" 
d="M418 474q0 58 -39 92q-37 31 -96 31q-58 0 -95 -31q-40 -34 -40 -90q0 -57 40 -90q37 -31 95 -31t96.5 32.5t38.5 86.5zM560 357q0 -149 -72 -252q-81 -115 -226 -115q-40 0 -83 10q-29 7 -89 37q-18 9 -26 9q-5 0 -12 -5l-10 -9l-11 9l72 167l12 -7q-2 -18 -2 -20
q0 -34 59 -60q48 -20 89 -20q79 0 130 59q52 59 52 164q-77 -86 -182 -86q-102 0 -165 65q-63 66 -63 168q0 109 71 175q72 66 182 66q144 0 215 -110q59 -94 59 -245z" />
    <glyph glyph-name="colon" unicode=":" horiz-adv-x="258" 
d="M196 72q0 -34 -18.5 -58t-48.5 -24q-29 0 -49 26q-18 26 -18 56q0 34 18.5 59t48.5 25q31 0 49 -24.5t18 -59.5zM196 503q0 -34 -18.5 -59t-48.5 -25t-49 28q-18 25 -18 56q0 35 18 59.5t49 24.5t49 -24.5t18 -59.5z" />
    <glyph glyph-name="semicolon" unicode=";" horiz-adv-x="258" 
d="M196 36q0 -111 -96 -195l-19 33q34 28 48.5 53.5t20.5 68.5q-20 -6 -28 -6q-29 0 -46 27q-14 25 -14 56q0 32 14 55q16 28 46 28q40 0 59 -42q15 -33 15 -78zM196 503q0 -34 -18.5 -59t-48.5 -25t-49 28q-18 25 -18 56q0 35 18 59.5t49 24.5t49 -24.5t18 -59.5z" />
    <glyph glyph-name="less" unicode="&#x3c;" horiz-adv-x="420" 
d="M392 501l-238 -150l238 -152v-148l-364 237v124l364 237v-148z" />
    <glyph glyph-name="equal" unicode="=" horiz-adv-x="644" 
d="M535 314h13v-166h-13q-7 33 -26 33h-374q-19 0 -26 -33h-13v166h13q7 -33 26 -33h374q19 0 26 33zM535 552h13v-166h-13q-7 33 -26 33h-374q-19 0 -26 -33h-13v166h13q7 -33 26 -33h374q19 0 26 33z" />
    <glyph glyph-name="greater" unicode="&#x3e;" horiz-adv-x="420" 
d="M28 501v148l364 -237v-124l-364 -237v148l238 152z" />
    <glyph glyph-name="question" unicode="?" horiz-adv-x="455" 
d="M145 504l-12 -11l-113 123l11 11q21 -8 27 -8t11 3l44 30q39 27 112 27q80 0 129 -44t49 -117q0 -47 -35 -94l-44 -49q-34 -37 -44 -59q-10 -21 -10 -59q0 -7 1 -10t8 -6.5t22 -5.5v-16h-159v16q18 5 23 13t9 39q3 30 19 62q16 33 55 80q41 50 41 85q0 32 -19.5 51.5
t-51.5 19.5t-56.5 -15.5t-24.5 -37.5q0 -10 8 -28zM212 148q33 0 56.5 -23.5t23.5 -56.5t-23.5 -56t-56.5 -23t-56.5 23t-23.5 56t23.5 56.5t56.5 23.5z" />
    <glyph glyph-name="at" unicode="@" horiz-adv-x="803" 
d="M504 368q0 34 -36 56q-32 21 -66 21q-51 0 -84 -31.5t-33 -82.5q0 -77 84 -77q98 0 129 88q6 16 6 26zM751 406q0 -87 -36 -150q-45 -77 -125 -77q-46 0 -65 9q-29 14 -35 51q-53 -49 -135 -49q-59 0 -100 32q-45 34 -45 92q0 92 55.5 144t150.5 52q67 0 117 -50l10 37
h65l-43 -183q-8 -37 -8 -65q0 -15 25 -15q52 0 78 54q20 42 20 100q0 106 -77 177q-76 70 -185 70q-116 0 -210 -84t-94 -199q0 -116 81 -201q82 -85 196 -85q184 0 184 49l11 3l32 -118l-11 -3q-14 22 -27 22q-6 0 -16 -3q-99 -24 -163 -24q-153 0 -254 100
q-104 102 -104 251q0 158 109 263t269 105q137 0 232 -83q98 -87 98 -222z" />
    <glyph glyph-name="A" unicode="A" horiz-adv-x="684" 
d="M333 521h-2l-91 -246h182zM683 16v-16h-205v16q26 8 26 32q0 10 -8 32l-37 99h-255l-38 -99q-8 -22 -8 -33q0 -21 28 -31v-16h-186v16q27 8 45 55l206 538q9 24 9 41q0 24 -23 33v17h198v-17q-24 -8 -24 -29q0 -13 8 -34l213 -540q12 -28 18 -39q14 -21 33 -25z" />
    <glyph glyph-name="B" unicode="B" horiz-adv-x="678" 
d="M518 211q0 53 -29 76q-25 19 -82 19h-209v-191h209q57 0 82 19q29 23 29 77zM504 503q0 44 -21.5 63t-68.5 19h-216v-163h216q47 0 68.5 18.5t21.5 62.5zM643 201q0 -103 -55.5 -152t-153.5 -49h-383v16q26 11 26 37v593q0 28 -26 37v17h379q196 0 196 -185
q0 -102 -76 -148q93 -45 93 -166z" />
    <glyph glyph-name="C" unicode="C" horiz-adv-x="705" 
d="M582 231l12 9l77 -146l-10 -9q-10 13 -19 13q-2 0 -88 -56q-64 -41 -135 -49q-23 -3 -52 -3q-156 0 -244 104q-85 100 -85 257q0 158 85 256q90 105 245 105q112 0 188 -55q71 -51 83 -51q15 0 22 10l10 -10l-77 -146l-12 10q0 43 -43 76q-35 26 -83 39q-34 9 -74 9
q-102 0 -163 -72q-57 -68 -57 -171q0 -105 57 -172q61 -72 163 -72q34 0 68 9q47 12 84 40q48 34 48 75z" />
    <glyph glyph-name="D" unicode="D" horiz-adv-x="704" 
d="M542 351q0 111 -38 167q-45 67 -151 67h-155v-470h155q189 0 189 236zM666 351q0 -351 -304 -351h-311v16q26 11 26 37v593q0 28 -26 37v17h311q304 0 304 -349z" />
    <glyph glyph-name="E" unicode="E" horiz-adv-x="638" 
d="M590 148h12v-179h-12q-8 31 -30 31h-509v16q26 11 26 37v593q0 28 -26 37v17h499q22 0 29 34h14v-182h-14q-7 33 -29 33h-352v-166h229q21 0 29 32h14v-176h-14q-8 33 -29 33h-229v-193h362q21 0 30 33z" />
    <glyph glyph-name="F" unicode="F" horiz-adv-x="611" 
d="M576 734h14v-182h-14q-8 33 -30 33h-348v-167h228q22 0 30 33h14v-177h-14q-8 32 -30 32h-228v-253q0 -27 27 -37v-16h-174v16q26 11 26 37v593q0 28 -26 37v17h495q23 0 30 34z" />
    <glyph glyph-name="G" unicode="G" horiz-adv-x="719" 
d="M677 115v-13q-157 -113 -309 -113q-155 0 -244 105q-85 100 -85 257q0 162 88 259q91 102 250 102q48 0 91 -8q40 -8 96 -39q27 -15 39 -15q7 0 20 13l12 -8l-66 -169l-11 9q-2 48 -72 76q-57 23 -112 23q-98 0 -157 -75q-54 -69 -54 -170q0 -102 56 -170q61 -73 161 -73
q98 0 169 50v96h-138q-21 0 -29 -32h-13v162h13q8 -33 29 -33h266v-17q-26 -8 -26 -37v-143q0 -29 26 -37z" />
    <glyph glyph-name="H" unicode="H" horiz-adv-x="720" 
d="M670 16v-16h-175v16q27 11 27 37v253h-324v-253q0 -26 26 -37v-16h-174v16q26 11 26 37v593q0 28 -26 37v17h174v-17q-26 -9 -26 -37v-225h324v225q0 28 -27 37v17h175v-17q-27 -7 -27 -37v-593q0 -27 27 -37z" />
    <glyph glyph-name="I" unicode="I" horiz-adv-x="276" 
d="M225 16v-16h-174v16q26 11 26 37v593q0 29 -26 37v17h174v-17q-27 -7 -27 -37v-593q0 -27 27 -37z" />
    <glyph glyph-name="J" unicode="J" horiz-adv-x="509" 
d="M292 683v17h175v-17q-27 -9 -27 -37v-412q0 -119 -41 -176q-47 -66 -161 -66q-63 0 -103 13q-8 3 -24 9.5t-24 9.5q-31 11 -50 11q-13 0 -25 -14l-12 6l53 177l12 -5q0 -46 55 -71q42 -19 96 -19q64 0 86 37q16 26 16 96v404q0 28 -26 37z" />
    <glyph glyph-name="K" unicode="K" horiz-adv-x="674" 
d="M665 16v-16h-219v16q22 7 22 20q0 6 -20 38l-165 253l-85 -85v-189q0 -27 27 -37v-16h-174v16q26 11 26 37v593q0 29 -26 37v17h174v-17q-27 -7 -27 -37v-244l232 235q16 16 16 26q0 15 -24 20v17h229v-17q-7 -1 -13.5 -4t-13 -8.5t-10 -8.5t-11 -11.5t-9.5 -10.5
l-221 -223l216 -325l40 -57q15 -15 36 -19z" />
    <glyph glyph-name="L" unicode="L" horiz-adv-x="595" 
d="M573 148h13v-179h-13q-7 31 -30 31h-492v16q26 11 26 37v593q0 28 -26 37v17h174v-17q-27 -9 -27 -37v-531h345q23 0 30 33z" />
    <glyph glyph-name="M" unicode="M" horiz-adv-x="813" 
d="M762 16v-16h-175v16q26 11 26 37v431l-217 -474l-207 474v-431q0 -26 26 -37v-16h-164v16q26 11 26 37v593q0 29 -26 37v17h215v-17q-19 -6 -19 -27q0 -10 6 -24l153 -352l154 346q10 21 10 35q0 20 -20 22v17h212v-17q-27 -7 -27 -37v-593q0 -27 27 -37z" />
    <glyph glyph-name="N" unicode="N" horiz-adv-x="732" 
d="M682 16v-16h-176v16q17 5 17 23q0 8 -21 35l-313 406v-427q0 -26 26 -37v-16h-164v16q26 11 26 37v593q0 29 -26 37v17h191v-17q-19 -4 -19 -22q0 -14 11 -28l309 -401v414q0 28 -26 37v17h165v-17q-26 -9 -26 -37v-593q0 -26 26 -37z" />
    <glyph glyph-name="O" unicode="O" horiz-adv-x="717" 
d="M555 347q0 99 -47 169q-54 78 -150 78q-92 0 -147 -78q-49 -69 -49 -165q0 -97 48 -166q56 -78 148 -78q93 0 148 76q49 67 49 164zM681 346q0 -152 -84 -252q-86 -104 -239 -104q-66 0 -126 24q-97 40 -149 137q-47 88 -47 200q0 156 82 254q89 107 240 107
q104 0 183.5 -57.5t115.5 -157.5q24 -66 24 -151z" />
    <glyph glyph-name="P" unicode="P" horiz-adv-x="641" 
d="M495 492q0 55 -28 76q-25 17 -82 17h-187v-185h187q57 0 83.5 19t26.5 73zM620 492q0 -208 -220 -208h-202v-231q0 -26 26 -37v-16h-174v16q26 11 26 37v593q0 29 -26 37v17h350q113 0 166.5 -49.5t53.5 -158.5z" />
    <glyph glyph-name="Q" unicode="Q" horiz-adv-x="716" 
d="M555 351q0 96 -50 166q-56 77 -148 77q-93 0 -147 -78q-49 -68 -49 -165t48 -166q55 -78 148 -78q41 0 76 16q-39 79 -110 100v14q32 29 67 29q32 0 67 -24q20 -15 54 -49q44 68 44 158zM686 12l9 -12l-120 -134l-9 12q8 16 8 26q0 11 -71 114q-64 -28 -148 -28
q-152 0 -238 107q-81 101 -81 254q0 154 82 254q89 107 239 107q104 0 182.5 -55t115.5 -152q25 -65 25 -154q0 -154 -88 -261q27 -39 63 -80q4 -4 13 -4q6 0 18 6z" />
    <glyph glyph-name="R" unicode="R" horiz-adv-x="680" 
d="M510 492q0 58 -36 79q-26 14 -87 14h-189v-184h189q60 0 86 14q37 19 37 77zM663 16v-16h-203v16q21 5 21 19q0 11 -19 45l-114 205h-150v-232q0 -27 27 -37v-16h-174v16q26 11 26 37v593q0 28 -26 37v17h350q119 0 172 -44q59 -48 59 -164q0 -171 -153 -201l109 -193
q18 -34 29 -51q19 -29 46 -31z" />
    <glyph glyph-name="S" unicode="S" horiz-adv-x="606" 
d="M573 215q0 -109 -77 -171q-69 -54 -184 -54q-114 0 -220 64q-23 14 -28 14q-4 0 -16 -12l-12 8l60 172l12 -7q0 -54 79 -91q67 -31 127 -31q48 0 90 20q50 26 50 71q0 41 -38 61q-26 12 -76 18l-64 8q-110 13 -165 57q-55 43 -55 147q0 107 68 166q64 57 173 57
q63 0 108 -15q20 -6 50 -20q15 -7 45 -23q36 -17 42 -17t20 11l11 -7l-66 -165l-11 8q0 19 -4 27t-20 21q-77 62 -172 62q-131 0 -131 -81q0 -35 24 -52q14 -8 37 -14q25 -7 126 -19q107 -14 158 -59q59 -53 59 -154z" />
    <glyph glyph-name="T" unicode="T" horiz-adv-x="568" 
d="M548 734h14v-182h-14q-8 33 -30 33h-173v-532q0 -26 26 -37v-16h-175v16q26 11 26 37v532h-173q-21 0 -30 -33h-13v182h13q7 -34 30 -34h469q23 0 30 34z" />
    <glyph glyph-name="U" unicode="U" horiz-adv-x="691" 
d="M485 683v17h164v-17q-25 -9 -25 -37v-392q0 -148 -65 -207q-63 -57 -213 -57q-148 0 -210 58q-67 61 -67 206v392q0 28 -27 37v17h176v-17q-27 -9 -27 -37v-348q0 -72 13 -110q19 -58 74 -73q32 -8 73 -8q43 0 75 8q85 22 85 177v354q0 28 -26 37z" />
    <glyph glyph-name="V" unicode="V" horiz-adv-x="641" 
d="M455 683v17h192v-17q-4 -1 -8 -2.5t-7 -3.5t-6.5 -5.5t-5.5 -6t-4.5 -8t-4 -8t-4 -8.5t-3.5 -8.5t-3 -9t-3 -8.5l-195 -525q-12 -32 -12 -43q0 -26 26 -31v-16h-194v16q27 4 27 31q0 11 -12 43l-195 525l-14 43q-10 20 -33 25v17h197v-17q-27 -6 -27 -28q0 -13 10 -40
l147 -412l150 412q9 25 9 40q0 22 -27 28z" />
    <glyph glyph-name="W" unicode="W" horiz-adv-x="959" 
d="M769 683v17h193v-17q-29 -7 -49 -69l-161 -518q-12 -39 -12 -49q0 -23 30 -31v-16h-183v16q28 7 28 33q0 9 -12 47l-124 396l-125 -396q-13 -39 -13 -47q0 -23 30 -33v-16h-180v16q28 7 28 35q0 6 -12 45l-161 518q-9 27 -22 57q-9 12 -25 12v17h192v-17q-25 -6 -25 -29
q0 -11 8 -40l109 -365l117 365q11 36 11 40q0 23 -28 29v17h203v-17q-27 -9 -27 -33q0 -9 8 -36l112 -366l111 366q9 30 9 38q0 25 -30 31z" />
    <glyph glyph-name="X" unicode="X" horiz-adv-x="633" 
d="M630 16v-16h-222v16q25 7 25 27q0 11 -15 35l-108 173l-103 -167q-17 -27 -17 -39q0 -26 28 -29v-16h-215v16q4 0 14 2q13 4 57 72l169 267l-155 254l-28 47q-17 23 -46 25v17h226v-17q-25 -7 -25 -30q0 -13 18 -42l87 -141l90 141q20 32 20 45q0 22 -29 27v17h219v-17
q-29 -1 -51 -38l-21 -34l-161 -246l170 -275q17 -28 29 -46q19 -24 44 -28z" />
    <glyph glyph-name="Y" unicode="Y" horiz-adv-x="597" 
d="M393 683v17h216v-17q-31 -5 -68 -72l-181 -318v-240q0 -26 26 -37v-16h-175v16q26 11 26 37v240l-180 318q-22 36 -28 44q-19 23 -39 28v17h219v-17q-28 -4 -28 -30q0 -10 17 -42l102 -187l103 187q17 32 17 42q0 25 -27 30z" />
    <glyph glyph-name="Z" unicode="Z" horiz-adv-x="598" 
d="M553 148h12v-179h-12q-8 31 -30 31h-490v36l325 549h-273q-21 0 -29 -33h-14v182h14q7 -34 29 -34h476v-29l-330 -556h292q21 0 30 33z" />
    <glyph glyph-name="bracketleft" unicode="[" horiz-adv-x="282" 
d="M262 49h11v-135h-11q-7 33 -32 33h-176v12q27 10 27 35v714q0 22 -27 49h176q23 0 32 33h11v-137h-11q-8 32 -32 32h-60v-670h56q27 0 36 34z" />
    <glyph glyph-name="backslash" unicode="\" horiz-adv-x="638" 
d="M610 16v-16h-192v16q24 8 24 27q0 12 -14 35l-330 533l-21 36q-13 24 -26 30q-8 5 -23 6v17h192v-17q-25 -7 -25 -30q0 -11 19 -42l323 -521q28 -45 29 -46q19 -24 44 -28z" />
    <glyph glyph-name="bracketright" unicode="]" horiz-adv-x="282" 
d="M228 -41v-12h-176q-24 0 -30 -33h-12v135h12q7 -34 36 -34h54v670h-60q-25 0 -30 -32h-12v137h12q8 -33 30 -33h176v-13q-26 -9 -26 -36v-714q0 -26 26 -35z" />
    <glyph glyph-name="asciicircum" unicode="^" horiz-adv-x="420" 
d="M14 371l131 333h132l129 -333h-105l-91 232l-90 -232h-106z" />
    <glyph glyph-name="underscore" unicode="_" horiz-adv-x="420" 
d="M0 -148v88h420v-88h-420z" />
    <glyph glyph-name="grave" unicode="`" horiz-adv-x="420" 
d="M264 653v-16h-88v16q10 0 10 6q0 7 -7 17l-54 83q-9 14 -24 14v18h125v-18q-12 0 -12 -8t6 -26l23 -68q6 -18 21 -18z" />
    <glyph glyph-name="a" unicode="a" horiz-adv-x="582" 
d="M355 224l-74 184l-72 -184h146zM586 14v-14h-188v14q26 5 26 31q0 11 -35 99h-211q-33 -86 -33 -99q0 -25 25 -31v-14h-168v14q17 0 27 16l13 31l169 424q9 23 9 42q0 21 -23 33v15h179v-15q-23 -11 -23 -35q0 -14 11 -41l174 -412q11 -26 17 -36q12 -18 31 -22z" />
    <glyph glyph-name="b" unicode="b" horiz-adv-x="570" 
d="M430 180q0 74 -82 74h-171v-149h171q82 0 82 75zM415 415q0 34 -20 46q-15 9 -52 9h-166v-111h166q72 0 72 56zM542 170q0 -81 -46 -125.5t-128 -44.5h-328v14q26 9 26 38v470q0 30 -26 38v15h322q166 0 166 -148q0 -71 -65 -118q44 -27 61.5 -57.5t17.5 -81.5z" />
    <glyph glyph-name="c" unicode="c" horiz-adv-x="586" 
d="M480 197l9 8l70 -125l-9 -9q-11 9 -16 9q-6 0 -39 -23q-12 -8 -23 -16t-16 -11l-4 -3q-20 -13 -46 -22q-52 -15 -103 -15q-127 0 -201 86q-72 84 -72 211q0 129 71 212q73 88 201 88q58 0 100 -16t100 -57q25 -19 32 -19q6 0 16 9l9 -9l-70 -126l-9 9q0 50 -57 78
q-45 22 -101 22q-80 0 -130 -56t-50 -135q0 -81 49 -136t129 -55q54 0 102 24q58 28 58 77z" />
    <glyph glyph-name="d" unicode="d" horiz-adv-x="591" 
d="M450 287q0 183 -156 183h-117v-365h117q156 0 156 182zM562 287q0 -287 -252 -287h-270v14q26 9 26 38v470q0 30 -26 38v15h270q115 0 183 -68q69 -67 69 -220z" />
    <glyph glyph-name="e" unicode="e" horiz-adv-x="539" 
d="M499 137h11v-168h-11q-7 31 -31 31h-428v14q26 9 26 38v472q0 27 -26 36v15h415q23 0 31 32h12v-170h-12q-8 33 -31 33h-278v-125h173q22 0 31 33h11v-167h-11q-9 33 -31 33h-173v-139h291q23 0 31 32z" />
    <glyph glyph-name="f" unicode="f" horiz-adv-x="512" 
d="M482 607h12v-170h-12q-4 33 -30 33h-275v-125h173q22 0 31 33h11v-167h-11q-9 33 -31 33h-173v-192q0 -28 25 -38v-14h-162v14q26 9 26 38v472q0 27 -26 36v15h412q25 0 30 32z" />
    <glyph glyph-name="g" unicode="g" horiz-adv-x="605" 
d="M569 91v-11q-130 -90 -265 -90q-128 0 -202 84q-72 82 -72 210t75 214q78 89 205 89q78 0 153 -37q30 -14 40 -14q5 0 16 8l11 -6l-56 -146l-9 6q0 39 -59 62q-45 18 -92 18q-82 0 -128 -58q-44 -55 -44 -137q0 -85 45 -134q48 -53 131 -53q81 0 136 37v89h-104
q-24 0 -31 -33h-11v152h11q7 -33 31 -33h219v-15q-27 -9 -27 -43v-121q0 -28 27 -38z" />
    <glyph glyph-name="h" unicode="h" horiz-adv-x="610" 
d="M570 14v-14h-163v14q27 10 27 38v198h-257v-198q0 -28 25 -38v-14h-162v14q26 9 26 38v472q0 27 -26 36v15h162v-15q-25 -9 -25 -38v-168h257v168q0 28 -27 38v15h163v-15q-27 -10 -27 -38v-470q0 -28 27 -38z" />
    <glyph glyph-name="i" unicode="i" horiz-adv-x="243" 
d="M202 14v-14h-162v14q26 9 26 38v472q0 27 -26 36v15h162v-15q-25 -9 -25 -38v-470q0 -28 25 -38z" />
    <glyph glyph-name="j" unicode="j" horiz-adv-x="425" 
d="M230 560v15h163v-15q-26 -9 -26 -38v-327q0 -103 -38 -152q-42 -53 -143 -53q-53 0 -142 32q-8 3 -13 3q-10 0 -18 -14l-11 4l40 157l12 -5q0 -71 116 -71q87 0 87 101v325q0 29 -27 38z" />
    <glyph glyph-name="k" unicode="k" horiz-adv-x="576" 
d="M569 14v-14h-201v14q23 3 23 16q0 11 -22 43l-127 190l-65 -68v-143q0 -28 25 -38v-14h-162v14q26 9 26 38v470q0 29 -26 38v15h162v-15q-25 -9 -25 -38v-188l173 173q19 19 19 33q0 16 -24 20v15h209v-15q-22 0 -48 -21q-3 -3 -38 -39l-150 -160l171 -248l30 -43
q19 -27 36 -33q10 -2 14 -2z" />
    <glyph glyph-name="l" unicode="l" horiz-adv-x="482" 
d="M465 137h11v-168h-11q-8 31 -31 31h-394v14q26 9 26 38v472q0 27 -26 36v15h162v-15q-25 -9 -25 -38v-417h257q23 0 31 32z" />
    <glyph glyph-name="m" unicode="m" horiz-adv-x="688" 
d="M648 14v-14h-163v14q26 9 26 38v326l-177 -360l-168 360v-326q0 -28 27 -38v-14h-153v14q26 9 26 38v470q0 29 -26 38v15h194v-15q-19 -7 -19 -29q0 -20 14 -51l114 -242l116 238q19 38 19 58t-20 26v15h190v-15q-26 -9 -26 -38v-470q0 -29 26 -38z" />
    <glyph glyph-name="n" unicode="n" horiz-adv-x="626" 
d="M585 14v-14h-165v14q18 3 18 19q0 11 -28 45l-244 301v-327q0 -28 27 -38v-14h-153v14q26 9 26 38v470q0 29 -26 38v15h177v-15q-19 -6 -19 -20q0 -12 14 -29l246 -306v317q0 29 -26 38v15h153v-15q-27 -10 -27 -38v-470q0 -28 27 -38z" />
    <glyph glyph-name="o" unicode="o" horiz-adv-x="597" 
d="M455 285q0 77 -39 132q-43 61 -118 61q-72 0 -117 -61q-40 -55 -40 -130t40 -130q45 -61 117 -61q74 0 117 60q40 53 40 129zM568 283q0 -71 -21 -125q-31 -78 -97.5 -123t-151.5 -45q-125 0 -199 87q-70 83 -70 210t70 210q75 90 199 90q86 0 152 -46.5t97 -127.5
q21 -55 21 -130z" />
    <glyph glyph-name="p" unicode="p" horiz-adv-x="547" 
d="M418 405q0 40 -23 54q-17 11 -61 11h-157v-129h157q44 0 61 10q23 14 23 54zM530 405q0 -169 -190 -169h-163v-184q0 -28 25 -38v-14h-162v14q26 9 26 38v470q0 29 -26 38v15h300q94 0 140 -37q50 -41 50 -133z" />
    <glyph glyph-name="q" unicode="q" horiz-adv-x="607" 
d="M457 288q0 76 -40 130q-45 60 -118 60q-75 0 -118 -60q-39 -54 -39 -131q0 -75 40 -130q43 -61 116 -61q34 0 64 15q-45 70 -89 84v8q25 24 53 24q45 0 99 -59q32 53 32 120zM582 8l8 -8l-99 -113l-9 10q9 14 9 19q0 10 -66 100q-60 -26 -127 -26q-125 0 -198 88
q-70 83 -70 209q0 127 70 210q75 90 199 90q125 0 200 -89q71 -85 71 -211q0 -128 -71 -211q55 -76 67 -76q5 0 16 8z" />
    <glyph glyph-name="r" unicode="r" horiz-adv-x="577" 
d="M423 405q0 41 -23 55q-16 10 -58 10h-165v-129h165q42 0 58 10q23 14 23 54zM563 14v-14h-192v14q21 4 21 18q0 18 -13 40l-92 164h-110v-184q0 -28 25 -38v-14h-162v14q26 9 26 38v470q0 29 -26 38v15h306q97 0 140 -34q49 -37 49 -133q0 -70 -30.5 -109t-98.5 -57
l88 -152q16 -28 28 -45q20 -27 41 -31z" />
    <glyph glyph-name="s" unicode="s" horiz-adv-x="517" 
d="M491 174q0 -93 -70 -142q-59 -42 -157 -42q-94 0 -163 34l-37 19q-6 3 -11 3q-9 0 -15 -12l-11 5l47 141l11 -6q0 -42 71 -65q54 -17 107 -17q43 0 77 14q44 18 44 56q0 34 -29 45q-26 9 -71 13q-135 14 -172 33q-76 37 -76 145q0 89 61 141q59 48 149 48q51 0 89 -13
q32 -11 97 -47q16 -9 23 -9t18 11l9 -6l-55 -134l-10 7q0 45 -66 69q-49 17 -104 17q-42 0 -74 -16q-41 -20 -41 -56q0 -42 93 -51q137 -14 173 -29q93 -40 93 -156z" />
    <glyph glyph-name="t" unicode="t" horiz-adv-x="478" 
d="M460 607h11v-170h-11q-8 33 -30 33h-136v-418q0 -27 26 -38v-14h-162v14q26 9 26 38v418h-135q-23 0 -31 -33h-12v170h12q8 -32 31 -32h381q22 0 30 32z" />
    <glyph glyph-name="u" unicode="u" horiz-adv-x="580" 
d="M396 560v15h152v-15q-26 -9 -26 -38v-304q0 -125 -53 -176.5t-179 -51.5q-123 0 -177.5 53t-54.5 175v304q0 29 -27 38v15h163v-15q-27 -9 -27 -38v-276q0 -76 25 -110q30 -40 103 -40q75 0 103 40q24 33 24 110v276q0 30 -26 38z" />
    <glyph glyph-name="v" unicode="v" horiz-adv-x="546" 
d="M371 558v17h177v-17q-22 -4 -42 -54l-161 -424q-8 -22 -8 -34q0 -26 27 -32v-14h-180v14q26 6 26 32q0 12 -8 34l-161 424q-11 29 -14 34q-10 15 -27 20v17h182v-17q-26 -6 -26 -33q0 -13 10 -39l111 -304l110 304q11 31 11 42q0 24 -27 30z" />
    <glyph glyph-name="w" unicode="w" horiz-adv-x="806" 
d="M634 560v15h179v-15q-23 -11 -35 -34q-8 -12 -18 -48l-123 -392q-7 -21 -7 -37q0 -29 28 -35v-14h-177v14q26 11 26 37q0 4 -14 52l-91 296l-95 -296q-13 -39 -13 -54q0 -29 28 -35v-14h-172v14q25 6 25 35q0 10 -8 37l-121 392l-16 49q-13 25 -34 33v15h172v-15
q-25 -10 -25 -33q0 -10 8 -37l87 -270l82 257q10 30 10 48q0 26 -26 35v15h203v-15q-26 -11 -26 -36q0 -9 11 -47l79 -257l84 274q6 20 6 31q0 26 -27 35z" />
    <glyph glyph-name="x" unicode="x" horiz-adv-x="534" 
d="M531 14v-14h-211v14q26 6 26 27q0 10 -14 33l-74 123l-76 -123q-12 -19 -12 -31q0 -19 28 -29v-14h-196v14q33 11 62 58l134 219l-117 199q-17 28 -24 39q-18 27 -29 30q-3 1 -15 1v15h210v-15q-27 -9 -27 -31q0 -12 13 -34l62 -104l57 97q18 32 18 41q0 24 -28 31v15
h200v-15q-6 0 -14 -2q-14 -4 -55 -68l-121 -192l136 -226q31 -52 67 -58z" />
    <glyph glyph-name="y" unicode="y" horiz-adv-x="503" 
d="M315 560v15h197v-15q-23 -6 -41 -29q-6 -6 -28 -45l-136 -234v-200q0 -28 27 -38v-14h-164v14q27 9 27 38v200l-136 234q-16 28 -28 45q-20 23 -40 29v15h204v-15q-27 -8 -27 -26q0 -15 20 -50l68 -117l64 117q20 36 20 50q0 18 -27 26z" />
    <glyph glyph-name="z" unicode="z" horiz-adv-x="512" 
d="M473 137h11v-168h-11q-7 31 -30 31h-412v31l267 439h-214q-22 0 -30 -33h-12v170h12q5 -32 30 -32h397v-25l-271 -445h233q21 0 30 32z" />
    <glyph glyph-name="braceleft" unicode="{" horiz-adv-x="281" 
d="M263 54h11v-140h-11q-7 33 -35 33h-95q-26 0 -50 25q-24 26 -24 51v191q0 48 -1 53q-4 37 -25 37h-25q-16 0 -20 -34h-10v161h10q4 -25 12 -30q2 -3 33 -3q15 0 20 14q6 14 6 74v191q0 29 23 55q22 25 51 25h95q28 0 35 33h11v-144h-11q-4 19 -10.5 26t-24.5 7h-34
q-44 0 -44 -74v-181q0 -40 -33 -73q33 -35 33 -74v-183q0 -73 44 -73h34q28 0 35 33z" />
    <glyph glyph-name="bar" unicode="|" horiz-adv-x="420" 
d="M150 -172v872h120v-872h-120z" />
    <glyph glyph-name="braceright" unicode="}" horiz-adv-x="281" 
d="M294 431h10v-161h-10q-5 27 -13 31q-5 3 -34 3q-25 0 -25 -90v-191q0 -26 -23 -51q-22 -25 -51 -25h-95q-29 0 -36 -33h-11v140h11q7 -33 36 -33h33q44 0 44 73v183q0 40 34 74q-34 31 -34 73v181q0 74 -44 74h-33q-29 0 -36 -33h-11v144h11q7 -33 36 -33h95q28 0 51 -26
t23 -54v-191q0 -57 5 -72q6 -15 19 -16q-2 0 27 0q17 0 21 33z" />
    <glyph glyph-name="asciitilde" unicode="~" horiz-adv-x="560" 
d="M390 452l12 13l87 -99l-10 -14l-22 6q-5 0 -36 -40t-63 -40q-28 0 -83 30t-81 30q-11 0 -22.5 -12.5t-11.5 -23.5q0 -3 8 -24l-9 -10l-89 101l8 14q15 -5 22 -5q9 0 40 37t71 37q31 0 80 -30t76 -30q13 0 23.5 12t10.5 25q0 10 -11 23z" />
    <glyph glyph-name="currency" unicode="&#xa4;" horiz-adv-x="805" 
d="M585 348q0 82 -51 137q-51 56 -132 56q-77 0 -130 -56q-52 -55 -52 -134t51 -135q53 -56 131 -56q80 0 131 54q52 53 52 134zM772 102l12 -12l-121 -119l-13 13q11 17 11 22q0 12 -13 25l-61 61q-87 -41 -184 -41q-100 0 -184 41l-62 -61q-11 -11 -11 -25q0 -8 8 -22
l-11 -13l-120 119l11 12q13 -10 26 -10q10 0 23 13l52 53q-55 79 -55 192q0 112 55 194l-52 51q-12 12 -23 12q-12 0 -26 -8l-11 11l120 121l11 -12q-8 -14 -8 -25q0 -14 11 -25l63 -62q74 42 183 42q104 0 184 -42l61 62q13 13 13 25q0 8 -11 25l13 12l121 -121l-12 -11
q-16 8 -25 8q-13 0 -25 -12l-52 -51q55 -79 55 -194q0 -114 -56 -193l53 -52q13 -13 24 -13q10 0 26 10z" />
    <glyph glyph-name="brokenbar" unicode="&#xa6;" horiz-adv-x="420" 
d="M150 -172v333h120v-333h-120zM150 332v368h120v-368h-120z" />
    <glyph glyph-name="section" unicode="&#xa7;" horiz-adv-x="564" 
d="M437 363q0 35 -34 51q-16 7 -65 15l-108 16q-76 -36 -76 -82q0 -53 89 -68l118 -20q76 34 76 88zM526 109q0 -97 -65 -147q-59 -44 -160 -44q-124 0 -200 65q-20 17 -32 17q-11 0 -20 -11l-10 7l72 134l9 -7q-3 -12 -3 -18q0 -41 73 -68q58 -21 109 -21q52 0 89 19
q49 25 49 70q0 29 -25 42.5t-95 22.5l-82 11q-166 22 -166 157q0 85 67 136q-67 43 -67 136q0 175 202 175q45 0 83 -9q23 -5 96 -35q13 -5 22 -5q6 0 15 13l11 -6l-56 -142l-10 5q2 10 2 18q0 31 -67 47q-46 12 -91 12q-122 0 -122 -68q0 -45 96 -58q147 -20 180 -34
q96 -41 96 -154q0 -91 -60 -135q35 -31 47 -54q13 -26 13 -71z" />
    <glyph glyph-name="copyright" unicode="&#xa9;" horiz-adv-x="928" 
d="M624 281l12 9l62 -91l-14 -10q-9 9 -14 9q-3 0 -35 -17q-37 -21 -39 -21q-57 -27 -128 -27q-105 0 -173 56q-73 60 -73 162t74 162q67 55 172 55q47 0 83 -10q17 -6 67 -30l53 -25q2 0 13 8l14 -8l-62 -93l-12 9q0 37 -57 56q-42 15 -87 15q-68 0 -112 -35
q-48 -37 -48 -104t48 -105q44 -36 112 -36q41 0 87 16q57 21 57 55zM814 346q0 145 -104 229q-96 78 -244 78q-144 0 -241 -78q-106 -85 -106 -225q0 -141 105 -225q98 -77 242 -77t241 76q107 83 107 222zM885 346q0 -171 -127 -268q-114 -88 -292 -88q-181 0 -293 89
q-126 99 -126 272q0 169 128 270q115 91 291 91q178 0 294 -92q125 -101 125 -274z" />
    <glyph glyph-name="guillemotleft" unicode="&#xab;" horiz-adv-x="409" 
d="M130 505h71l-80 -207l80 -208h-71l-79 208zM277 505h71l-82 -207l82 -208h-71l-80 208z" />
    <glyph glyph-name="logicalnot" unicode="&#xac;" horiz-adv-x="420" 
d="M28 173v131h364v-304h-116v173h-248z" />
    <glyph glyph-name="registered" unicode="&#xae;" horiz-adv-x="933" 
d="M587 435q0 31 -19.5 40t-66.5 9h-137v-100h137q43 0 58 6q28 10 28 45zM706 156v-16h-156v16q15 0 15 7t-13 26l-82 119h-106v-134q0 -15 20 -18v-16h-136v16q19 4 19 18v351q0 16 -19 20v15h265q87 0 121 -24q49 -34 49 -103q0 -103 -109 -121l76 -109q15 -22 23 -30
q14 -15 33 -17zM814 346q0 146 -103 230q-95 77 -245 77q-145 0 -242 -77q-105 -84 -105 -226q0 -144 105 -226q95 -76 242 -76q144 0 241 76q107 83 107 222zM885 346q0 -166 -129 -267q-115 -89 -290 -89t-291 91q-128 101 -128 270q0 167 129 268q118 93 290 93t291 -95
q128 -104 128 -271z" />
    <glyph glyph-name="degree" unicode="&#xb0;" horiz-adv-x="387" 
d="M276 552q0 42 -21 73q-23 36 -62 36q-37 0 -60 -36q-21 -31 -21 -71q0 -38 21 -70q24 -35 61 -35q36 0 60 35q22 31 22 68zM326 553q0 -65 -33 -111q-37 -52 -99 -52q-64 0 -100 52q-32 46 -32 112q0 69 31 113q38 53 101 53q64 0 100 -53q32 -47 32 -114z" />
    <glyph glyph-name="plusminus" unicode="&#xb1;" horiz-adv-x="644" 
d="M536 69h12v-164h-12q-8 33 -27 33h-374q-19 0 -27 -33h-12v164h12q8 -32 27 -32h374q19 0 27 32zM536 433h12v-166h-12q-8 33 -27 33h-147v-148q0 -24 27 -35v-14h-133v15q26 8 26 32v150h-147q-19 0 -27 -33h-12v166h12q8 -33 27 -33h147v185q0 24 -26 33v14h133v-14
q-27 -12 -27 -35v-183h147q19 0 27 33z" />
    <glyph glyph-name="mu" unicode="&#xb5;" horiz-adv-x="404" 
d="M404 48h19v-18q-24 0 -57 -21q-33 -19 -49 -19q-24 0 -38 24q-5 10 -16 48q-48 -76 -105 -76q-36 0 -60 24q-17 18 -30 61h-2v-16q0 -43 26 -145q9 -34 9 -57q0 -22 -15 -39.5t-36 -17.5q-54 0 -54 60q0 20 6 69q20 131 24 276q2 80 2 279h110v-301q0 -131 51 -131
q29 0 67 57v375h110v-341q0 -43 3 -56q8 -35 35 -35z" />
    <glyph glyph-name="paragraph" unicode="&#xb6;" horiz-adv-x="537" 
d="M514 -66v-16h-105v719h-67v-719h-106v16q26 8 26 44v348h-73q-23 0 -56 11q-55 19 -87 71q-29 49 -29 110q0 120 97 163q41 19 81 19h319v-17q-27 -9 -27 -43v-662q0 -35 27 -44z" />
    <glyph glyph-name="middot" unicode="&#xb7;" horiz-adv-x="258" 
d="M196 259q0 -32 -17 -57q-19 -28 -50 -28q-29 0 -49 29q-18 25 -18 57q0 33 17 56q19 27 50 27t49 -24.5t18 -59.5z" />
    <glyph glyph-name="guillemotright" unicode="&#xbb;" horiz-adv-x="409" 
d="M142 298l-80 207h71l79 -207l-79 -208h-71zM289 298l-80 207h70l79 -207l-79 -208h-70z" />
    <glyph glyph-name="uni03BC" unicode="&#x3bc;" horiz-adv-x="404" 
d="M404 48h19v-18q-24 0 -57 -21q-33 -19 -49 -19q-24 0 -38 24q-5 10 -16 48q-48 -76 -105 -76q-36 0 -60 24q-17 18 -30 61h-2v-16q0 -43 26 -145q9 -34 9 -57q0 -22 -15 -39.5t-36 -17.5q-54 0 -54 60q0 20 6 69q20 131 24 276q2 80 2 279h110v-301q0 -131 51 -131
q29 0 67 57v375h110v-341q0 -43 3 -56q8 -35 35 -35z" />
    <glyph glyph-name="afii10023" unicode="&#x401;" horiz-adv-x="638" 
d="M207 872q30 0 50 -20t20 -50t-20 -50t-50 -20t-50 20t-20 50q0 29 20.5 49.5t49.5 20.5zM427 872q30 0 50 -20t20 -50t-20 -50t-50 -20t-50 20t-20 50q0 29 20.5 49.5t49.5 20.5zM590 148h12v-179h-12q-8 31 -30 31h-509v16q26 11 26 37v593q0 28 -26 37v17h499
q22 0 29 34h14v-182h-14q-7 33 -29 33h-352v-166h229q21 0 29 32h14v-176h-14q-8 33 -29 33h-229v-193h362q21 0 30 33z" />
    <glyph glyph-name="afii10017" unicode="&#x410;" horiz-adv-x="684" 
d="M336 521h-2l-91 -246h182zM686 16v-16h-205v16q26 8 26 32q0 10 -8 32l-37 99h-255l-38 -99q-8 -22 -8 -33q0 -21 28 -31v-16h-186v16q19 4 30 21q5 8 15 34l206 538q9 24 9 41q0 24 -23 33v17h198v-17q-24 -8 -24 -29q0 -13 8 -34l213 -540q12 -28 18 -39q14 -21 33 -25
z" />
    <glyph glyph-name="afii10018" unicode="&#x411;" horiz-adv-x="668" 
d="M514 207q0 56 -28 75q-24 18 -82 18h-206v-185h206q57 0 83.5 19t26.5 73zM638 207q0 -207 -220 -207h-367v16q26 9 26 37v593q0 28 -26 37v17h490q22 0 29 34h13v-182h-13q-8 33 -29 33h-343v-169h220q220 0 220 -209z" />
    <glyph glyph-name="afii10019" unicode="&#x412;" horiz-adv-x="678" 
d="M518 211q0 53 -29 76q-25 19 -82 19h-209v-191h209q57 0 82 19q29 23 29 77zM504 503q0 44 -21.5 63t-68.5 19h-216v-163h216q47 0 68.5 18.5t21.5 62.5zM643 201q0 -103 -55.5 -152t-153.5 -49h-383v16q26 11 26 37v593q0 28 -26 37v17h379q196 0 196 -185
q0 -102 -76 -148q93 -45 93 -166z" />
    <glyph glyph-name="afii10020" unicode="&#x413;" horiz-adv-x="582" 
d="M555 734h12v-182h-12q-9 33 -30 33h-326v-532q0 -26 26 -37v-16h-174v16q26 11 26 37v593q0 28 -26 37v17h474q23 0 30 34z" />
    <glyph glyph-name="afii10021" unicode="&#x414;" horiz-adv-x="706" 
d="M487 114l-137 383l-138 -383h275zM681 148h13v-179h-13q-7 31 -29 31h-596q-23 0 -30 -31h-14v179h14q5 -27 19 -32q6 -2 42 -2l184 495q12 31 12 44q0 25 -27 30v17h194v-17q-26 -5 -26 -30q0 -13 12 -44l184 -495h32q22 0 29 34z" />
    <glyph glyph-name="afii10022" unicode="&#x415;" horiz-adv-x="638" 
d="M590 148h12v-179h-12q-8 31 -30 31h-509v16q26 11 26 37v593q0 28 -26 37v17h499q22 0 29 34h14v-182h-14q-7 33 -29 33h-352v-166h229q21 0 29 32h14v-176h-14q-8 33 -29 33h-229v-193h362q21 0 30 33z" />
    <glyph glyph-name="afii10024" unicode="&#x416;" horiz-adv-x="983" 
d="M977 16v-16h-219v16q22 7 22 20q0 6 -20 38l-165 253l-42 -43v-231q0 -27 25 -37v-16h-173v16q26 11 26 37v231l-43 43l-165 -253q-20 -32 -20 -38q0 -13 22 -20v-16h-219v16q25 4 46 30l31 46l215 325l-221 223q-2 3 -11.5 13t-13.5 14t-12.5 9t-18.5 7v17h228v-17
q-24 -5 -24 -20q0 -10 16 -26l190 -193v202q0 29 -26 37v17h173v-17q-25 -9 -25 -37v-202l189 193q15 15 15 26q0 15 -24 20v17h230v-17q-7 -1 -13.5 -4t-13 -8.5t-10 -8.5t-11 -11.5t-9.5 -10.5l-221 -223l216 -325q20 -29 40 -57q15 -15 36 -19z" />
    <glyph glyph-name="afii10025" unicode="&#x417;" horiz-adv-x="685" 
d="M646 201q0 -211 -304 -211q-115 0 -194 52q-86 56 -88 56q-8 0 -20 -13l-10 9l78 146l11 -9q0 -47 73 -91q55 -34 150 -34q179 0 179 105q0 60 -39.5 83t-133.5 23q-42 0 -54 -3q-34 -7 -34 -33h-13v175h13q0 -27 34 -34q14 -3 54 -3q73 0 102 10q56 18 56 74
q0 91 -149 91q-41 0 -77 -9q-53 -14 -88 -38q-48 -35 -48 -77l-11 -10l-77 146l10 10q11 -14 19 -14q11 0 33 16q69 48 119 69q56 25 120 25q109 0 182 -43q89 -53 89 -154q0 -91 -70 -148q88 -58 88 -166z" />
    <glyph glyph-name="afii10026" unicode="&#x418;" horiz-adv-x="721" 
d="M670 16v-16h-174v16q26 11 26 37v407l-324 -368v-39q0 -27 27 -37v-16h-174v16q26 11 26 37v593q0 29 -26 37v17h174v-17q-27 -7 -27 -37v-406l324 367v39q0 29 -26 37v17h174v-17q-26 -8 -26 -37v-593q0 -26 26 -37z" />
    <glyph glyph-name="afii10027" unicode="&#x419;" horiz-adv-x="721" 
d="M670 16v-16h-174v16q26 11 26 37v407l-324 -368v-39q0 -27 27 -37v-16h-174v16q26 11 26 37v593q0 29 -26 37v17h174v-17q-27 -7 -27 -37v-406l324 367v39q0 29 -26 37v17h174v-17q-26 -8 -26 -37v-593q0 -26 26 -37zM410 876v14h101v-14q-16 0 -16 -30q0 -26 -12 -47
q-37 -67 -123 -67q-38 0 -72.5 18t-52.5 48q-13 22 -13 48q0 30 -17 30v14h101v-14q-13 0 -13 -11q0 -26 19 -43.5t46 -17.5t46 17.5t19 43.5q0 11 -13 11z" />
    <glyph glyph-name="afii10028" unicode="&#x41a;" horiz-adv-x="674" 
d="M665 16v-16h-219v16q22 7 22 20q0 6 -20 38l-165 253l-85 -85v-189q0 -27 27 -37v-16h-174v16q26 11 26 37v593q0 29 -26 37v17h174v-17q-27 -7 -27 -37v-244l232 235q16 16 16 26q0 15 -24 20v17h229v-17q-7 -1 -13.5 -4t-13 -8.5t-10 -8.5t-11 -11.5t-9.5 -10.5
l-221 -223l216 -325l40 -57q15 -15 36 -19z" />
    <glyph glyph-name="afii10029" unicode="&#x41b;" horiz-adv-x="654" 
d="M654 16v-16h-200v16q27 8 27 29q0 15 -9 40l-148 412l-149 -412q-10 -27 -10 -40q0 -22 27 -29v-16h-192v16q24 5 34 26q2 5 7.5 20t8.5 23l194 524q12 31 12 44q0 25 -26 30v17h194v-17q-26 -5 -26 -30q0 -13 12 -44l194 -524q16 -42 17 -43q14 -26 33 -26z" />
    <glyph glyph-name="afii10030" unicode="&#x41c;" horiz-adv-x="813" 
d="M762 16v-16h-175v16q26 11 26 37v431l-217 -474l-207 474v-431q0 -26 26 -37v-16h-164v16q26 11 26 37v593q0 29 -26 37v17h215v-17q-19 -6 -19 -27q0 -10 6 -24l153 -352l154 346q10 21 10 35q0 20 -20 22v17h212v-17q-27 -7 -27 -37v-593q0 -27 27 -37z" />
    <glyph glyph-name="afii10031" unicode="&#x41d;" horiz-adv-x="720" 
d="M670 16v-16h-175v16q27 11 27 37v253h-324v-253q0 -26 26 -37v-16h-174v16q26 11 26 37v593q0 28 -26 37v17h174v-17q-26 -9 -26 -37v-225h324v225q0 28 -27 37v17h175v-17q-27 -7 -27 -37v-593q0 -27 27 -37z" />
    <glyph glyph-name="afii10032" unicode="&#x41e;" horiz-adv-x="717" 
d="M555 347q0 99 -47 169q-54 78 -150 78q-92 0 -147 -78q-49 -69 -49 -165q0 -97 48 -166q56 -78 148 -78q93 0 148 76q49 67 49 164zM681 346q0 -152 -84 -252q-86 -104 -239 -104q-66 0 -126 24q-97 40 -149 137q-47 88 -47 200q0 156 82 254q89 107 240 107
q104 0 183.5 -57.5t115.5 -157.5q24 -66 24 -151z" />
    <glyph glyph-name="afii10033" unicode="&#x41f;" horiz-adv-x="721" 
d="M670 16v-16h-174v16q26 11 26 37v532h-324v-532q0 -27 27 -37v-16h-174v16q26 11 26 37v593q0 29 -26 37v17h619v-17q-26 -8 -26 -37v-593q0 -26 26 -37z" />
    <glyph glyph-name="afii10034" unicode="&#x420;" horiz-adv-x="642" 
d="M495 492q0 55 -28 76q-25 17 -82 17h-187v-185h187q57 0 83.5 19t26.5 73zM620 492q0 -208 -220 -208h-202v-231q0 -26 26 -37v-16h-174v16q26 11 26 37v593q0 29 -26 37v17h350q113 0 166.5 -49.5t53.5 -158.5z" />
    <glyph glyph-name="afii10035" unicode="&#x421;" horiz-adv-x="701" 
d="M582 231l12 9l77 -146l-10 -9q-10 13 -19 13q-2 0 -88 -56q-64 -41 -135 -49q-23 -3 -52 -3q-156 0 -244 104q-85 100 -85 257q0 158 85 256q90 105 245 105q112 0 188 -55q71 -51 83 -51q15 0 22 10l10 -10l-77 -146l-12 10q0 43 -43 76q-35 26 -83 39q-34 9 -74 9
q-102 0 -163 -72q-57 -68 -57 -171q0 -105 57 -172q61 -72 163 -72q34 0 68 9q47 12 84 40q48 34 48 75z" />
    <glyph glyph-name="afii10036" unicode="&#x422;" horiz-adv-x="570" 
d="M550 734h13v-182h-13q-8 33 -30 33h-174v-532q0 -27 27 -37v-16h-175v16q26 11 26 35v534h-174q-22 0 -29 -33h-14v182h14q7 -34 29 -34h470q23 0 30 34z" />
    <glyph glyph-name="afii10037" unicode="&#x423;" horiz-adv-x="665" 
d="M198 66l74 162l-178 369q-11 23 -17.5 34.5t-20.5 27t-31 22.5v19h207v-19q-10 0 -19.5 -4t-9.5 -10q0 -5 13 -31l124 -258h2l117 260q8 16 8 26q0 17 -31 17v19h199v-19q-27 -6 -36 -27l-261 -576q-14 -30 -14 -39q0 -20 22 -20v-19h-208v19q21 3 34.5 12t25.5 35z" />
    <glyph glyph-name="afii10038" unicode="&#x424;" horiz-adv-x="844" 
d="M255 289h107v185h-107q-56 0 -81 -17q-28 -19 -28 -75q0 -54 28 -75q24 -18 81 -18zM698 382q0 56 -28 75q-25 17 -81 17h-107v-185h107q58 0 81 17q28 21 28 76zM823 382q0 -209 -220 -209h-121v-120q0 -27 27 -37v-16h-174v16q27 11 27 37v120h-121q-220 0 -220 209
q0 207 220 207h121v57q0 28 -27 37v17h174v-17q-27 -9 -27 -37v-57q136 0 166 -3q85 -9 125 -49q50 -50 50 -155z" />
    <glyph glyph-name="afii10039" unicode="&#x425;" horiz-adv-x="632" 
d="M630 16v-16h-222v16q25 7 25 27q0 11 -15 35l-108 173l-103 -167q-17 -27 -17 -39q0 -26 28 -29v-16h-215v16q4 0 14 2q13 4 57 72l169 267l-155 254l-28 47q-17 23 -46 25v17h226v-17q-25 -7 -25 -30q0 -13 18 -42l87 -141l90 141q20 32 20 45q0 22 -29 27v17h219v-17
q-29 -1 -51 -38l-21 -34l-161 -246l170 -275q17 -28 29 -46q19 -24 44 -28z" />
    <glyph glyph-name="afii10040" unicode="&#x426;" horiz-adv-x="710" 
d="M697 149h13v-180h-13q-8 31 -30 31h-615v16q26 11 26 37v593q0 29 -26 37v17h174v-17q-26 -8 -26 -37v-531h294v531q0 29 -26 37v17h174v-17q-26 -9 -26 -37v-531h51q21 0 30 34z" />
    <glyph glyph-name="afii10041" unicode="&#x427;" horiz-adv-x="640" 
d="M589 16v-16h-174v16q26 11 26 37v231h-165q-220 0 -220 208v154q0 28 -26 37v17h174v-17q-26 -9 -26 -37v-154q0 -59 31 -75q32 -17 82 -17h150v246q0 28 -26 37v17h174v-17q-26 -9 -26 -37v-593q0 -26 26 -37z" />
    <glyph glyph-name="afii10042" unicode="&#x428;" horiz-adv-x="865" 
d="M814 16v-16h-762v16q26 11 26 37v593q0 29 -26 37v17h174v-17q-27 -7 -27 -37v-531h173v531q0 28 -26 37v17h173v-17q-25 -9 -25 -37v-531h172v531q0 30 -27 37v17h175v-17q-27 -7 -27 -37v-600q0 -21 27 -30z" />
    <glyph glyph-name="afii10043" unicode="&#x429;" horiz-adv-x="882" 
d="M869 149h13v-180h-13q-8 31 -30 31h-787v16q26 11 26 37v593q0 29 -26 37v17h174v-17q-27 -7 -27 -37v-531h173v531q0 28 -26 37v17h173v-17q-25 -9 -25 -37v-531h172v531q0 30 -27 37v17h175v-17q-27 -7 -27 -37v-531h52q21 0 30 34z" />
    <glyph glyph-name="afii10044" unicode="&#x42a;" horiz-adv-x="679" 
d="M536 207q0 54 -28 75q-24 18 -81 18h-158v-185h158q56 0 81 17q28 19 28 75zM661 207q0 -207 -220 -207h-320v16q26 9 26 37v532h-87q-22 0 -29 -33h-13v182h13q7 -34 29 -34h235v-17q-26 -8 -26 -37v-230h172q220 0 220 -209z" />
    <glyph glyph-name="afii10045" unicode="&#x42b;" horiz-adv-x="890" 
d="M466 207q0 56 -28 75q-24 18 -82 18h-158v-185h158q58 0 84 19t26 73zM591 207q0 -207 -220 -207h-320v16q26 9 26 37v593q0 28 -26 37v17h174v-17q-27 -9 -27 -37v-230h173q220 0 220 -209zM840 16v-16h-174v16q26 11 26 37v593q0 28 -26 37v17h174v-17q-26 -9 -26 -37
v-593q0 -26 26 -37z" />
    <glyph glyph-name="afii10046" unicode="&#x42c;" horiz-adv-x="642" 
d="M496 207q0 56 -28 75q-24 18 -82 18h-187v-185h187q57 0 83.5 19t26.5 73zM621 207q0 -207 -220 -207h-350v16q26 8 26 37v593q0 29 -26 37v17h174v-17q-26 -9 -26 -37v-230h202q220 0 220 -209z" />
    <glyph glyph-name="afii10047" unicode="&#x42d;" horiz-adv-x="703" 
d="M667 351q0 -157 -85 -257q-88 -104 -244 -104q-52 0 -100 10q-40 10 -87 42q-86 56 -88 56q-7 0 -19 -13l-11 9l79 146l10 -9q0 -39 49 -75q38 -28 85 -40q34 -9 66 -9q90 0 148 55q55 54 69 143h-219q-21 0 -30 -33h-13v176h13q8 -32 30 -32h216q-17 81 -75 129.5
t-139 48.5q-65 0 -126 -29q-74 -36 -74 -95l-10 -10l-79 146l11 10q9 -12 20 -12t33 17q69 57 124 74q56 17 116 17q156 0 245 -104q85 -98 85 -257z" />
    <glyph glyph-name="afii10048" unicode="&#x42e;" horiz-adv-x="876" 
d="M715 351q0 90 -27 154q-37 88 -114 88q-73 0 -110 -88q-30 -67 -30 -150q0 -82 29 -151q39 -89 111 -89q73 0 111 86q30 67 30 150zM840 345q0 -103 -35 -187q-41 -98 -121 -142q-52 -26 -110 -26q-121 0 -191 98q-61 85 -71 212h-114v-247q0 -27 27 -37v-16h-174v16
q26 11 26 37v593q0 29 -26 37v17h174v-17q-27 -7 -27 -37v-233h115q10 124 72 205q72 94 189 94q135 0 206 -122q60 -100 60 -245z" />
    <glyph glyph-name="afii10049" unicode="&#x42f;" horiz-adv-x="676" 
d="M288 394h189v191h-189q-62 0 -88 -16q-35 -20 -35 -77q0 -98 123 -98zM625 16v-16h-174v16q26 11 26 37v233h-149l-113 -206q-20 -37 -20 -45q0 -15 21 -19v-16h-204v16q28 2 47 30l29 52l108 188q-152 35 -152 206q0 114 60 164q55 44 172 44h349v-17q-26 -9 -26 -37
v-593q0 -26 26 -37z" />
    <glyph glyph-name="afii10065" unicode="&#x430;" horiz-adv-x="582" 
d="M355 224l-74 184l-72 -184h146zM586 14v-14h-188v14q26 5 26 31q0 11 -35 99h-211q-33 -86 -33 -99q0 -25 25 -31v-14h-168v14q17 0 27 16l13 31l169 424q9 23 9 42q0 21 -23 33v15h179v-15q-23 -11 -23 -35q0 -14 11 -41l174 -412q11 -26 17 -36q12 -18 31 -22z" />
    <glyph glyph-name="afii10066" unicode="&#x431;" horiz-adv-x="551" 
d="M414 174q0 40 -18 54.5t-62 14.5h-156v-138h156q43 0 61.5 15t18.5 54zM527 174q0 -174 -181 -174h-306v14q26 9 26 38v470q0 29 -26 38v15h403q24 0 31 33h11v-170h-11q-8 32 -31 32h-265v-122h168q181 0 181 -174z" />
    <glyph glyph-name="afii10067" unicode="&#x432;" horiz-adv-x="569" 
d="M430 180q0 74 -82 74h-171v-149h171q82 0 82 75zM415 415q0 34 -20 46q-15 9 -52 9h-166v-111h166q72 0 72 56zM542 170q0 -81 -46 -125.5t-128 -44.5h-328v14q26 9 26 38v470q0 30 -26 38v15h322q166 0 166 -148q0 -71 -65 -118q44 -27 61.5 -57.5t17.5 -81.5z" />
    <glyph glyph-name="afii10068" unicode="&#x433;" horiz-adv-x="494" 
d="M468 607h11v-170h-11q-8 33 -30 33h-261v-418q0 -28 25 -38v-14h-162v14q26 9 26 38v472q0 27 -26 36v15h398q22 0 30 32z" />
    <glyph glyph-name="afii10069" unicode="&#x434;" horiz-adv-x="583" 
d="M394 102l-106 291l-106 -291h212zM560 129h11v-154h-11q-6 25 -23 25h-491q-15 0 -22 -25h-12v154h12q6 -20 14 -25q6 -2 32 -2l150 393q8 22 8 33q0 26 -27 32v15h180v-15q-27 -4 -27 -28q0 -15 8 -37l150 -393h25q15 0 23 27z" />
    <glyph glyph-name="afii10070" unicode="&#x435;" horiz-adv-x="539" 
d="M499 137h11v-168h-11q-7 31 -31 31h-428v14q26 9 26 38v472q0 27 -26 36v15h415q23 0 31 32h12v-170h-12q-8 33 -31 33h-278v-125h173q22 0 31 33h11v-167h-11q-9 33 -31 33h-173v-139h291q23 0 31 32z" />
    <glyph glyph-name="afii10072" unicode="&#x436;" horiz-adv-x="808" 
d="M808 14v-14h-202v14q22 0 22 16q0 12 -21 43l-127 190l-22 -24v-187q0 -27 26 -38v-14h-161v14q27 10 27 38v187l-23 24l-127 -190q-22 -32 -22 -44q0 -15 23 -15v-14h-201v14q4 0 14 2q18 5 66 76l170 248l-149 160q-29 32 -38 39q-26 21 -49 21v15h210v-15
q-24 -4 -24 -20q0 -14 19 -33l131 -138v153q0 28 -27 38v15h161v-15q-26 -9 -26 -38v-153l131 138q18 19 18 33q0 16 -24 20v15h210v-15q-31 0 -87 -60l-148 -160l170 -248q25 -37 31 -42q22 -31 35 -34q10 -2 14 -2z" />
    <glyph glyph-name="afii10073" unicode="&#x437;" horiz-adv-x="561" 
d="M534 168q0 -97 -80 -144q-60 -34 -169 -34q-91 0 -159 44q-71 47 -73 47q-9 0 -16 -9l-10 9l69 128l10 -9q0 -46 69 -78q58 -26 110 -26q137 0 137 80q0 45 -29.5 61.5t-102.5 16.5q-32 0 -42 -2q-23 -5 -23 -27h-11v155h11q0 -23 23 -28q10 -2 42 -2q54 0 77 6
q43 13 43 53q0 69 -112 69q-32 0 -62 -8q-39 -10 -71 -33q-39 -29 -39 -63l-10 -9l-70 130l11 9q6 -9 17 -9q8 0 69 44q65 48 155 48q88 0 149 -38q72 -45 72 -129q0 -68 -51 -117q66 -47 66 -135z" />
    <glyph glyph-name="afii10074" unicode="&#x438;" horiz-adv-x="601" 
d="M561 27v-27h-153v27q22 7 22 24v306l-260 -279v-27q0 -17 22 -24v-27h-152v27q21 7 21 22v476q0 17 -21 23v27h152v-27q-22 -6 -22 -25v-305l260 279v26q0 19 -22 25v27h153v-27q-22 -6 -22 -25v-472q0 -17 22 -24z" />
    <glyph glyph-name="afii10075" unicode="&#x439;" horiz-adv-x="601" 
d="M561 27v-27h-153v27q22 7 22 24v306l-260 -279v-27q0 -17 22 -24v-27h-152v27q21 7 21 22v476q0 17 -21 23v27h152v-27q-22 -6 -22 -25v-305l260 279v26q0 19 -22 25v27h153v-27q-22 -6 -22 -25v-472q0 -17 22 -24zM333 725v14h104v-14q-24 0 -24 -38q0 -34 -27 -57
t-85 -23t-85 23t-27 57q0 38 -24 38v14h104v-14q-12 0 -12 -10q0 -54 44 -54q43 0 43 54q0 10 -11 10z" />
    <glyph glyph-name="afii10076" unicode="&#x43a;" horiz-adv-x="576" 
d="M569 14v-14h-201v14q23 3 23 16q0 11 -22 43l-127 190l-65 -68v-143q0 -28 25 -38v-14h-162v14q26 9 26 38v470q0 29 -26 38v15h162v-15q-25 -9 -25 -38v-188l173 173q19 19 19 33q0 16 -24 20v15h209v-15q-22 0 -48 -21q-3 -3 -38 -39l-150 -160l171 -248l30 -43
q19 -27 36 -33q10 -2 14 -2z" />
    <glyph glyph-name="afii10077" unicode="&#x43b;" horiz-adv-x="550" 
d="M551 14v-14h-183v14q26 12 26 35q0 12 -10 39l-110 305l-112 -305q-9 -26 -9 -39q0 -24 26 -35v-14h-177v14q18 8 28 23q2 4 14 34l161 424q8 22 8 34q0 25 -27 31v15h180v-15q-26 -6 -26 -32q0 -11 8 -33l161 -424q12 -29 15 -34q10 -14 27 -23z" />
    <glyph glyph-name="afii10078" unicode="&#x43c;" horiz-adv-x="688" 
d="M648 14v-14h-163v14q26 9 26 38v326l-177 -360l-168 360v-326q0 -28 27 -38v-14h-153v14q26 9 26 38v470q0 29 -26 38v15h194v-15q-19 -7 -19 -29q0 -20 14 -51l114 -242l116 238q19 38 19 58t-20 26v15h190v-15q-26 -9 -26 -38v-470q0 -29 26 -38z" />
    <glyph glyph-name="afii10079" unicode="&#x43d;" horiz-adv-x="610" 
d="M570 14v-14h-163v14q27 10 27 38v198h-257v-198q0 -28 25 -38v-14h-162v14q26 9 26 38v472q0 27 -26 36v15h162v-15q-25 -9 -25 -38v-170h257v170q0 28 -27 38v15h163v-15q-27 -10 -27 -38v-470q0 -28 27 -38z" />
    <glyph glyph-name="afii10080" unicode="&#x43e;" horiz-adv-x="597" 
d="M455 285q0 77 -39 132q-43 61 -118 61q-72 0 -117 -61q-40 -55 -40 -130t40 -130q45 -61 117 -61q74 0 117 60q40 53 40 129zM568 283q0 -71 -21 -125q-31 -78 -97.5 -123t-151.5 -45q-125 0 -199 87q-70 83 -70 210t70 210q75 90 199 90q86 0 152 -46.5t97 -127.5
q21 -55 21 -130z" />
    <glyph glyph-name="afii10081" unicode="&#x43f;" horiz-adv-x="610" 
d="M570 14v-14h-163v14q27 10 27 38v418h-257v-418q0 -28 25 -38v-14h-162v14q26 9 26 38v470q0 29 -26 38v15h530v-15q-27 -10 -27 -38v-470q0 -28 27 -38z" />
    <glyph glyph-name="afii10082" unicode="&#x440;" horiz-adv-x="547" 
d="M418 405q0 40 -23 54q-17 11 -61 11h-157v-129h157q44 0 61 10q23 14 23 54zM530 405q0 -169 -190 -169h-163v-184q0 -28 25 -38v-14h-162v14q26 9 26 38v470q0 29 -26 38v15h300q94 0 140 -37q50 -41 50 -133z" />
    <glyph glyph-name="afii10083" unicode="&#x441;" horiz-adv-x="586" 
d="M480 197l9 8l70 -125l-9 -9q-11 9 -16 9q-6 0 -39 -23q-12 -8 -23 -16t-16 -11l-4 -3q-20 -13 -46 -22q-52 -15 -103 -15q-127 0 -201 86q-72 84 -72 211q0 129 71 212q73 88 201 88q58 0 100 -16t100 -57q25 -19 32 -19q6 0 16 9l9 -9l-70 -126l-9 9q0 50 -57 78
q-45 22 -101 22q-80 0 -130 -56t-50 -135q0 -81 49 -136t129 -55q54 0 102 24q58 28 58 77z" />
    <glyph glyph-name="afii10084" unicode="&#x442;" horiz-adv-x="476" 
d="M459 607h11v-170h-11q-7 33 -30 33h-136v-418q0 -27 26 -38v-14h-162v14q26 9 26 38v418h-135q-26 0 -30 -33h-12v170h12q6 -32 30 -32h381q22 0 30 32z" />
    <glyph glyph-name="afii10085" unicode="&#x443;" horiz-adv-x="591" 
d="M202 532l105 -221h2l100 222q7 14 7 21q0 13 -25 13v18h162v-18q-26 -5 -33 -20l-217 -482q-11 -22 -11 -32q0 -14 20 -14v-19h-173v19q14 2 31 14t27 35l53 116l-151 315q-28 58 -61 68v18h178v-18q-25 0 -25 -9q0 -4 11 -26z" />
    <glyph glyph-name="afii10086" unicode="&#x444;" horiz-adv-x="707" 
d="M213 243h86v139h-86q-41 0 -61 -12q-25 -15 -25 -56q0 -71 86 -71zM580 314q0 41 -24 56q-20 12 -61 12h-87v-139h87q85 0 85 71zM690 314q0 -172 -191 -172h-91v-90q0 -27 26 -38v-14h-160v14q25 10 25 38v90h-90q-191 0 -191 172q0 120 89 153q42 16 192 16v39
q0 29 -25 38v15h160v-15q-22 -7 -26 -32q0 2 0 -45q151 0 193 -16q89 -32 89 -153z" />
    <glyph glyph-name="afii10087" unicode="&#x445;" horiz-adv-x="534" 
d="M531 14v-14h-211v14q26 6 26 27q0 10 -14 33l-74 123l-76 -123q-12 -19 -12 -31q0 -19 28 -29v-14h-196v14q33 11 62 58l134 219l-117 199q-17 28 -24 39q-18 27 -29 30q-3 1 -15 1v15h210v-15q-27 -9 -27 -31q0 -12 13 -34l62 -104l57 97q18 32 18 41q0 24 -28 31v15
h200v-15q-6 0 -14 -2q-14 -4 -55 -68l-121 -192l136 -226q31 -52 67 -58z" />
    <glyph glyph-name="afii10088" unicode="&#x446;" horiz-adv-x="588" 
d="M576 132h12v-157h-12q-6 25 -22 25h-514v14q26 9 26 38v472q0 27 -26 36v15h162v-15q-25 -9 -25 -38v-417h227v419q0 27 -26 36v15h162v-15q-26 -9 -26 -38v-417h40q14 0 22 27z" />
    <glyph glyph-name="afii10089" unicode="&#x447;" horiz-adv-x="537" 
d="M497 14v-14h-163v14q26 9 26 38v180h-135q-181 0 -181 171v126q0 24 -22 31v15h154v-15q-22 -7 -22 -31v-120q0 -44 26 -61q21 -15 67 -15h113v189q0 29 -26 38v15h163v-15q-27 -10 -27 -38v-470q0 -28 27 -38z" />
    <glyph glyph-name="afii10090" unicode="&#x448;" horiz-adv-x="724" 
d="M684 14v-14h-644v14q26 9 26 38v472q0 27 -26 36v15h162v-15q-25 -9 -25 -38v-417h131v419q0 27 -26 36v15h160v-15q-26 -9 -26 -38v-417h131v419q0 27 -25 36v15h162v-15q-26 -9 -26 -38v-470q0 -27 26 -38z" />
    <glyph glyph-name="afii10091" unicode="&#x449;" horiz-adv-x="731" 
d="M720 132h11v-157h-11q-6 25 -23 25h-657v14q26 9 26 38v472q0 27 -26 36v15h162v-15q-25 -9 -25 -38v-417h131v419q0 27 -26 36v15h160v-15q-26 -9 -26 -38v-417h131v419q0 27 -25 36v15h162v-15q-26 -9 -26 -38v-417h39q15 0 23 27z" />
    <glyph glyph-name="afii10092" unicode="&#x44a;" horiz-adv-x="572" 
d="M442 172q0 43 -32 58q-20 10 -70 10h-118v-135h118q49 0 70 10q32 15 32 57zM554 172q0 -172 -190 -172h-278v14q27 10 27 38v418h-58q-23 0 -30 -33h-12v170h12q8 -32 30 -32h194v-15q-27 -9 -27 -38v-177h142q94 0 142 -46t48 -127z" />
    <glyph glyph-name="afii10093" unicode="&#x44b;" horiz-adv-x="758" 
d="M396 172q0 43 -32 58q-20 10 -70 10h-117v-135h117q49 0 70 10q32 15 32 57zM508 172q0 -172 -190 -172h-278v14q26 11 26 38v470q0 30 -26 38v15h162v-15q-25 -9 -25 -38v-177h141q93 0 141.5 -46.5t48.5 -126.5zM718 14v-14h-162v14q26 11 26 38v470q0 29 -26 38v15
h162v-15q-26 -9 -26 -38v-470q0 -27 26 -38z" />
    <glyph glyph-name="afii10094" unicode="&#x44c;" horiz-adv-x="548" 
d="M418 172q0 43 -32 58q-20 10 -70 10h-139v-135h139q49 0 70 10q32 15 32 57zM530 172q0 -172 -190 -172h-300v14q26 11 26 38v470q0 30 -26 38v15h162v-15q-25 -9 -25 -38v-177h163q88 0 137 -42q53 -44 53 -131z" />
    <glyph glyph-name="afii10095" unicode="&#x44d;" horiz-adv-x="586" 
d="M557 287q0 -127 -72 -211q-74 -86 -202 -86q-89 0 -148 36q-22 13 -50 35q-23 17 -32 17q-10 0 -17 -7l-9 9l70 125l9 -8q0 -49 58 -77q48 -24 102 -24q67 0 115 41t60 107h-162q-23 0 -31 -33h-12v167h12q8 -33 31 -33h158q-17 60 -64 96.5t-110 36.5q-54 0 -100 -23
q-57 -29 -57 -77l-9 -9l-70 126l9 9q8 -8 17 -8q8 0 32 18q56 43 99 58t100 15q88 0 155.5 -46t97.5 -128q20 -55 20 -126z" />
    <glyph glyph-name="afii10096" unicode="&#x44e;" horiz-adv-x="780" 
d="M638 285q0 76 -27 127q-35 66 -104 66q-67 0 -102 -65q-28 -52 -28 -126t28 -126q35 -65 102 -65q69 0 103 64q28 50 28 125zM748 283q0 -71 -19 -125q-26 -77 -83 -122q-58 -46 -139 -46q-104 0 -168 77q-59 71 -69 176h-93v-191q0 -28 25 -38v-14h-162v14q26 9 26 38
v470q0 30 -26 38v15h162v-15q-25 -9 -25 -38v-177h95q12 101 71 169q64 73 164 73q81 0 140 -49q55 -46 82 -125q19 -54 19 -130z" />
    <glyph glyph-name="afii10097" unicode="&#x44f;" horiz-adv-x="578" 
d="M257 336h145v134h-148q-86 0 -96 -36q-4 -12 -4 -32q0 -43 32 -57q21 -9 71 -9zM538 14v-14h-163v14q27 10 27 38v182h-112l-92 -162q-12 -21 -12 -40q0 -14 21 -18v-14h-193v14q32 8 71 76l86 152q-69 18 -99 55t-30 105q0 173 194 173h302v-15q-27 -10 -27 -38v-470
q0 -29 27 -38z" />
    <glyph glyph-name="afii10071" unicode="&#x451;" horiz-adv-x="539" 
d="M162 762q30 0 50 -20t20 -50t-20 -50t-50 -20t-50 20t-20 50q0 29 20.5 49.5t49.5 20.5zM382 762q30 0 50 -20t20 -50t-20 -50t-50 -20t-50 20t-20 50q0 29 20.5 49.5t49.5 20.5zM499 137h11v-168h-11q-7 31 -31 31h-428v14q26 9 26 38v472q0 27 -26 36v15h415
q23 0 31 32h12v-170h-12q-8 33 -31 33h-278v-125h173q22 0 31 33h10v-167h-10q-9 33 -31 33h-173v-139h291q23 0 31 32z" />
    <glyph glyph-name="uni2010" unicode="&#x2010;" horiz-adv-x="187" 
d="M174 376h13v-177h-13q-8 33 -30 33h-102q-22 0 -29 -33h-13v177h13q7 -33 29 -33h102q22 0 30 33z" />
    <glyph glyph-name="endash" unicode="&#x2013;" horiz-adv-x="420" 
d="M385 374h13v-174h-13q-7 33 -30 33h-290q-23 0 -30 -33h-13v174h13q8 -32 30 -32h290q22 0 30 32z" />
    <glyph glyph-name="emdash" unicode="&#x2014;" horiz-adv-x="841" 
d="M827 374h14v-174h-14q-7 33 -29 33h-756q-20 0 -29 -33h-13v174h13q9 -32 29 -32h756q21 0 29 32z" />
    <glyph glyph-name="quoteleft" unicode="&#x2018;" horiz-adv-x="258" 
d="M196 479q0 -83 -61 -83q-39 0 -58 43q-15 33 -15 77q0 113 95 196l20 -33q-34 -28 -49 -53.5t-21 -67.5q19 6 29 6q30 0 47 -29q13 -22 13 -56z" />
    <glyph glyph-name="quoteright" unicode="&#x2019;" horiz-adv-x="258" 
d="M196 593q0 -115 -96 -197l-19 33q59 47 69 121q-20 -6 -28 -6q-29 0 -46 29q-14 25 -14 57q0 33 13 55q17 27 47 27q40 0 59 -42q15 -32 15 -77z" />
    <glyph glyph-name="quotesinglbase" unicode="&#x201a;" horiz-adv-x="258" 
d="M196 36q0 -111 -96 -195l-19 33q34 28 48.5 53.5t20.5 68.5q-20 -6 -28 -6q-29 0 -46 27q-14 25 -14 56q0 32 14 55q16 28 46 28q40 0 59 -42q15 -33 15 -78z" />
    <glyph glyph-name="quotedblleft" unicode="&#x201c;" horiz-adv-x="454" 
d="M196 479q0 -83 -61 -83q-39 0 -58 43q-15 33 -15 77q0 113 95 196l20 -33q-34 -28 -49 -53.5t-21 -67.5q19 6 29 6q30 0 47 -29q13 -22 13 -56zM392 479q0 -34 -13 -56q-17 -27 -47 -27q-40 0 -59 43q-15 31 -15 77q0 113 95 196l20 -33q-59 -48 -69 -121q18 6 29 6
q59 0 59 -85z" />
    <glyph glyph-name="quotedblright" unicode="&#x201d;" horiz-adv-x="454" 
d="M196 593q0 -115 -96 -197l-19 33q59 47 69 121q-20 -6 -28 -6q-29 0 -46 29q-14 25 -14 57q0 33 13 55q17 27 47 27q40 0 59 -42q15 -32 15 -77zM392 593q0 -114 -95 -197l-19 33q57 47 68 121q-18 -6 -28 -6q-29 0 -46 29q-14 25 -14 57q0 33 13 55q17 27 47 27
q40 0 59 -42q15 -32 15 -77z" />
    <glyph glyph-name="quotedblbase" unicode="&#x201e;" horiz-adv-x="454" 
d="M196 36q0 -111 -96 -195l-19 33q34 28 48.5 53.5t20.5 68.5q-20 -6 -28 -6q-29 0 -46 27q-14 25 -14 56q0 32 14 55q16 28 46 28q40 0 59 -42q15 -33 15 -78zM392 36q0 -111 -95 -195l-19 33q33 28 47.5 53.5t20.5 68.5q-18 -6 -28 -6q-29 0 -46 27q-14 25 -14 56
q0 32 14 55q16 28 46 28q40 0 59 -42q15 -33 15 -78z" />
    <glyph glyph-name="dagger" unicode="&#x2020;" horiz-adv-x="453" 
d="M401 584h13v-162h-13q-7 33 -30 33h-109l17 -469q1 -28 27 -37v-17h-158v17q25 10 26 37l16 469h-108q-21 0 -29 -33h-14v162h14q5 -21 12.5 -27t28.5 -6h96l-16 165q-3 30 -26 38v17h158v-17q-24 -8 -27 -38l-17 -165h109q23 0 30 33z" />
    <glyph glyph-name="bullet" unicode="&#x2022;" horiz-adv-x="560" 
d="M398 356q0 -54 -30 -98q-34 -48 -87 -48q-51 0 -86 48q-31 43 -31 97q0 55 30 99q34 48 88 48q51 0 85 -49q31 -43 31 -97z" />
    <glyph glyph-name="ellipsis" unicode="&#x2026;" horiz-adv-x="773" 
d="M196 72q0 -34 -18.5 -58t-48.5 -24q-29 0 -49 26q-18 26 -18 56q0 34 18.5 59t48.5 25q31 0 49 -24.5t18 -59.5zM454 72q0 -32 -18 -56q-20 -26 -50 -26q-29 0 -49 26q-18 26 -18 56q0 32 19 58t48 26q32 0 51 -27q17 -26 17 -57zM712 72q0 -32 -18 -56q-20 -26 -50 -26
q-29 0 -49 26q-18 25 -18 56q0 32 19 58t48 26q32 0 51 -27q17 -26 17 -57z" />
    <glyph glyph-name="perthousand" unicode="&#x2030;" horiz-adv-x="1085" 
d="M243 523q0 110 -73 110q-38 0 -57 -37q-15 -30 -15 -71t16 -70q20 -38 56 -38q38 0 57 36q16 29 16 70zM643 174q0 42 -15 71q-20 38 -57 38q-36 0 -56 -38q-16 -31 -16 -71t16 -69q21 -37 56 -37q37 0 56 37q16 28 16 69zM986 174q0 42 -15 71q-20 38 -57 38t-57 -38
q-15 -30 -15 -71t16 -69q19 -37 56 -37t56 37q16 28 16 69zM314 523q0 -73 -35 -123q-39 -56 -109 -56q-69 0 -108 58q-34 49 -34 123q0 72 34 123q39 58 108 58q71 0 110 -58q34 -49 34 -125zM491 683v17h145v-17q-27 -5 -43 -26l-27 -46l-330 -533q-14 -23 -14 -35
q0 -19 24 -27v-16h-148v16q26 6 45 28q12 15 31 46l324 521q17 28 17 42q0 23 -24 30zM714 172q0 -71 -35 -121q-38 -55 -108 -55q-71 0 -108 56q-34 49 -34 123q0 73 33 124q39 58 109 58q71 0 110 -59q33 -51 33 -126zM1057 172q0 -71 -35 -121q-38 -55 -108 -55
q-72 0 -110 55q-34 49 -34 124t34 124q39 58 109 58q72 0 111 -59q33 -50 33 -126z" />
    <glyph glyph-name="guilsinglleft" unicode="&#x2039;" horiz-adv-x="262" 
d="M130 505h71l-80 -207l80 -208h-71l-79 208z" />
    <glyph glyph-name="guilsinglright" unicode="&#x203a;" horiz-adv-x="262" 
d="M142 298l-80 207h71l79 -207l-79 -208h-71z" />
    <glyph glyph-name="afii61352" unicode="&#x2116;" horiz-adv-x="1078" 
d="M972 427q0 45 -23 74.5t-63 29.5t-63 -29.5t-23 -73.5q0 -43 22 -72q26 -33 65 -33q40 0 64 33q21 30 21 71zM668 16v-16h-176v16q17 5 17 23q0 8 -21 35l-313 406v-427q0 -26 26 -37v-16h-164v16q26 11 26 37v593q0 28 -26 37v17h190v-17q-17 -5 -17 -22q0 -14 11 -28
l309 -401v414q0 30 -27 37v17h165v-17q-26 -8 -26 -37v-593q0 -26 26 -37zM1032 228h11v-156h-11q-8 38 -26 38h-240q-18 0 -26 -38h-10v156h10q8 -39 26 -39h240q18 0 26 39zM1040 425q0 -69 -41 -118q-44 -51 -112 -51q-71 0 -115 51q-39 47 -39 121q0 70 41 120
q42 50 112 50q72 0 114 -52q40 -47 40 -121z" />
    <glyph glyph-name="trademark" unicode="&#x2122;" horiz-adv-x="1069" 
d="M423 718h16v-108h-16q-5 18 -20 18h-132v-294q0 -13 20 -18v-14h-142v14q20 5 20 18v294h-133q-12 0 -19 -18h-16v108h16q6 -18 21 -18h364q16 0 21 18zM1033 316v-14h-142v14q20 5 20 18v230l-165 -260l-157 259v-229q0 -13 20 -18v-14h-134v14q21 4 21 18v333
q0 13 -21 18v15h174v-15q-15 0 -15 -11q0 -7 11 -26l109 -180l107 174q17 27 17 33q0 10 -16 10v15h171v-15q-20 -5 -20 -18v-333q0 -13 20 -18z" />
    <glyph glyph-name="uni2219" unicode="&#x2219;" horiz-adv-x="258" 
d="M196 259q0 -32 -17 -57q-19 -28 -50 -28q-29 0 -49 29q-18 25 -18 57q0 33 17 56q19 27 50 27t49 -24.5t18 -59.5z" />
    <glyph glyph-name="_225" horiz-adv-x="581" 
 />
    <glyph glyph-name="NULL" horiz-adv-x="0" 
 />
    <glyph glyph-name="CR" horiz-adv-x="366" 
 />
    <glyph glyph-name="u0000" horiz-adv-x="1000" 
 />
    <glyph glyph-name="u0001" horiz-adv-x="1000" 
 />
    <glyph glyph-name="u0002" horiz-adv-x="1000" 
 />
    <glyph glyph-name="u0003" horiz-adv-x="1000" 
 />
    <glyph glyph-name="u0004" horiz-adv-x="1000" 
 />
    </font>
</defs>
</svg>
