<svg width="35" height="35" fill="none" xmlns="http://www.w3.org/2000/svg"><path d="M34.417 19.833h-.584v-1.75a2.916 2.916 0 0 0-1.75-2.669V6.417a.583.583 0 0 0-.35-.535 2.29 2.29 0 0 0 .35-1.215 2.333 2.333 0 1 0-4.666 0c.002.41.114.813.324 1.166H7.259a2.31 2.31 0 0 0 .324-1.166 2.333 2.333 0 0 0-4.666 0c0 .43.122.85.35 1.215a.583.583 0 0 0-.35.535v8.997a2.917 2.917 0 0 0-1.75 2.67v1.75H.583a.583.583 0 0 0-.583.583v8.166c0 .323.261.584.583.584h.584v2.916c0 .323.26.584.583.584h2.333a.583.583 0 0 0 .584-.584v-2.916h25.666v2.916c0 .323.262.584.584.584h2.333a.583.583 0 0 0 .583-.584v-2.916h.584a.583.583 0 0 0 .583-.584v-8.166a.583.583 0 0 0-.583-.584zM29.75 3.5a1.167 1.167 0 1 1 0 2.333 1.167 1.167 0 0 1 0-2.333zm-24.5 0a1.167 1.167 0 1 1 0 2.333 1.167 1.167 0 0 1 0-2.333zM4.083 7h26.834v8.167h-2.349a2.886 2.886 0 0 0 .599-1.75V12.25a2.92 2.92 0 0 0-2.917-2.917h-4.667a2.92 2.92 0 0 0-2.916 2.917v1.167c.002.633.212 1.248.598 1.75h-3.53a2.886 2.886 0 0 0 .598-1.75V12.25a2.92 2.92 0 0 0-2.916-2.917H8.75a2.92 2.92 0 0 0-2.917 2.917v1.167c.002.633.213 1.248.599 1.75H4.083V7zM28 12.25v1.167a1.75 1.75 0 0 1-1.75 1.75h-4.667a1.75 1.75 0 0 1-1.75-1.75V12.25c0-.966.784-1.75 1.75-1.75h4.667c.966 0 1.75.784 1.75 1.75zm-12.833 0v1.167a1.75 1.75 0 0 1-1.75 1.75H8.75A1.75 1.75 0 0 1 7 13.417V12.25c0-.966.783-1.75 1.75-1.75h4.667c.966 0 1.75.784 1.75 1.75zM2.333 18.083c0-.966.784-1.75 1.75-1.75h26.834c.966 0 1.75.784 1.75 1.75v1.75H2.333v-1.75zM3.5 31.5H2.333v-2.333H3.5V31.5zm29.167 0H31.5v-2.333h1.167V31.5zm1.166-3.5H1.167v-7h32.666v7z" fill="#92C100"/><path d="M5.25 25.667H2.917a.583.583 0 0 0 0 1.166H5.25a.583.583 0 0 0 0-1.166zm26.833 0h-24.5a.583.583 0 0 0 0 1.166h24.5a.583.583 0 1 0 0-1.166z" fill="#92C100"/></svg>