<svg width="35" height="35" fill="none" xmlns="http://www.w3.org/2000/svg"><g clip-path="url(#clip0)" fill="#92C100"><path d="M12.317 6.417c-5.474.006-9.91 4.442-9.916 9.916v1.371a3.5 3.5 0 0 0 0 6.596v7.783c0 .323.26.584.583.584h.712l.472 1.89c.065.26.298.443.566.443h1.75a.583.583 0 0 0 .566-.442l.472-1.891h9.59l.473 1.89c.065.26.298.443.566.443h1.75a.583.583 0 0 0 .565-.442l.473-1.891h.712a.583.583 0 0 0 .583-.584V24.3a3.5 3.5 0 0 0 0-6.596v-1.37c-.006-5.475-4.443-9.911-9.917-9.917zm-8.75 9.916a8.75 8.75 0 1 1 17.5 0V17.5c-.398.001-.792.07-1.166.204v-1.37a7.583 7.583 0 0 0-15.167 0v1.37a3.49 3.49 0 0 0-1.167-.204v-1.167zm3.5 9.334h10.5V28h-10.5v-2.333zM17.567 21v3.5h-10.5V21a3.49 3.49 0 0 0-1.166-2.602v-2.065a6.417 6.417 0 1 1 12.833 0v2.065A3.489 3.489 0 0 0 17.567 21zM6.028 33.833H5.19l-.291-1.166H6.32l-.292 1.166zm13.417 0h-.839l-.292-1.166h1.423l-.292 1.166zM23.4 21a2.34 2.34 0 0 1-1.867 2.287.583.583 0 0 0-.467.57V31.5h-17.5v-7.642a.584.584 0 0 0-.467-.57A2.333 2.333 0 1 1 5.9 21v7.583c0 .323.262.584.584.584h11.667a.583.583 0 0 0 .583-.584V21a2.333 2.333 0 1 1 4.667 0z"/><path d="M12.732 13.002a.61.61 0 0 0-.829 0 .598.598 0 0 0-.123.193.55.55 0 0 0 0 .443c.03.07.072.136.123.193.23.225.598.225.829 0a.685.685 0 0 0 .122-.193.55.55 0 0 0 0-.443.602.602 0 0 0-.122-.193zm-1.75 2.334a.61.61 0 0 0-.829 0 .597.597 0 0 0-.123.192.55.55 0 0 0 0 .444c.03.07.072.136.123.192a.671.671 0 0 0 .192.123c.217.093.47.044.636-.123a.685.685 0 0 0 .123-.192.55.55 0 0 0 0-.444.602.602 0 0 0-.122-.192zm3.499 0a.583.583 0 0 0-.997.414.583.583 0 0 0 .04.222.89.89 0 0 0 .13.192.583.583 0 0 0 .95-.636.602.602 0 0 0-.123-.192zm-1.749 2.334a.61.61 0 0 0-.829 0 .675.675 0 0 0-.123.192.55.55 0 0 0 0 .443.68.68 0 0 0 .123.192.674.674 0 0 0 .192.123c.217.093.47.044.636-.123a.684.684 0 0 0 .123-.192.55.55 0 0 0 0-.443.678.678 0 0 0-.122-.193zm-3.5 0a.684.684 0 0 0-.193-.123.583.583 0 0 0-.636.122.598.598 0 0 0-.123.193.55.55 0 0 0 0 .443.68.68 0 0 0 .123.192.674.674 0 0 0 .192.123.55.55 0 0 0 .444 0 .525.525 0 0 0 .315-.315.55.55 0 0 0 0-.443.678.678 0 0 0-.122-.193zm7 0a.61.61 0 0 0-.829 0 .675.675 0 0 0-.123.192.55.55 0 0 0 0 .443.68.68 0 0 0 .123.192.674.674 0 0 0 .192.123.551.551 0 0 0 .444 0 .525.525 0 0 0 .315-.315.55.55 0 0 0 0-.443.678.678 0 0 0-.122-.193zm-5.25 2.333a.584.584 0 0 0-.094-.07.325.325 0 0 0-.099-.053.356.356 0 0 0-.111-.035.5.5 0 0 0-.333.035.453.453 0 0 0-.105.053.929.929 0 0 0-.087.07.6.6 0 0 0-.123.192.577.577 0 0 0 .123.636.669.669 0 0 0 .192.122.49.49 0 0 0 .222.047.577.577 0 0 0 .537-.805.603.603 0 0 0-.122-.192zm2.863-.123a.525.525 0 0 0-.315.315.576.576 0 0 0 .537.805.496.496 0 0 0 .222-.047.525.525 0 0 0 .315-.315.495.495 0 0 0 .047-.221.613.613 0 0 0-.17-.415.583.583 0 0 0-.636-.122zm-1.113 2.456a.584.584 0 0 0-.094-.07.328.328 0 0 0-.099-.053.36.36 0 0 0-.111-.035.503.503 0 0 0-.333.035.457.457 0 0 0-.105.053.928.928 0 0 0-.087.07.673.673 0 0 0-.123.192.583.583 0 1 0 1.073 0 .677.677 0 0 0-.121-.192zm-3.5 0a.61.61 0 0 0-.829 0 .673.673 0 0 0-.123.192.577.577 0 0 0 .123.636.672.672 0 0 0 .193.123.577.577 0 0 0 .758-.759.678.678 0 0 0-.122-.192zm7 0a.602.602 0 0 0-.828 0 .674.674 0 0 0-.123.192.578.578 0 0 0 .759.758.681.681 0 0 0 .192-.122.578.578 0 0 0 .122-.636.677.677 0 0 0-.122-.192zm-7-9.334a.61.61 0 0 0-.829 0 .598.598 0 0 0-.123.193.55.55 0 0 0 0 .443.68.68 0 0 0 .123.193c.23.225.598.225.829 0a.685.685 0 0 0 .122-.193.55.55 0 0 0 0-.443.602.602 0 0 0-.122-.193zm6.807-.122a.565.565 0 0 0-.759.315.585.585 0 0 0-.046.222.491.491 0 0 0 .046.221c.03.07.072.136.123.193.23.225.598.225.829 0a.685.685 0 0 0 .122-.193.586.586 0 0 0 .047-.221.56.56 0 0 0-.362-.537zm18.445-2.38a.583.583 0 0 0 .579-.656L33.896.511A.583.583 0 0 0 33.318 0h-9.334a.583.583 0 0 0-.578.511l-1.167 9.333a.582.582 0 0 0 .579.656h5.25v21h-1.75a1.75 1.75 0 0 0-1.75 1.75v1.167c0 .322.26.583.583.583h7a.583.583 0 0 0 .583-.583V33.25a1.75 1.75 0 0 0-1.75-1.75h-1.75v-21h5.25zm-2.916 22.75v.583h-5.834v-.583c0-.322.261-.583.584-.583h4.666c.322 0 .584.26.584.583zM24.499 1.167h8.303l1.021 8.166H23.478L24.5 1.167z"/></g><defs><clipPath id="clip0"><path fill="#fff" d="M0 0h35v35H0z"/></clipPath></defs></svg>