<svg width="35" height="35" fill="none" xmlns="http://www.w3.org/2000/svg"><g clip-path="url(#clip0)" fill="#92C100"><path d="M26.98 13.854H6.561a2.19 2.19 0 0 0-2.187 2.187V17.5a13.82 13.82 0 0 0 7.5 12.316.73.73 0 0 0 .67-1.297 12.365 12.365 0 0 1-6.712-11.02v-1.458a.73.73 0 0 1 .73-.73h20.416a.73.73 0 0 1 .73.73V17.5a12.36 12.36 0 0 1-6.713 11.017.73.73 0 0 0 .669 1.297 13.814 13.814 0 0 0 7.502-12.315v-1.458a2.19 2.19 0 0 0-2.188-2.187z"/><path d="M33.488 28.887a.73.73 0 0 0-.674-.451H.73a.73.73 0 0 0-.516 1.245l1.634 1.637a5.073 5.073 0 0 0 3.61 1.494h22.625c1.364 0 2.646-.53 3.612-1.494l1.635-1.637a.728.728 0 0 0 .158-.794zm-2.825 1.4a3.625 3.625 0 0 1-2.579 1.067H5.458c-.973 0-1.89-.38-2.578-1.067l-.391-.391h28.565l-.391.39zm2.927-12.99c-1.965-1.263-5.103.108-5.455.267a.73.73 0 0 0 .606 1.328c.703-.32 2.957-1.076 4.06-.366.497.32.74.94.74 1.89 0 2.92-5.888 4.685-8.162 5.12l-.516.101a.729.729 0 1 0 .281 1.43l.512-.101c.382-.073 9.344-1.83 9.344-6.55 0-1.467-.475-2.515-1.41-3.12zM22.448 7.746c1.185-1.482 1.185-3.802 0-5.284a.728.728 0 1 0-1.139.911c.75.938.75 2.524-.002 3.464-1.187 1.482-1.187 3.802 0 5.284a.726.726 0 0 0 1.026.114.729.729 0 0 0 .113-1.025c-.752-.938-.752-2.523.002-3.464zm-4.381 0c1.187-1.482 1.187-3.802 0-5.284a.728.728 0 1 0-1.14.912c.753.937.753 2.523 0 3.463-1.186 1.482-1.186 3.802 0 5.284a.727.727 0 0 0 1.025.114.728.728 0 0 0 .113-1.025c-.75-.938-.75-2.523.002-3.464zm-4.369.001c1.185-1.481 1.185-3.802 0-5.283a.73.73 0 0 0-1.139.91c.75.937.75 2.523-.002 3.463-1.187 1.482-1.187 3.802 0 5.284a.726.726 0 0 0 1.025.115.729.729 0 0 0 .114-1.025c-.752-.94-.752-2.523.002-3.464z"/></g><defs><clipPath id="clip0"><path fill="#fff" d="M0 0h35v35H0z"/></clipPath></defs></svg>