<svg width="35" height="35" fill="none" xmlns="http://www.w3.org/2000/svg"><path d="M18.135 0H8.647a.661.661 0 0 0-.661.661v33.666c0 .365.296.662.661.662h9.488a.661.661 0 0 0 .66-.662V.661a.661.661 0 0 0-.66-.661zm-.662 4.463H15.84a.661.661 0 0 0 0 1.322h1.633v2.208H15.84a.661.661 0 0 0 0 1.323h1.633v2.228h-3.12a.661.661 0 0 0 0 1.322h3.12v2.209H15.84a.661.661 0 0 0 0 1.322h1.633v2.215H15.84a.661.661 0 0 0 0 1.322h1.633v2.188h-3.12a.661.661 0 0 0 0 1.323h3.12v2.208H15.84a.661.661 0 0 0 0 1.323h1.633v2.208H15.84a.661.661 0 0 0 0 1.322h1.633v3.14H9.308V1.323h8.165v3.14zm8.88 2.023a.661.661 0 0 0 .502-1.091l-2.043-3.557a.661.661 0 0 0-1.143 0l-2.11 3.656a.661.661 0 0 0 .576.992h1.447v22.017h-1.447a.661.661 0 0 0-.576.991l2.11 3.657a.661.661 0 0 0 1.143 0l2.11-3.657a.661.661 0 0 0-.576-.991h-1.448V6.486h1.455zm-1.144 23.339l-.965 1.672-.966-1.672h1.93zm-1.93-24.661l.965-1.673.965 1.673h-1.93z" fill="#92C100"/></svg>