<svg width="128" height="90" viewBox="0 0 128 90" fill="none" xmlns="http://www.w3.org/2000/svg"><path d="M101.259 33.496c-.258-2.776-.06-10.323 7.198-20.817a1.984 1.984 0 0 0-.233-2.539c-2.959-2.947-4.791-4.807-6.076-6.109-1.69-1.716-2.461-2.498-3.59-3.517a2.01 2.01 0 0 0-2.656-.025C83.252 11.454 69.2 34.11 71.233 61.869 72.425 78.17 84.36 90 99.613 90 115.265 90 128 77.317 128 61.725c0-15.04-11.852-27.375-26.741-28.229zm-1.646 52.52c-13.098 0-23.354-10.277-24.391-24.434-2.287-31.22 16.344-51.5 21.973-56.87.549.54 1.176 1.173 2.1 2.111a876.967 876.967 0 0 0 4.941 4.977c-8.81 13.521-7.149 23.155-6.42 24.537a2.073 2.073 0 0 0 1.797 1.097C113.06 37.434 124 48.33 124 61.725c0 13.393-10.94 24.29-24.387 24.29zM30.227 33.497c-.26-2.769-.069-10.31 7.197-20.817.547-.792.45-1.86-.232-2.54-2.954-2.94-4.784-4.799-6.067-6.1-1.695-1.72-2.469-2.504-3.598-3.526a2.015 2.015 0 0 0-2.656-.027C12.221 11.452-1.833 34.106.197 61.87 1.392 78.167 13.33 90 28.582 90c15.653 0 28.387-12.683 28.387-28.274 0-15.043-11.851-27.38-26.742-28.23zm-1.645 52.519c-13.096 0-23.358-10.277-24.397-24.436-2.281-31.227 16.35-51.5 21.979-56.867.55.539 1.18 1.177 2.106 2.117a826.872 826.872 0 0 0 4.933 4.97c-8.81 13.524-7.148 23.156-6.42 24.535.346.656 1.057 1.1 1.799 1.1 13.448 0 24.387 10.896 24.387 24.29 0 13.394-10.94 24.29-24.387 24.29z" fill="#E5E5E5"/></svg>