<svg width="48" height="48" viewBox="0 0 48 48" fill="none" xmlns="http://www.w3.org/2000/svg"><path d="M48 24a24.05 24.05 0 0 1-1.603 8.64v.002a23.973 23.973 0 0 1-6.014 8.895 23.966 23.966 0 0 1-7.746 4.86A23.937 23.937 0 0 1 24 48.001a23.899 23.899 0 0 1-16.383-6.463 24.233 24.233 0 0 1-1.836-1.915A23.902 23.902 0 0 1 0 24c0-.743.033-1.477.1-2.203.24-2.645.91-5.167 1.94-7.494a24.01 24.01 0 0 1 3.74-5.926 24.132 24.132 0 0 1 3.91-3.645A23.89 23.89 0 0 1 24 0c3.044 0 5.955.566 8.635 1.6a24.04 24.04 0 0 1 9.584 6.777 24.021 24.021 0 0 1 4.067 6.698A23.94 23.94 0 0 1 48 24z" fill="#FF525D"/><path d="M11.698 20.548c0 .69-.559 1.249-1.25 1.249H.1c.241-2.645.91-5.166 1.94-7.494h6.467a1.246 1.246 0 0 1 1.25 1.249c0 .69-.56 1.249-1.25 1.249H4.481a1.25 1.25 0 0 0 0 2.498h5.968c.345 0 .657.14.883.366.226.226.366.538.366.883zm1.874 5.106c0-.69-.559-1.25-1.249-1.25H1.798a1.249 1.249 0 0 0 0 2.499h3.404a1.249 1.249 0 0 1 0 2.498h-.347a1.249 1.249 0 0 0 0 2.498h10.088c.69 0 1.25-.56 1.25-1.25s.558-1.248 1.248-1.248h.347a1.249 1.249 0 1 0 0-2.498h-2.967a1.25 1.25 0 0 1-1.249-1.25z" fill="#FFDC8D"/><path d="M42.219 2.332v37.29C37.817 44.752 31.287 48 23.999 48c-7.288 0-13.818-3.25-18.22-8.377V2.332A2.331 2.331 0 0 1 8.112 0h31.776a2.332 2.332 0 0 1 2.332 2.332z" fill="#5C5E70"/><path d="M40.382 8.012v33.526A23.894 23.894 0 0 1 24 48a23.894 23.894 0 0 1-16.382-6.462V8.011c0-.768.622-1.39 1.39-1.39h29.985a1.39 1.39 0 0 1 1.39 1.39z" fill="#FFD15C"/><path d="M30.17 4.27H17.828a1.028 1.028 0 0 1 0-2.056H30.17a1.028 1.028 0 1 1 0 2.057z" fill="#494B5B"/><path d="M32.637 6.4v39.998A23.937 23.937 0 0 1 24 48a23.9 23.9 0 0 1-16.383-6.463 24.233 24.233 0 0 1-1.836-1.915A23.902 23.902 0 0 1 0 24V6.4c0-.92.746-1.668 1.668-1.668h29.3c.899 0 1.633.711 1.667 1.601.002.023.002.045.002.068z" fill="#34ABE0"/><path d="M11.443 23.166a6.64 6.64 0 1 0 0-13.281 6.64 6.64 0 0 0 0 13.281z" fill="#FFD15C"/><path d="M16.438 20.899a6.62 6.62 0 0 1-4.994 2.266 6.62 6.62 0 0 1-4.995-2.266 6.773 6.773 0 0 1 4.959-2.187l.037.001.037-.001a6.77 6.77 0 0 1 4.956 2.187z" fill="#FF525D"/><path d="M11.445 13.07a3.257 3.257 0 0 1 .05 6.512h-.102a3.257 3.257 0 0 1 .052-6.512z" fill="#F2F2F2"/><path d="M29.226 12.399h-8.274v1.596h8.274V12.4zm0 3.794h-8.274v1.596h8.274v-1.596zm0 3.794h-8.274v1.596h8.274v-1.596zm-.001 6.926H4.005v1.597h25.22v-1.597zm-3.918 3.524H4.005v1.596h21.302v-1.596z" fill="#5C5E70"/></svg>