<svg width="94" height="96" viewBox="0 0 94 96" fill="none" xmlns="http://www.w3.org/2000/svg"><path d="M45.968 96c25.388 0 45.968-20.567 45.968-45.938 0-25.37-20.58-45.937-45.968-45.937C20.581 4.125 0 24.692 0 50.063 0 75.433 20.58 96 45.968 96z" fill="#F24976"/><path d="M79.158 29.476c-6.094 0-11.33-3.738-13.536-9.038H9.57V30.84a14.21 14.21 0 0 1 9.48-3.617h1.771c7.866 0 14.265 6.395 14.265 14.255v13.01c0 3.55-1.315 6.953-3.701 9.58a.186.186 0 0 0 .06.296 6.234 6.234 0 0 1 3.641 5.656v12.666h43.242a46.08 46.08 0 0 0 8.544-11.641v-43.77a14.574 14.574 0 0 1-7.713 2.2z" fill="#C3DDF4"/><path d="M80.885 73.419h-45.8v2.812h45.8a1.407 1.407 0 1 0 0-2.812z" fill="#293D7C"/><path d="M50.002 62.535H32.596a14.18 14.18 0 0 1-1.213 1.534.187.187 0 0 0 .061.296 6.233 6.233 0 0 1 3.634 5.482h14.924c.31 0 .563-.253.563-.562v-6.187a.564.564 0 0 0-.563-.563z" fill="#fff"/><path d="M64.504 14.832c0-1.928.378-3.77 1.06-5.457h-54.12A1.881 1.881 0 0 0 9.57 11.25v9.375h56.133a14.548 14.548 0 0 1-1.198-5.793z" fill="#293D7C"/><path d="M15.264 16.554c-.402 0-.793-.162-1.076-.444a1.536 1.536 0 0 1-.444-1.075c0-.4.162-.79.444-1.074a1.53 1.53 0 0 1 1.076-.445 1.525 1.525 0 0 1 1.52 1.519c0 .4-.162.792-.446 1.075a1.533 1.533 0 0 1-1.074.444z" fill="#E26693"/><path d="M20.248 16.554a1.52 1.52 0 0 1-1.52-1.52c0-.398.162-.79.446-1.073a1.53 1.53 0 0 1 1.075-.445c.4 0 .792.161 1.076.445.281.284.443.675.443 1.074s-.162.792-.443 1.073a1.532 1.532 0 0 1-1.076.446z" fill="#FFD00D"/><path d="M25.235 16.554a1.53 1.53 0 0 1-1.074-.444 1.529 1.529 0 0 1-.446-1.075 1.52 1.52 0 0 1 2.594-1.073c.284.283.446.674.446 1.073 0 .4-.162.792-.446 1.075a1.537 1.537 0 0 1-1.074.444z" fill="#02AF8E"/><path d="M49.637 42.514H35.084v2.812h14.553a1.407 1.407 0 1 0 0-2.812zm0 4.724H35.084v2.813h14.553a1.407 1.407 0 1 0 0-2.813zm0 4.724H35.084v2.527c0 .096-.004.19-.006.286h14.559a1.407 1.407 0 1 0 0-2.813zm.001 4.725H34.912c-.15.963-.395 1.905-.736 2.812h15.462a1.407 1.407 0 1 0 0-2.813z" fill="#293D7C"/><path d="M50.098 24.093H14.916a.564.564 0 0 0-.563.563v3.366a14.2 14.2 0 0 1 4.697-.798h1.77c6.889 0 12.652 4.905 13.978 11.403h15.3c.31 0 .563-.253.563-.563V24.656a.564.564 0 0 0-.563-.563z" fill="#fff"/><path d="M18.076 27.262v-2.606c0-.31.253-.562.563-.562h-3.723a.564.564 0 0 0-.563.562v3.367a14.157 14.157 0 0 1 3.723-.761z" fill="#D9EAFC"/><path d="M28.865 63.618h-5.316v1.307a3.617 3.617 0 0 1-3.614 3.612 3.617 3.617 0 0 1-3.614-3.612v-1.307h-5.315a6.406 6.406 0 0 0-6.408 6.403v.088c5.942 12.224 17.149 21.417 30.675 24.638V70.021a6.406 6.406 0 0 0-6.408-6.403z" fill="#52BBEF"/><path d="M8.32 70.021a6.406 6.406 0 0 1 6.409-6.403h-3.723a6.406 6.406 0 0 0-6.408 6.403v.088A45.884 45.884 0 0 0 8.32 76.42v-6.4z" fill="#1E99D6"/><path d="M20.434 62.676a2.21 2.21 0 0 1-.998 0 15.867 15.867 0 0 1-3.302-1.17v3.419a3.8 3.8 0 0 0 3.801 3.8 3.8 3.8 0 0 0 3.802-3.8v-3.418a15.9 15.9 0 0 1-3.303 1.169z" fill="#FFDD8D"/><path d="M26.386 38.88a8.142 8.142 0 0 1-7.29 4.512H6.873v3.697c0 3.677 1.268 7.278 3.57 10.14a16.272 16.272 0 0 0 8.95 5.63 2.385 2.385 0 0 0 1.084 0 16.272 16.272 0 0 0 8.95-5.63 16.227 16.227 0 0 0 3.57-10.14v-3.726a8.144 8.144 0 0 1-6.611-4.483z" fill="#FFE2B8"/><path d="M14.166 57.228a16.227 16.227 0 0 1-3.57-10.14v-3.696H6.873v3.697c0 3.677 1.268 7.278 3.57 10.14a16.272 16.272 0 0 0 8.95 5.63 2.385 2.385 0 0 0 1.084 0 15.89 15.89 0 0 0 1.32-.369 16.3 16.3 0 0 1-7.631-5.262z" fill="#FFC987"/><path d="M13.484 50.885c-.702 0-1.272-.57-1.272-1.272V47.41a1.272 1.272 0 0 1 2.545 0v2.204c0 .703-.57 1.272-1.273 1.272zm12.902 0c-.703 0-1.272-.57-1.272-1.272V47.41a1.272 1.272 0 0 1 2.544 0v2.204c0 .703-.57 1.272-1.272 1.272zm-5.348 2.741h-1.527a1.953 1.953 0 0 1-1.951-1.95v-3.617a1.272 1.272 0 0 1 2.545 0v3.024h.933a1.272 1.272 0 1 1 0 2.543z" fill="#A53535"/><path d="M24.93 79.917l-3.722-7.901a1.407 1.407 0 0 0-2.546 0l-3.721 7.901a1.406 1.406 0 1 0 2.546 1.198l.564-1.197h3.769l.563 1.197a1.408 1.408 0 0 0 2.547-1.198zm-5.555-2.811l.56-1.19.56 1.19h-1.12z" fill="#fff"/><path d="M19.935 59.596a4.366 4.366 0 0 1-4.362-4.36 1.022 1.022 0 0 1 2.044 0 2.32 2.32 0 0 0 2.318 2.316 2.32 2.32 0 0 0 2.318-2.316 1.022 1.022 0 0 1 2.045 0 4.366 4.366 0 0 1-4.363 4.36z" fill="#A53535"/><path d="M53.663 69.285c0 .31.253.562.562.562h27.298c.31 0 .563-.253.563-.562v-6.187a.564.564 0 0 0-.563-.563H54.225a.564.564 0 0 0-.562.563v6.187z" fill="#52BBEF"/><path d="M57.385 69.285v-6.187c0-.31.254-.563.563-.563h-3.723a.564.564 0 0 0-.562.563v6.187c0 .31.253.562.562.562h3.723a.564.564 0 0 1-.563-.562z" fill="#1E99D6"/><path d="M79.158 29.476c-4.567 0-8.652-2.1-11.341-5.383H54.225a.564.564 0 0 0-.562.563v35.53c0 .309.253.562.562.562h27.298c.31 0 .563-.253.563-.563V29.182c-.946.192-1.925.294-2.928.294z" fill="#52BBEF"/><path d="M57.385 60.185v-35.53c0-.309.254-.562.563-.562h-3.723a.564.564 0 0 0-.562.563v35.53c0 .309.253.562.562.562h3.723a.564.564 0 0 1-.563-.563z" fill="#1E99D6"/><path d="M71.939 27.568H57.505a.564.564 0 0 0-.563.562v4.5c0 .31.254.563.563.563h20.738c.31 0 .563-.254.563-.563v-3.163a14.56 14.56 0 0 1-6.867-1.9z" fill="#fff"/><path d="M67.873 56.906c5.674 0 10.273-4.596 10.273-10.265 0-5.67-4.6-10.266-10.273-10.266s-10.272 4.596-10.272 10.266S62.2 56.906 67.873 56.906z" fill="#FFAF10"/><path d="M66.541 51.503c-.36 0-.72-.138-.995-.412l-3.874-3.872a1.408 1.408 0 0 1 1.99-1.989l2.88 2.878 5.593-5.59a1.406 1.406 0 1 1 1.99 1.989l-6.588 6.584a1.405 1.405 0 0 1-.996.412z" fill="#DB722C"/><path d="M79.159 29.663C87.355 29.663 94 23.023 94 14.83 94 6.641 87.355 0 79.159 0c-8.197 0-14.841 6.64-14.841 14.831 0 8.191 6.644 14.832 14.84 14.832z" fill="#EF9614"/><path d="M79.159 25.372c5.825 0 10.548-4.719 10.548-10.54 0-5.822-4.722-10.542-10.548-10.542S68.61 9.01 68.61 14.831c0 5.822 4.722 10.541 10.548 10.541z" fill="#FFD00D"/><path d="M72.333 14.832c0-5.187 3.75-9.495 8.686-10.374a10.607 10.607 0 0 0-1.86-.167c-5.827 0-10.549 4.72-10.549 10.54 0 5.823 4.722 10.542 10.548 10.542.636 0 1.257-.059 1.861-.167-4.937-.879-8.686-5.188-8.686-10.374z" fill="#FFAF10"/><path d="M81.23 13.479h-3.534v-1.223h4.332a1.407 1.407 0 1 0 0-2.813h-1.463v-.824a1.407 1.407 0 0 0-2.814 0v.824h-.665a2.206 2.206 0 0 0-2.205 2.203v2.442c0 1.215.99 2.203 2.205 2.203h3.534v1.223h-4.33a1.407 1.407 0 1 0 0 2.813h1.462v.718a1.407 1.407 0 0 0 2.814 0v-.718h.665a2.206 2.206 0 0 0 2.205-2.203v-2.442a2.206 2.206 0 0 0-2.205-2.203z" fill="#DB722C"/><path d="M20.82 27.037h-1.77c-7.982 0-14.452 6.466-14.452 14.443v13.009c0 3.736 1.42 7.142 3.75 9.706.81-.37 1.71-.577 2.658-.577h5.127v-1.902a16.3 16.3 0 0 1-5.69-4.488 16.227 16.227 0 0 1-3.57-10.14v-3.696h12.223a8.142 8.142 0 0 0 7.29-4.512 8.145 8.145 0 0 0 6.611 4.483v3.725c0 3.678-1.268 7.28-3.57 10.14a16.303 16.303 0 0 1-5.69 4.487v1.903h5.128c.948 0 1.848.207 2.658.577a14.384 14.384 0 0 0 3.75-9.706v-13.01c0-7.976-6.47-14.442-14.453-14.442z" fill="#A53535"/></svg>