<svg width="96" height="92" viewBox="0 0 96 92" fill="none" xmlns="http://www.w3.org/2000/svg"><path d="M48 92c25.37 0 45.938-20.595 45.938-46S73.37 0 48 0 2.062 20.595 2.062 46 22.63 92 48 92z" fill="#91E0E8"/><path d="M29.167 74.68a.697.697 0 0 1-.694.695H.695A.697.697 0 0 1 0 74.68V56.043c0-.382.312-.695.695-.695h27.778c.382 0 .694.313.694.695V74.68z" fill="#52BBEF"/><path d="M22.506 66.236a.567.567 0 0 0-.896 0L18 70.526a.567.567 0 0 1-.895 0L10.29 62.43a.566.566 0 0 0-.895 0L0 73.59v1.09c0 .382.312.695.695.695h27.778a.697.697 0 0 0 .694-.696v-.53l-6.661-7.913z" fill="#02AF8E"/><path d="M3.72 74.68v-1.09l7.983-9.482-1.413-1.678a.566.566 0 0 0-.895 0L0 73.59v1.09c0 .382.312.695.695.695h3.72a.697.697 0 0 1-.694-.696z" fill="#0F9390"/><path d="M3.915 61.08c1.15 0 2.083-.934 2.083-2.086a2.085 2.085 0 0 0-2.083-2.086c-1.15 0-2.083.934-2.083 2.086 0 1.152.932 2.086 2.083 2.086z" fill="#fff"/><path d="M3.552 58.994c0-.844.502-1.57 1.223-1.898a2.085 2.085 0 0 0-2.944 1.898c0 1.152.933 2.087 2.084 2.087.307 0 .598-.069.86-.188a2.086 2.086 0 0 1-1.223-1.899z" fill="#D9EAFC"/><path d="M89.352 71.011a.94.94 0 0 1-.938.939H67.961a.94.94 0 0 1-.938-.939V56.352a.94.94 0 0 1 .938-.938h20.453a.94.94 0 0 1 .938.938v14.66z" fill="#FE3745"/><path d="M70.744 71.011V56.352a.94.94 0 0 1 .937-.938h-3.72a.94.94 0 0 0-.938.938v14.66a.94.94 0 0 0 .938.938h3.72a.94.94 0 0 1-.937-.939z" fill="#B7092B"/><path d="M74.541 60.779c0-1.033.73-1.455 1.624-.939l5.022 2.903c.893.517.893 1.361 0 1.878l-5.022 2.903c-.893.517-1.624.094-1.624-.939V60.78z" fill="#fff"/><path d="M95.627 40.019H78.854a.375.375 0 0 0-.373.375v10.777c0 .206.168.375.373.375h16.773a.375.375 0 0 0 .373-.375V40.394a.375.375 0 0 0-.373-.375z" fill="#FFAF10"/><path d="M82.202 51.171V40.394c0-.206.168-.375.373-.375h-3.721a.375.375 0 0 0-.373.375v10.777c0 .206.168.375.373.375h3.72a.375.375 0 0 1-.372-.375z" fill="#EF9614"/><path d="M95.627 40.019H78.854a.37.37 0 0 0-.283.134l8.374 6.481a.51.51 0 0 0 .591 0l8.374-6.48a.37.37 0 0 0-.283-.135z" fill="#FFD00D"/><path d="M24.193 2.846H7.42a.375.375 0 0 0-.373.375v10.777c0 .206.168.375.373.375h16.773a.375.375 0 0 0 .373-.375V3.22a.375.375 0 0 0-.373-.375z" fill="#FFAF10"/><path d="M10.768 13.998V3.22c0-.207.168-.375.373-.375H7.42a.375.375 0 0 0-.374.375v10.777c0 .206.168.375.373.375h3.72a.375.375 0 0 1-.372-.375z" fill="#EF9614"/><path d="M24.193 2.846H7.42a.37.37 0 0 0-.283.134l8.374 6.48a.51.51 0 0 0 .591 0l8.374-6.48a.37.37 0 0 0-.283-.134zm23.718 3.256c-14.452 0-26.21 11.774-26.21 26.246 0 8.88 4.433 17.09 11.855 21.962.332.218.59.534.736.903l2.882 7.284h21.474l2.883-7.284c.147-.37.403-.685.736-.903A26.195 26.195 0 0 0 74.12 32.348c0-14.472-11.758-26.246-26.21-26.246z" fill="#FFD00D"/><path d="M37.277 54.31a26.195 26.195 0 0 1-11.855-21.962c0-13.846 10.762-25.22 24.35-26.18a26.41 26.41 0 0 0-1.86-.066c-14.453 0-26.21 11.774-26.21 26.246 0 8.88 4.432 17.09 11.855 21.962.331.218.588.534.735.903l2.883 7.284h3.72l-2.883-7.284a1.935 1.935 0 0 0-.735-.903z" fill="#FFAF10"/><path d="M49.318 62.497V52.84c-.465.032-.934.05-1.407.05a20.5 20.5 0 0 1-1.406-.05v9.657h2.813z" fill="#1A2B63"/><path d="M47.911 53.077c-11.414 0-20.7-9.3-20.7-20.73s9.286-20.729 20.7-20.729c11.415 0 20.701 9.3 20.701 20.73s-9.286 20.729-20.7 20.729z" fill="#B7092B"/><path d="M47.911 47.96c-8.597 0-15.59-7.003-15.59-15.612s6.993-15.613 15.59-15.613c8.598 0 15.592 7.004 15.592 15.613S56.509 47.961 47.91 47.961z" fill="#fff"/><path d="M35.103 32.348c0-8.14 6.253-14.84 14.2-15.548-.459-.04-.922-.065-1.392-.065-8.597 0-15.59 7.004-15.59 15.613 0 8.608 6.993 15.612 15.59 15.612.47 0 .933-.024 1.392-.065-7.947-.708-14.2-7.408-14.2-15.547z" fill="#D9EAFC"/><path d="M47.912 42.845c5.789 0 10.482-4.7 10.482-10.497S53.7 21.852 47.912 21.852c-5.79 0-10.482 4.7-10.482 10.496 0 5.797 4.693 10.497 10.482 10.497z" fill="#B7092B"/><path d="M47.911 37.055a4.709 4.709 0 0 1-4.7-4.707 4.709 4.709 0 0 1 4.7-4.707c2.592 0 4.7 2.111 4.7 4.707a4.709 4.709 0 0 1-4.7 4.707z" fill="#fff"/><path d="M46.182 32.348a4.714 4.714 0 0 1 3.215-4.465 4.674 4.674 0 0 0-1.486-.242 4.709 4.709 0 0 0-4.7 4.707 4.709 4.709 0 0 0 4.7 4.707c.52 0 1.019-.086 1.486-.243a4.713 4.713 0 0 1-3.215-4.464z" fill="#D9EAFC"/><path d="M40.87 80.182v3.838c0 1.033.843 1.878 1.874 1.878H53.08a1.882 1.882 0 0 0 1.875-1.877v-3.84H40.869z" fill="#293D7C"/><path d="M44.59 84.02v-3.838h-3.72v3.838c0 1.033.843 1.878 1.874 1.878h3.72a1.882 1.882 0 0 1-1.874-1.877z" fill="#1A2B63"/><path d="M61.714 79.43a.94.94 0 0 1-.937.94h-25.73a.941.941 0 0 1-.938-.94V63.248a.94.94 0 0 1 .937-.939h25.73a.94.94 0 0 1 .938.939V79.43z" fill="#445EA0"/><path d="M37.83 79.43V63.248a.94.94 0 0 1 .937-.939h-3.72a.94.94 0 0 0-.938.939V79.43c0 .517.422.94.937.94h3.72a.941.941 0 0 1-.937-.94z" fill="#293D7C"/><path d="M62.081 69.737h-28.34c-.776 0-1.405-.63-1.405-1.408 0-.778.629-1.408 1.406-1.408h28.34a1.407 1.407 0 1 1 0 2.816zm0 6.02h-28.34c-.776 0-1.405-.63-1.405-1.408 0-.778.629-1.408 1.406-1.408h28.34c.776 0 1.405.63 1.405 1.408 0 .778-.63 1.408-1.406 1.408zm-14.17-44.571H24.07l.923.995a.62.62 0 0 1 0 .826l-.923.995h23.841a1.407 1.407 0 1 0 0-2.816z" fill="#1A2B63"/><path d="M12.61 37.453c-.31 0-.385-.18-.168-.402l3.985-4.056a.577.577 0 0 0 0-.803l-3.985-4.057c-.217-.221-.141-.402.168-.402h7.885c.31 0 .735.186.946.413l3.74 4.034a.62.62 0 0 1 0 .826l-3.74 4.034c-.211.227-.636.413-.946.413H12.61z" fill="#FE3745"/><path d="M15.788 37.052l3.984-4.057a.577.577 0 0 0 0-.803l-3.984-4.056c-.217-.221-.142-.402.168-.402H12.61c-.31 0-.385.18-.168.401l3.985 4.057a.577.577 0 0 1 0 .803l-3.985 4.057c-.217.22-.141.402.168.402h3.346c-.31 0-.385-.181-.168-.402z" fill="#B7092B"/></svg>