<svg width="62" height="62" viewBox="0 0 62 62" fill="none" xmlns="http://www.w3.org/2000/svg"><path d="M46.5 18h.5v2h2v-2h.5c1.93 0 3.5-1.57 3.5-3.5S51.43 11 49.5 11h-3c-.827 0-1.5-.673-1.5-1.5S45.673 8 46.5 8h3c.827 0 1.5.673 1.5 1.5v.5h2v-.5C53 7.57 51.43 6 49.5 6H49V4h-2v2h-.5C44.57 6 43 7.57 43 9.5s1.57 3.5 3.5 3.5h3c.827 0 1.5.673 1.5 1.5s-.673 1.5-1.5 1.5h-3c-.827 0-1.5-.673-1.5-1.5V14h-2v.5c0 1.93 1.57 3.5 3.5 3.5z" fill="#E5E5E5"/><path d="M59.951 12.972c.026-.322.049-.644.049-.972 0-6.617-5.383-12-12-12S36 5.383 36 12H5c-2.757 0-5 2.243-5 5v34c0 2.757 2.243 5 5 5h10v4h-4v2h40v-2h-4v-4h10c2.757 0 5-2.243 5-5V17a5.014 5.014 0 0 0-2.049-4.028zM48 2c5.514 0 10 4.486 10 10s-4.486 10-10 10-10-4.486-10-10S42.486 2 48 2zm-3 58H17v-4h28v4zm15-9c0 1.654-1.346 3-3 3H5c-1.654 0-3-1.346-3-3v-1h58v1zm0-3H2V17c0-1.654 1.346-3 3-3h31.181c.116.689.291 1.356.519 2H35v2h2.624a12.074 12.074 0 0 0 3.741 3.99l-3.381 6.147A3.954 3.954 0 0 0 37 28a3.98 3.98 0 0 0-3.149 1.563l-6.912-2.962c.03-.198.061-.395.061-.601 0-2.206-1.794-4-4-4s-4 1.794-4 4c0 .802.243 1.547.651 2.174l-5.784 6.31A3.946 3.946 0 0 0 12 34c-2.206 0-4 1.794-4 4s1.794 4 4 4 4-1.794 4-4c0-.802-.242-1.547-.651-2.174l5.784-6.31A3.949 3.949 0 0 0 23 30c1.285 0 2.417-.619 3.149-1.563l6.912 2.962c-.03.198-.061.395-.061.601 0 2.206 1.794 4 4 4s4-1.794 4-4c0-1.145-.49-2.172-1.263-2.902l3.381-6.147A11.906 11.906 0 0 0 56 20.919V44H6V18h27v-2H4v30h54V18.619a11.944 11.944 0 0 0 1.507-3.236c.308.478.493 1.032.493 1.617v31zM39 32c0 1.103-.897 2-2 2s-2-.897-2-2 .897-2 2-2 2 .897 2 2zm-14-6c0 1.103-.897 2-2 2s-2-.897-2-2 .897-2 2-2 2 .897 2 2zM14 38c0 1.103-.897 2-2 2s-2-.897-2-2 .897-2 2-2 2 .897 2 2z" fill="#E5E5E5"/><path d="M10 20H8v2h2v-2zm4 0h-2v2h2v-2zm4 0h-2v2h2v-2zm29 20h-2v2h2v-2z" fill="#E5E5E5"/><path d="M45 38h2v-6h-.919L48 29.601l1.919 2.4H49v10h2v-8h3.081L48 26.398 41.919 34H45v4z" fill="#E5E5E5"/></svg>