<svg width="62" height="62" viewBox="0 0 62 62" fill="none" xmlns="http://www.w3.org/2000/svg"><path d="M49 48c-1.103 0-2-.897-2-2s.897-2 2-2 2 .897 2 2h2c0-1.858-1.28-3.411-3-3.858V40h-2v2.142c-1.72.447-3 2-3 3.858 0 2.206 1.794 4 4 4 1.103 0 2 .897 2 2s-.897 2-2 2-2-.897-2-2h-2c0 1.858 1.28 3.411 3 3.858V58h2v-2.142c1.72-.447 3-2 3-3.858 0-2.206-1.794-4-4-4zm9 0h-2v2h2v-2zm-16 0h-2v2h2v-2z" fill="#E5E5E5"/><path d="M50 36.051V4h-6V3c0-1.654-1.346-3-3-3s-3 1.346-3 3v1h-2V3c0-1.654-1.346-3-3-3s-3 1.346-3 3v1h-2V3c0-1.654-1.346-3-3-3s-3 1.346-3 3v1h-2V3c0-1.654-1.346-3-3-3s-3 1.346-3 3v1h-2V3c0-1.654-1.346-3-3-3S6 1.346 6 3v1H0v46h36.051c.513 6.701 6.118 12 12.949 12 3.118 0 6.134-1.121 8.492-3.157l-1.307-1.514A10.995 10.995 0 0 1 49 60c-6.065 0-11-4.935-11-11s4.935-11 11-11 11 4.935 11 11c0 2.536-.838 4.918-2.425 6.89l1.559 1.254A13.038 13.038 0 0 0 62 49c0-6.831-5.299-12.436-12-12.949zM40 3c0-.551.449-1 1-1 .551 0 1 .449 1 1v4c0 .551-.449 1-1 1-.551 0-1-.449-1-1V3zm-8 0c0-.551.449-1 1-1 .551 0 1 .449 1 1v4c0 .551-.449 1-1 1-.551 0-1-.449-1-1V3zm-8 0c0-.551.449-1 1-1 .551 0 1 .449 1 1v4c0 .551-.449 1-1 1-.551 0-1-.449-1-1V3zm-8 0c0-.551.449-1 1-1 .551 0 1 .449 1 1v4c0 .551-.449 1-1 1-.551 0-1-.449-1-1V3zM8 3c0-.551.449-1 1-1 .551 0 1 .449 1 1v4c0 .551-.449 1-1 1-.551 0-1-.449-1-1V3zm36 33h-6v-6h6v6zm0-8h-6v-6h6v6zm0-8h-6v-6h6v6zm4 16.051c-.683.052-1.35.158-2 .313V12H28v8H4v26h18v-8h20.103c-3.392 2.135-5.729 5.785-6.052 10H2V6h4v1c0 1.654 1.346 3 3 3s3-1.346 3-3V6h2v1c0 1.654 1.346 3 3 3s3-1.346 3-3V6h2v1c0 1.654 1.346 3 3 3s3-1.346 3-3V6h2v1c0 1.654 1.346 3 3 3s3-1.346 3-3V6h2v1c0 1.654 1.346 3 3 3s3-1.346 3-3V6h4v30.051zM30 28v-6h6v6h-6zm6 2v6h-6v-6h6zm-6-10v-6h6v6h-6zm-8 8v-6h6v6h-6zm6 2v6h-6v-6h6zm-14 6v-6h6v6h-6zm6 2v6h-6v-6h6zm-6-10v-6h6v6h-6zm-8 8v-6h6v6H6zm6 2v6H6v-6h6zM6 28v-6h6v6H6z" fill="#E5E5E5"/></svg>