<svg width="62" height="62" viewBox="0 0 62 62" fill="none" xmlns="http://www.w3.org/2000/svg"><path d="M30.967 31.243c-.716-2.531-2.747-4.424-5.301-4.94l-5.551-1.123v-.263a8.01 8.01 0 0 0 3.717-4.994A3.991 3.991 0 0 0 27.042 16v-5c0-6.065-4.884-11-10.886-11C10.154 0 5.271 4.935 5.271 11v5a3.993 3.993 0 0 0 3.21 3.924 8.01 8.01 0 0 0 3.717 4.994v.263l-5.55 1.122c-2.555.516-4.587 2.409-5.302 4.94L0 36h32.312l-1.345-4.757zm-6.894-13.521v-3.444c.589.347.99.985.99 1.722s-.401 1.375-.99 1.722zm-15.834 0A1.997 1.997 0 0 1 7.25 16a2 2 0 0 1 .99-1.722v3.444zm-.99-5.166V11c0-4.962 3.997-9 8.907-9s8.907 4.038 8.907 9v1.556a3.887 3.887 0 0 0-1.98-.556h-1.738a9.04 9.04 0 0 1-6.468-2.707l-.853-.863-1.003 1.519A4.537 4.537 0 0 1 9.23 12c-.724 0-1.394.212-1.98.556zM10.22 18v-4.085a6.5 6.5 0 0 0 4.13-2.414A10.97 10.97 0 0 0 21.345 14h.749v4c0 3.309-2.663 6-5.938 6-3.274 0-5.937-2.691-5.937-6zm7.917 7.737V26c0 1.103-.888 2-1.98 2a1.992 1.992 0 0 1-1.979-2v-.263a7.793 7.793 0 0 0 1.98.263 7.8 7.8 0 0 0 1.979-.263zM24.846 34l-.802-3.243-1.92.485.681 2.758H9.507l.682-2.757-1.92-.485L7.467 34H2.624l.625-2.208a4.949 4.949 0 0 1 3.787-3.529l5.358-1.083c.502 1.627 1.989 2.82 3.762 2.82 1.774 0 3.261-1.193 3.763-2.82l5.359 1.083a4.95 4.95 0 0 1 3.787 3.529L29.688 34h-4.842zm35.809 23.243a6.931 6.931 0 0 0-3.925-4.492V37c0-6.065-4.883-11-10.885-11s-10.886 4.935-10.886 11v15.751a6.929 6.929 0 0 0-3.925 4.492L29.688 62H62l-1.345-4.757zM36.938 37c0-4.962 3.996-9 8.907-9 4.91 0 8.906 4.038 8.906 9v1.556a3.887 3.887 0 0 0-1.98-.556 4.537 4.537 0 0 1-3.791-2.051l-1.003-1.519-.853.863A9.039 9.039 0 0 1 40.656 38h-1.739c-.724 0-1.394.212-1.979.556V37zm8.907 13c-3.275 0-5.938-2.691-5.938-6v-4h.75c2.576 0 5.02-.88 6.995-2.499a6.499 6.499 0 0 0 4.13 2.414V44c0 3.309-2.663 6-5.937 6zm1.979 1.737V52c0 1.103-.888 2-1.98 2a1.992 1.992 0 0 1-1.979-2v-.263a7.793 7.793 0 0 0 1.98.263c.684 0 1.345-.097 1.979-.263zm1.98-.819a8.01 8.01 0 0 0 3.716-4.994 3.873 3.873 0 0 0 1.231-.48v6.737l-4.948-1v-.263zm3.957-7.196v-3.444c.59.347.99.985.99 1.722s-.4 1.375-.99 1.722zm-15.833-3.444v3.444a1.997 1.997 0 0 1-.99-1.722c0-.737.401-1.375.99-1.722zm-.99 5.166c.378.223.788.394 1.231.48a8.01 8.01 0 0 0 3.717 4.994v.263l-4.948 1v-6.737zM54.534 60l-.802-3.243-1.92.485.682 2.758H39.196l.681-2.757-1.92-.485L37.156 60h-4.842l.624-2.208a4.949 4.949 0 0 1 3.787-3.529l5.358-1.083c.502 1.627 1.99 2.82 3.763 2.82s3.26-1.193 3.762-2.82l5.359 1.083a4.95 4.95 0 0 1 3.787 3.529L59.377 60h-4.843zM9.86 41.936l3.875 1.958.886-1.789-6.824-3.447-3.411 6.895 1.77.895 1.859-3.756c3.687 7.368 10.782 12.663 18.87 13.978l.314-1.975c-7.41-1.205-13.916-6.034-17.34-12.759zM58.71 0H34.959c-1.637 0-2.969 1.346-2.969 3v12c0 1.654 1.332 3 2.969 3h5.938v6.869L51.093 18h7.617c1.636 0 2.968-1.346 2.968-3V3c0-1.654-1.332-3-2.968-3zm.99 15c0 .551-.445 1-.99 1h-8.217l-7.617 5.131V16h-7.917a.997.997 0 0 1-.99-1V3c0-.551.445-1 .99-1h23.75c.546 0 .99.449.99 1v12z" fill="#E5E5E5"/><path d="M38.917 6c-1.636 0-2.968 1.346-2.968 3s1.332 3 2.968 3c1.637 0 2.97-1.346 2.97-3s-1.333-3-2.97-3zm0 4a.996.996 0 0 1-.99-1c0-.551.445-1 .99-1 .546 0 .99.449.99 1 0 .551-.444 1-.99 1zm7.917-4c-1.637 0-2.969 1.346-2.969 3s1.332 3 2.97 3c1.636 0 2.968-1.346 2.968-3s-1.332-3-2.969-3zm0 4a.997.997 0 0 1-.99-1c0-.551.445-1 .99-1 .545 0 .99.449.99 1 0 .551-.444 1-.99 1zm7.917-4c-1.637 0-2.969 1.346-2.969 3s1.332 3 2.97 3c1.636 0 2.968-1.346 2.968-3s-1.332-3-2.969-3zm0 4a.996.996 0 0 1-.99-1c0-.551.445-1 .99-1 .545 0 .99.449.99 1 0 .551-.445 1-.99 1z" fill="#E5E5E5"/></svg>