<svg width="46" height="48" viewBox="0 0 46 48" fill="none" xmlns="http://www.w3.org/2000/svg"><path d="M23 48c12.703 0 23-10.283 23-22.969C46 12.346 35.703 2.063 23 2.063S0 12.345 0 25.03C0 37.717 10.297 48 23 48z" fill="#A53535"/><path d="M6.513 27.35a3.237 3.237 0 0 0 3.24-3.234 3.237 3.237 0 0 0-3.24-3.234 3.237 3.237 0 0 0-3.239 3.234 3.237 3.237 0 0 0 3.24 3.235z" fill="#FFD00D"/><path d="M5.137 24.116c0-1.463.973-2.698 2.308-3.098a3.237 3.237 0 0 0-4.17 3.098 3.237 3.237 0 0 0 4.17 3.099 3.236 3.236 0 0 1-2.308-3.099z" fill="#FFAF10"/><path d="M37.26 17.363c-4.093 0-7.531-2.855-8.422-6.675H8.944a.94.94 0 0 0-.939.938v10.966a.94.94 0 0 0 .939.938h28.112a.94.94 0 0 0 .939-.938v-5.26c-.243.02-.488.031-.735.031z" fill="#91E0E8"/><path d="M9.868 22.592V11.626a.94.94 0 0 1 .939-.938H8.944a.94.94 0 0 0-.939.938v10.966a.94.94 0 0 0 .939.938h1.863a.94.94 0 0 1-.939-.938z" fill="#5DC1D8"/><path d="M21.075 43.02v4.9c.635.052 1.277.08 1.925.08 3.253 0 6.348-.676 9.153-1.892V43.02H21.075z" fill="#37C47A"/><path d="M22.938 43.02h-1.863v4.9c.615.05 1.236.078 1.863.08v-4.98z" fill="#02AF8E"/><path d="M32.345 38.441V26.67c0-.774-.633-1.407-1.408-1.407h-.563c-.557 0-1.04.328-1.267.8a1.412 1.412 0 0 0-1.268-.8h-.563c-.557 0-1.04.328-1.267.8a1.412 1.412 0 0 0-1.268-.8h-.563c-.46 0-.87.225-1.127.569v-5.475a1.41 1.41 0 0 0-1.408-1.406h-.563c-.774 0-1.408.633-1.408 1.406v11.528l-1.567-1.565a1.414 1.414 0 0 0-1.99 0l-.587.586a1.41 1.41 0 0 0 0 1.988l5.556 5.548h11.261z" fill="#FFE2B8"/><path d="M22.946 38.441l-5.555-5.548a1.41 1.41 0 0 1 0-1.988l.586-.585c.02-.021.043-.04.064-.058a1.413 1.413 0 0 0-1.927.058l-.586.585a1.41 1.41 0 0 0 0 1.988l5.556 5.548h1.862z" fill="#FFC987"/><path d="M33.28 42.645a.47.47 0 0 1-.47.468H20.418a.47.47 0 0 1-.47-.468v-3.829a.47.47 0 0 1 .47-.469H32.81c.258 0 .47.211.47.47v3.828z" fill="#0F9390"/><path d="M21.812 42.645v-3.829a.47.47 0 0 1 .47-.469h-1.864a.47.47 0 0 0-.47.47v3.828a.47.47 0 0 0 .47.468h1.863a.47.47 0 0 1-.47-.468z" fill="#0F9390"/><path d="M30.839 41.762a1.032 1.032 0 1 0 .001-2.064 1.032 1.032 0 0 0-.001 2.064zm-9.576-24.09a.704.704 0 0 1-.704-.703v-1.407a.704.704 0 0 1 1.408 0v1.407a.704.704 0 0 1-.704.703zm2.324.961a.702.702 0 0 1-.498-1.2l.995-.995a.705.705 0 0 1 .996.995l-.995.994a.702.702 0 0 1-.498.206zm2.37 2.32H24.55a.704.704 0 1 1 0-1.406h1.408a.703.703 0 1 1 0 1.406zm-7.98 0H16.57a.704.704 0 1 1 0-1.406h1.408a.704.704 0 1 1 0 1.406zm.963-2.32a.702.702 0 0 1-.498-.206l-.996-.994a.702.702 0 1 1 .996-.995l.995.994a.702.702 0 0 1-.497 1.2z" fill="#fff"/><path d="M37.26 17.456c4.827 0 8.74-3.907 8.74-8.728C46 3.908 42.087 0 37.26 0s-8.74 3.908-8.74 8.728 3.913 8.728 8.74 8.728z" fill="#EF9614"/><path d="M37.26 14.932a6.208 6.208 0 0 0 6.212-6.204 6.208 6.208 0 0 0-6.212-6.203 6.208 6.208 0 0 0-6.212 6.203 6.208 6.208 0 0 0 6.212 6.204z" fill="#FFD00D"/><path d="M32.91 8.728a6.207 6.207 0 0 1 5.28-6.133 6.208 6.208 0 0 0-7.143 6.134 6.208 6.208 0 0 0 7.144 6.133 6.207 6.207 0 0 1-5.28-6.134z" fill="#FFAF10"/><path d="M38.48 8.057h-2.206v-.97h2.675a.704.704 0 1 0 0-1.405h-.985v-.61a.704.704 0 0 0-1.408 0v.61h-.517c-.647 0-1.173.525-1.173 1.172V8.29c0 .646.526 1.172 1.173 1.172h2.206v.969H35.57a.704.704 0 1 0 0 1.406h.986v.547a.704.704 0 0 0 1.408 0v-.547h.516c.647 0 1.174-.526 1.174-1.172V9.228c0-.646-.527-1.171-1.174-1.171z" fill="#DB722C"/><path d="M7.613 47.17c4.205 0 7.614-3.405 7.614-7.604s-3.409-7.603-7.614-7.603C3.41 31.963 0 35.367 0 39.566c0 4.2 3.409 7.603 7.613 7.603z" fill="#EF9614"/><path d="M7.613 44.689a5.126 5.126 0 0 0 5.13-5.123 5.126 5.126 0 0 0-5.13-5.122 5.126 5.126 0 0 0-5.13 5.122 5.126 5.126 0 0 0 5.13 5.123z" fill="#FFD00D"/><path d="M4.347 39.566a5.126 5.126 0 0 1 4.198-5.037 5.126 5.126 0 0 0-6.06 5.037 5.126 5.126 0 0 0 6.06 5.037 5.125 5.125 0 0 1-4.198-5.037z" fill="#FFAF10"/><path d="M8.677 38.89H6.846v-.663h2.24a.704.704 0 1 0 0-1.406h-.768v-.44a.704.704 0 0 0-1.408 0v.44h-.36c-.613 0-1.112.499-1.112 1.112v1.252c0 .613.5 1.111 1.113 1.111h1.83v.663h-2.24a.704.704 0 1 0 0 1.406h.769v.386a.704.704 0 0 0 1.408 0v-.386h.359c.614 0 1.113-.498 1.113-1.111v-1.252c0-.613-.5-1.112-1.113-1.112z" fill="#DB722C"/><path d="M38.808 33.82a3.237 3.237 0 0 0 3.24-3.234 3.237 3.237 0 0 0-3.24-3.235 3.237 3.237 0 0 0-3.239 3.235 3.237 3.237 0 0 0 3.239 3.235z" fill="#FFD00D"/><path d="M37.432 30.586c0-1.463.973-2.699 2.307-3.099a3.237 3.237 0 0 0-4.17 3.098 3.237 3.237 0 0 0 4.17 3.099 3.236 3.236 0 0 1-2.307-3.098z" fill="#FFAF10"/></svg>