<svg width="46" height="48" viewBox="0 0 46 48" fill="none" xmlns="http://www.w3.org/2000/svg"><path d="M23 48c12.703 0 23-10.283 23-22.969C46 12.346 35.703 2.063 23 2.063S0 12.345 0 25.03C0 37.717 10.297 48 23 48z" fill="#FF9518"/><path d="M31.01 24.525a5.24 5.24 0 0 1 0-7.416 5.258 5.258 0 0 1 6.542-.71V.47a.47.47 0 0 0-.47-.469H8.918a.47.47 0 0 0-.47.469v42.349A22.923 22.923 0 0 0 23 48a22.923 22.923 0 0 0 14.552-5.182V25.234a5.257 5.257 0 0 1-6.542-.71z" fill="#D9EAFC"/><path d="M10.31.469A.47.47 0 0 1 10.78 0H8.917a.47.47 0 0 0-.47.469v42.349c.597.487 1.219.944 1.863 1.37V.469z" fill="#C3DDF4"/><path d="M33.516 5.4a.47.47 0 0 1-.47.468H12.954a.47.47 0 0 1-.469-.469V3.66a.47.47 0 0 1 .47-.468h20.093a.47.47 0 0 1 .469.469V5.4z" fill="#fff"/><path d="M14.347 5.4V3.66a.47.47 0 0 1 .47-.47h-1.864a.47.47 0 0 0-.469.47V5.4a.47.47 0 0 0 .47.468h1.862a.47.47 0 0 1-.47-.469z" fill="#EEF6FF"/><path d="M32.78 10.5H19.041a.704.704 0 1 1 0-1.406H32.78a.704.704 0 1 1 0 1.407zm0 2.25H19.041a.704.704 0 1 1 0-1.406H32.78a.704.704 0 1 1 0 1.407z" fill="#B7092B"/><path d="M14.91 13.032a2.11 2.11 0 0 0 2.113-2.11 2.11 2.11 0 0 0-2.112-2.109 2.11 2.11 0 0 0-2.113 2.11 2.11 2.11 0 0 0 2.113 2.11z" fill="#fff"/><path d="M31.01 17.109a5.227 5.227 0 0 1 2.146-1.296.701.701 0 0 0-.377-.11H19.042a.704.704 0 1 0 0 1.407H31.01v-.001zm-.686.844H19.042a.704.704 0 1 0 0 1.407H29.68c.142-.492.357-.966.645-1.407z" fill="#0F9390"/><path d="M14.91 19.64a2.11 2.11 0 0 0 2.113-2.109 2.11 2.11 0 0 0-2.112-2.11 2.11 2.11 0 0 0-2.113 2.11 2.11 2.11 0 0 0 2.113 2.11z" fill="#2BB381"/><path d="M14.91 20.344a2.818 2.818 0 0 1-2.816-2.813 2.818 2.818 0 0 1 2.816-2.812 2.818 2.818 0 0 1 2.817 2.813 2.818 2.818 0 0 1-2.817 2.812zm0-4.219a1.41 1.41 0 0 0-1.408 1.407 1.409 1.409 0 0 0 2.816 0c0-.776-.631-1.407-1.408-1.407z" fill="#0F9390"/><path d="M29.69 22.313H19.042a.704.704 0 1 0 0 1.406H30.35a5.203 5.203 0 0 1-.66-1.407zm1.36 2.249H19.042a.704.704 0 1 0 0 1.406H32.78a.7.7 0 0 0 .414-.135 5.229 5.229 0 0 1-2.143-1.27z" fill="#1E99D6"/><path d="M14.91 26.25a2.11 2.11 0 0 0 2.113-2.11 2.11 2.11 0 0 0-2.112-2.109 2.11 2.11 0 0 0-2.113 2.11 2.11 2.11 0 0 0 2.113 2.109z" fill="#69CDFF"/><path d="M14.91 26.953a2.818 2.818 0 0 1-2.816-2.813 2.818 2.818 0 0 1 2.816-2.812 2.818 2.818 0 0 1 2.817 2.813 2.818 2.818 0 0 1-2.817 2.812zm0-4.219c-.776 0-1.408.631-1.408 1.406a1.409 1.409 0 0 0 2.816 0c0-.775-.631-1.406-1.408-1.406z" fill="#1E99D6"/><path d="M32.78 30.328H19.041a.704.704 0 1 1 0-1.406H32.78a.704.704 0 1 1 0 1.406zm0 2.25H19.041a.704.704 0 1 1 0-1.407H32.78a.704.704 0 1 1 0 1.407z" fill="#DB722C"/><path d="M14.91 32.86a2.11 2.11 0 0 0 2.113-2.11 2.11 2.11 0 0 0-2.112-2.11 2.11 2.11 0 0 0-2.113 2.11 2.11 2.11 0 0 0 2.113 2.11z" fill="#FFAF10"/><path d="M14.91 33.562a2.818 2.818 0 0 1-2.816-2.812 2.818 2.818 0 0 1 2.816-2.813 2.818 2.818 0 0 1 2.817 2.813 2.818 2.818 0 0 1-2.817 2.812zm0-4.219a1.41 1.41 0 0 0-1.408 1.407 1.409 1.409 0 0 0 2.816 0c0-.776-.631-1.407-1.408-1.407z" fill="#DB722C"/><path d="M38.436 17.109a5.239 5.239 0 0 1 0 7.416 5.256 5.256 0 0 1-7.426 0 5.24 5.24 0 0 1 0-7.416 5.257 5.257 0 0 1 7.426 0z" fill="#fff"/><path d="M43.861 28.948l-4.46-4.454a5.949 5.949 0 0 0-.467-7.882 5.92 5.92 0 0 0-4.21-1.742 5.948 5.948 0 1 0 0 11.893 5.915 5.915 0 0 0 3.682-1.274l4.46 4.454a.702.702 0 0 0 .996 0 .702.702 0 0 0 0-.995zm-12.353-4.92a4.542 4.542 0 0 1 3.215-7.751 4.542 4.542 0 1 1 0 9.08 4.52 4.52 0 0 1-3.215-1.33z" fill="#1A2B63"/><path d="M37.252 18.291a3.568 3.568 0 0 1 0 5.052 3.58 3.58 0 0 1-5.058 0 3.569 3.569 0 0 1 0-5.052 3.58 3.58 0 0 1 5.058 0z" fill="#69CDFF"/><path d="M34.057 23.343a3.569 3.569 0 0 1 1.598-5.974 3.578 3.578 0 0 0-3.46.922 3.569 3.569 0 0 0 0 5.052 3.578 3.578 0 0 0 3.46.922 3.56 3.56 0 0 1-1.598-.922z" fill="#3EB7FF"/><path d="M17.697 9.43a.705.705 0 0 0-1.035-.954l-.134.146a2.818 2.818 0 0 0-4.434 2.3 2.818 2.818 0 0 0 5.633 0c0-.437-.101-.852-.28-1.221l.25-.27zm-2.142.244l-.688.745-.706-.596a.697.697 0 0 0-.063-.047 1.4 1.4 0 0 1 1.457-.102zm.763 1.248a1.408 1.408 0 1 1-2.8.199l.954.806a.702.702 0 0 0 .972-.06l.874-.946v.002z" fill="#B7092B"/><path d="M33.054 36.515H13.23a.704.704 0 1 1 0-1.406h19.825a.704.704 0 1 1 0 1.406zm0 2.25H13.23a.703.703 0 1 1 0-1.406h19.825a.704.704 0 1 1 0 1.406zm0 2.344H13.23a.703.703 0 1 1 0-1.406h19.825a.704.704 0 1 1 0 1.406zm0 2.25H13.23a.704.704 0 1 1 0-1.407h19.825a.704.704 0 1 1 0 1.407z" fill="#445EA0"/></svg>