<svg width="48" height="46" viewBox="0 0 48 46" fill="none" xmlns="http://www.w3.org/2000/svg"><path d="M24 46c12.685 0 22.969-10.297 22.969-23S36.685 0 24 0 1.031 10.297 1.031 23 11.315 46 24 46z" fill="#445EA0"/><path d="M24.703 35.946v-3.089h-1.406v3.089A2.392 2.392 0 0 0 24 40.622a2.392 2.392 0 0 0 .703-4.676zM24 39.213a.983.983 0 0 1 0-1.965.983.983 0 0 1 0 1.965z" fill="#fff"/><path d="M5.25 5.445v3.658l2.698 3.518c.102.134.12.31.045.461a.435.435 0 0 1-.392.245H5.82a.094.094 0 0 0-.093.094v4.124a.439.439 0 0 1-.438.438h-.04v2.066c.087.003.17.045.224.115L8.07 23.55c.07.09.081.21.03.312a.295.295 0 0 1-.265.166H6.528a.094.094 0 0 0-.094.094v3.031a.297.297 0 0 1-.297.297H5.25v5.03c0 .259.211.47.469.47h25.038a1.809 1.809 0 0 1 1.699-2.415h.097a.094.094 0 0 0 .094-.094v-4.284a4.025 4.025 0 0 1 4.017-4.023c1.226 0 2.37.551 3.136 1.512a.094.094 0 0 0 .108.03 3.092 3.092 0 0 1 2.843.316V5.445H5.249z" fill="#D9EAFC"/><path d="M5.474 20.164l1.636 2.134v-8.971H5.821a.094.094 0 0 0-.093.094v4.124a.439.439 0 0 1-.438.438h-.04v2.066c.087.003.17.045.224.115zm1.636-8.635V5.445H5.25v3.658l1.86 2.426zm0 20.953v-8.453h-.582a.094.094 0 0 0-.094.094v3.031a.297.297 0 0 1-.297.297H5.25v5.03c0 .259.211.47.469.47h1.86a.47.47 0 0 1-.469-.47z" fill="#C3DDF4"/><path d="M44.063 5.07a.47.47 0 0 1-.47.469H4.407a.47.47 0 0 1-.468-.47V1.971a.47.47 0 0 1 .468-.469h39.188a.47.47 0 0 1 .468.47v3.097z" fill="#FE3745"/><path d="M5.798 5.07v-3.1a.47.47 0 0 1 .468-.469h-1.86a.47.47 0 0 0-.468.47v3.097c0 .259.21.47.468.47h1.86a.47.47 0 0 1-.468-.47z" fill="#B7092B"/><path d="M13.518 14.711a3.33 3.33 0 0 0 3.328-3.332 3.33 3.33 0 0 0-3.328-3.332 3.33 3.33 0 0 0-3.328 3.332 3.33 3.33 0 0 0 3.328 3.332z" fill="#91E0E8"/><path d="M13.025 13.735a3.336 3.336 0 0 1 1.423-5.556 3.324 3.324 0 0 0-3.283.843 3.336 3.336 0 0 0 0 4.713 3.323 3.323 0 0 0 3.283.843 3.31 3.31 0 0 1-1.423-.843z" fill="#91E0E8"/><path d="M19.49 16.364l-2.67-2.674a4.046 4.046 0 0 0-.452-5.166 4.002 4.002 0 0 0-2.85-1.182 4 4 0 0 0-2.85 1.182 4.045 4.045 0 0 0 0 5.709 4.001 4.001 0 0 0 2.85 1.182 4 4 0 0 0 2.309-.728l2.67 2.673a.7.7 0 0 0 .994 0 .705.705 0 0 0 0-.996zm-7.828-3.127a2.634 2.634 0 0 1 0-3.717 2.605 2.605 0 0 1 1.856-.77c.7 0 1.36.274 1.855.77a2.634 2.634 0 0 1 0 3.717 2.605 2.605 0 0 1-1.855.77c-.701 0-1.36-.274-1.856-.77z" fill="#293D7C"/><path d="M25.11 17.317a.282.282 0 0 1-.281.282h-1.547a.282.282 0 0 1-.281-.282V8.33c0-.155.126-.281.281-.281h1.547c.154 0 .281.126.281.281v8.988zm2.812 0a.282.282 0 0 1-.28.282h-1.547a.282.282 0 0 1-.282-.282v-5.753c0-.155.127-.281.282-.281h1.546c.155 0 .282.126.282.281v5.753zm2.813 0a.282.282 0 0 1-.281.282h-1.547a.282.282 0 0 1-.281-.282V13.26c0-.155.126-.282.28-.282h1.548c.154 0 .28.127.28.282v4.058zm8.453 0a.282.282 0 0 1-.282.282H37.36a.282.282 0 0 1-.28-.282v-2.165c0-.155.126-.282.28-.282h1.547c.155 0 .282.127.282.282v2.165zm-5.641 0a.282.282 0 0 1-.28.282h-1.548a.282.282 0 0 1-.281-.282v-7.293c0-.155.127-.282.281-.282h1.547c.155 0 .281.127.281.282v7.293zm2.813 0a.282.282 0 0 1-.282.282h-1.546a.282.282 0 0 1-.282-.282v-4.982c0-.155.127-.282.282-.282h1.546c.155 0 .282.127.282.281v4.983z" fill="#5DC1D8"/><path d="M23.876 17.317V8.33c0-.155.126-.281.281-.281h-.875a.282.282 0 0 0-.281.281v8.988c0 .155.126.282.281.282h.875a.282.282 0 0 1-.281-.282zm2.812 0v-5.753c0-.155.127-.281.282-.281h-.875a.282.282 0 0 0-.282.281v5.753c0 .155.127.282.282.282h.875a.282.282 0 0 1-.282-.282zm2.812 0V13.26c0-.155.127-.282.282-.282h-.875a.282.282 0 0 0-.281.282v4.058c0 .155.126.282.28.282h.876a.282.282 0 0 1-.281-.282zm8.453 0v-2.165c0-.155.127-.282.281-.282h-.874a.282.282 0 0 0-.282.282v2.165c0 .155.127.282.282.282h.874a.282.282 0 0 1-.28-.282zm-5.64 0v-7.293c0-.155.127-.282.281-.282h-.875a.282.282 0 0 0-.281.282v7.293c0 .155.127.282.281.282h.875a.282.282 0 0 1-.281-.282zm2.812 0v-4.982c0-.155.127-.282.282-.282h-.875a.282.282 0 0 0-.281.281v4.983c0 .155.126.282.28.282h.876a.282.282 0 0 1-.282-.282z" fill="#28A5A5"/><path d="M12.142 25.252a3.377 3.377 0 0 0 3.375-3.38 3.377 3.377 0 0 0-3.375-3.38 3.377 3.377 0 0 0-3.375 3.38 3.377 3.377 0 0 0 3.375 3.38z" fill="#EF8318"/><path d="M10.127 21.873a3.38 3.38 0 0 1 2.695-3.311 3.377 3.377 0 0 0-4.055 3.31 3.377 3.377 0 0 0 4.055 3.312 3.38 3.38 0 0 1-2.695-3.311z" fill="#DB722C"/><path d="M11.704 23.715a.702.702 0 0 1-.497-.207l-1.273-1.274a.705.705 0 0 1 .994-.996l.776.777 1.495-1.498a.702.702 0 1 1 .995.996L12.2 23.508a.703.703 0 0 1-.497.207z" fill="#FFD00D"/><path d="M22.313 21.595h-5.186a.704.704 0 0 1 0-1.408h5.186a.704.704 0 0 1 0 1.408zm-1.594 2.253h-3.592a.704.704 0 0 1 0-1.408h3.592a.704.704 0 0 1 0 1.408z" fill="#FF9F60"/><path d="M2.842 18.077a.532.532 0 0 1-.531-.532v-4.124H.531a.531.531 0 0 1-.421-.857l3.535-4.61a.531.531 0 0 1 .843 0l3.535 4.61a.533.533 0 0 1-.422.857h-1.78v4.124a.532.532 0 0 1-.531.532H2.842z" fill="#52BBEF"/><path d="M3.437 12.638a.281.281 0 0 0-.281-.281H.269l-.16.207a.533.533 0 0 0 .423.857H2.31v4.124c0 .294.238.532.531.532h.595v-5.439z" fill="#1E99D6"/><path d="M4.339 27.545a.39.39 0 0 1-.39-.391v-3.031H2.64a.39.39 0 0 1-.31-.63l2.597-3.387a.39.39 0 0 1 .62 0l2.597 3.388a.391.391 0 0 1-.31.629H6.529v3.031a.39.39 0 0 1-.39.391h-1.8z" fill="#52BBEF"/><path d="M4.887 23.56a.281.281 0 0 0-.282-.282H2.496l-.165.216a.391.391 0 0 0 .31.629h1.307v3.031a.39.39 0 0 0 .39.391h.549V23.56z" fill="#1E99D6"/><path d="M14.767 29.853a.282.282 0 0 1-.281.282H8.86a.282.282 0 0 1-.282-.282v-1.69c0-.155.127-.281.282-.281h5.624c.155 0 .282.126.282.281v1.69z" fill="#EF8318"/><path d="M10.44 29.853v-1.69c0-.155.126-.281.28-.281H8.86a.282.282 0 0 0-.28.281v1.69c0 .155.126.282.28.282h1.86a.282.282 0 0 1-.28-.282z" fill="#DB722C"/><path d="M18.33 29.853a.282.282 0 0 1-.282.282h-1.969a.282.282 0 0 1-.281-.282v-1.69c0-.155.127-.281.281-.281h1.969c.155 0 .281.126.281.281v1.69zm3.28 0a.282.282 0 0 1-.28.282h-1.97a.282.282 0 0 1-.28-.282v-1.69c0-.155.126-.281.28-.281h1.97c.154 0 .28.126.28.281v1.69z" fill="#EF8318"/><path d="M16.735 29.853v-1.69c0-.155.127-.281.282-.281h-.938a.282.282 0 0 0-.281.281v1.69c0 .155.127.282.281.282h.938a.282.282 0 0 1-.282-.282zm3.282 0v-1.69c0-.155.126-.281.281-.281h-.938a.282.282 0 0 0-.28.281v1.69c0 .155.126.282.28.282h.938a.282.282 0 0 1-.281-.282z" fill="#DB722C"/><path d="M29.954 29.853a.282.282 0 0 1-.281.282h-5.625a.282.282 0 0 1-.281-.282v-1.69c0-.155.126-.281.281-.281h5.625c.155 0 .281.126.281.281v1.69z" fill="#FE3745"/><path d="M25.627 29.853v-1.69c0-.155.127-.281.281-.281h-1.86a.282.282 0 0 0-.281.281v1.69c0 .155.126.282.281.282h1.86a.282.282 0 0 1-.28-.282z" fill="#B7092B"/><path d="M32.647 27.882h-1.38a.282.282 0 0 0-.282.281v1.69c0 .155.127.282.282.282h1.38v-2.253z" fill="#FE3745"/><path d="M38.337 21.595H24.475a.704.704 0 0 1 0-1.408h13.862a.703.703 0 0 1 0 1.408zm-3.205.845H24.476a.704.704 0 0 0 0 1.408h8.902a4.042 4.042 0 0 1 1.754-1.408zm-2.208 2.252h-8.448a.704.704 0 0 0 0 1.409h8.172c.007-.496.104-.97.276-1.409z" fill="#FF9F60"/><path d="M45.826 38.995H42.33l.2.723a.474.474 0 0 1-.133.432l-2.037 1.742a.25.25 0 0 1-.162.059.252.252 0 0 1-.183-.077l-1.33-1.404a.4.4 0 0 0-.586 0l-1.33 1.404a.252.252 0 0 1-.182.077.25.25 0 0 1-.162-.059l-2.037-1.742a.474.474 0 0 1-.132-.432l.2-.723h-3.498a2.178 2.178 0 0 0-2.174 2.176v2.451c0 .253.205.459.458.459h18.301a.458.458 0 0 0 .458-.459v-2.45c0-1.2-.975-2.177-2.174-2.177z" fill="#5DC1D8"/><path d="M30.643 43.622v-2.45c0-1.2.975-2.177 2.174-2.177h-1.86a2.178 2.178 0 0 0-2.174 2.176v2.451c0 .253.205.459.458.459h1.86a.458.458 0 0 1-.458-.459z" fill="#28A5A5"/><path d="M38.392 43.26a.616.616 0 0 1-.614-.614.617.617 0 0 1 .614-.614.616.616 0 0 1 .433 1.049.618.618 0 0 1-.433.18z" fill="#fff"/><path d="M38.422 43.08a.617.617 0 0 1 0-.868.609.609 0 0 1 .201-.134.612.612 0 0 0-.845.568.617.617 0 0 0 .614.615c.08 0 .158-.017.231-.047a.608.608 0 0 1-.201-.133z" fill="#D9EAFC"/><path d="M42.023 37.535a5.724 5.724 0 0 1-3.631 1.296 5.724 5.724 0 0 1-3.632-1.296l-.596 2.158a.564.564 0 0 0 .162.529l2.037 1.742c.137.117.35.106.474-.025l1.33-1.404a.307.307 0 0 1 .45 0l1.33 1.404c.123.13.336.142.473.025l2.037-1.742a.563.563 0 0 0 .162-.53l-.596-2.157z" fill="#D9EAFC"/><path d="M35.811 40.221a.564.564 0 0 1-.161-.528l.378-1.371a5.77 5.77 0 0 1-1.268-.787l-.596 2.158a.564.564 0 0 0 .162.529l2.037 1.742c.137.117.35.106.474-.025l.44-.464-1.466-1.254z" fill="#AEC1ED"/><path d="M41.024 23.374c-.436 0-.852.088-1.23.246.37.457.643.996.786 1.586 2.14.41 3.65 1.559 3.65 4.013v-2.634a3.208 3.208 0 0 0-3.206-3.21z" fill="#EF8318"/><path d="M38.392 25.02c.807 0 1.575.06 2.275.202a4.113 4.113 0 0 0-4.003-3.181 4.114 4.114 0 0 0-4.111 4.117v3.06c0-3.228 2.614-4.199 5.839-4.199z" fill="#FF9518"/><path d="M33.712 26.316v-.158a4.115 4.115 0 0 1 3.534-4.076 4.114 4.114 0 0 0-4.693 4.076v3.06c0-1.31.431-2.25 1.16-2.902z" fill="#EF8318"/><path d="M32.635 30.442h-.179a1.9 1.9 0 0 0-1.9 1.902 1.9 1.9 0 0 0 1.9 1.902h.3a5.781 5.781 0 0 1-.121-1.18v-2.624z" fill="#FFC987"/><path d="M31.252 32.344c0-.871.585-1.605 1.383-1.83v-.072h-.179a1.9 1.9 0 0 0-1.9 1.902 1.9 1.9 0 0 0 1.9 1.902h.3l-.008-.044a1.902 1.902 0 0 1-1.496-1.858z" fill="#FFDD8D"/><path d="M44.327 30.442h-.178v2.624c0 .405-.043.799-.122 1.18h.3a1.9 1.9 0 0 0 1.9-1.902 1.9 1.9 0 0 0-1.9-1.902z" fill="#FFC987"/><path d="M44.23 33.067a5.843 5.843 0 0 1-5.838 5.846 5.843 5.843 0 0 1-5.84-5.846v-3.942c0-3.23 2.615-4.2 5.84-4.2 3.224 0 5.838.97 5.838 4.2v3.942z" fill="#FFE2B8"/><path d="M33.712 33.067v-3.942c0-3.033 2.307-4.073 5.26-4.188a13.883 13.883 0 0 0-.58-.012c-3.225 0-5.84.97-5.84 4.2v3.942a5.843 5.843 0 0 0 6.42 5.818 5.844 5.844 0 0 1-5.26-5.818z" fill="#FFDD8D"/><path d="M35.61 31.9a.614.614 0 0 1-.614-.615V30.22a.614.614 0 1 1 1.228 0v1.065c0 .34-.275.615-.614.615zm5.563 0a.614.614 0 0 1-.614-.615V30.22a.614.614 0 1 1 1.228 0v1.065c0 .34-.275.615-.614.615zm-2.25 1.324h-.736a.943.943 0 0 1-.94-.942v-1.748a.614.614 0 1 1 1.226 0v1.46h.45a.614.614 0 0 1 0 1.23z" fill="#BF7E52"/><path d="M40.07 34.287h-3.357a.514.514 0 0 0-.513.515c0 1.21.983 2.194 2.192 2.194a2.196 2.196 0 0 0 2.191-2.194.514.514 0 0 0-.513-.515z" fill="#fff"/></svg>