<svg width="48" height="46" viewBox="0 0 48 46" fill="none" xmlns="http://www.w3.org/2000/svg"><path d="M25.031 46C37.717 46 48 35.703 48 23S37.717 0 25.031 0C12.346 0 2.063 10.297 2.063 23S12.345 46 25.03 46z" fill="#AEC1ED"/><path d="M25.031 46C37.717 46 48 35.703 48 23S37.717 0 25.031 0C12.346 0 2.063 10.297 2.063 23S12.345 46 25.03 46z" fill="#02AF8E"/><path d="M14.576 14.125a9.24 9.24 0 0 1 1.113-4.406V4.302a.47.47 0 0 0-.469-.47H.47a.47.47 0 0 0-.469.47v9.636c0 .258.21.469.469.469h5.839c.258 0 .625.142.816.315l3.088 2.796c.191.173.348.104.348-.154v-2.488a.47.47 0 0 1 .469-.469h3.547v-.282z" fill="#FFAF10"/><path d="M1.86 13.938V4.302c0-.258.211-.47.469-.47H.469a.47.47 0 0 0-.469.47v9.636c0 .258.21.469.469.469h1.86a.47.47 0 0 1-.469-.47z" fill="#EF9614"/><path d="M12.271 7.411H3.374a.704.704 0 0 1 0-1.408h8.898a.703.703 0 0 1 0 1.408zm0 2.231H3.374a.704.704 0 0 1 0-1.408h8.898a.703.703 0 0 1 0 1.408zM7.84 11.873H3.375a.704.704 0 0 1 0-1.408h4.467a.704.704 0 0 1 0 1.408z" fill="#DB722C"/><path d="M15.889 17.667v-3.542c0-4.392 3.568-7.965 7.954-7.965h2.376c4.386 0 7.955 3.573 7.955 7.965v3.542c.513.013.993.16 1.406.41v-3.952c0-5.169-4.2-9.373-9.36-9.373h-2.377c-5.161 0-9.36 4.204-9.36 9.373v3.953c.412-.25.893-.398 1.406-.41z" fill="#1A2B63"/><path d="M16.798 23.317v-5.622c0-.042.002-.082.003-.123h-.842a2.953 2.953 0 0 0-2.95 2.954v1.625a2.953 2.953 0 0 0 2.95 2.954h1.035a8.253 8.253 0 0 1-.196-1.788zm17.306-5.745h-.842c0 .041.003.081.003.123v5.622c0 .614-.068 1.212-.196 1.788h1.034a2.953 2.953 0 0 0 2.951-2.954v-1.625a2.953 2.953 0 0 0-2.95-2.954z" fill="#FE3745"/><path d="M16.99 25.093a2.953 2.953 0 0 1-2.684-2.942v-1.625c0-1.476 1.081-2.7 2.494-2.92v-.035h-.841a2.953 2.953 0 0 0-2.95 2.955v1.625a2.953 2.953 0 0 0 2.95 2.954h1.035l-.003-.012z" fill="#B7092B"/><path d="M36.154 32.28h-4.44a.467.467 0 0 1-.127.28l-3.447 3.45a.335.335 0 0 1-.238.101.331.331 0 0 1-.256-.123l-2.242-2.69a.481.481 0 0 0-.373-.182.482.482 0 0 0-.372.182l-2.243 2.69a.33.33 0 0 1-.256.123.335.335 0 0 1-.238-.1l-3.447-3.453a.467.467 0 0 1-.126-.28h-4.441a2.572 2.572 0 0 0-2.567 2.57v6.62A22.846 22.846 0 0 0 25.031 46c5.13 0 9.867-1.685 13.69-4.531v-6.62a2.572 2.572 0 0 0-2.567-2.57z" fill="#AEC1ED"/><path d="M23.67 40.205l.526 1.058c.46.924 1.211.924 1.671 0l.526-1.058-.556-2.977 1.55-1.551-1.983-2.378a.481.481 0 0 0-.373-.183.482.482 0 0 0-.372.183l-1.983 2.378 1.549 1.551-.556 2.977z" fill="#B7092B"/><path d="M36.154 32.28h-4.44a.467.467 0 0 1-.127.28l-2.866 2.87-2.854 5.74c-.46.923-1.212.923-1.671 0l-2.854-5.74-2.866-2.87a.467.467 0 0 1-.127-.28h-4.441a2.572 2.572 0 0 0-2.567 2.57v6.62A22.845 22.845 0 0 0 25.031 46c5.13 0 9.867-1.685 13.69-4.531v-6.62a2.572 2.572 0 0 0-2.567-2.57z" fill="#293D7C"/><path d="M13.201 34.85a2.572 2.572 0 0 1 2.567-2.57h-1.86a2.572 2.572 0 0 0-2.567 2.57v6.62c.599.444 1.22.862 1.86 1.248V34.85z" fill="#1A2B63"/><path d="M30.2 29.73a8.187 8.187 0 0 1-5.169 1.831 8.186 8.186 0 0 1-5.168-1.832l-1.517 2.18a.584.584 0 0 0 .063.717l3.447 3.452c.183.182.467.17.632-.029l2.243-2.69a.378.378 0 0 1 .6 0l2.243 2.69c.166.198.45.21.632.028l3.447-3.451a.584.584 0 0 0 .064-.717l-1.517-2.18z" fill="#fff"/><path d="M20.206 31.909l.927-1.332a8.27 8.27 0 0 1-1.27-.848l-1.517 2.18a.584.584 0 0 0 .063.717l3.447 3.452c.183.182.467.17.632-.029l.546-.655-2.764-2.768a.584.584 0 0 1-.064-.717z" fill="#D9EAFC"/><path d="M28.786 9.36c-.622 0-1.215.125-1.756.35.55.677.947 1.48 1.145 2.36 3.04.588 5.183 2.228 5.183 5.719v-3.85a4.576 4.576 0 0 0-4.572-4.58z" fill="#DB722C"/><path d="M25.031 11.8c1.16 0 2.265.088 3.268.294a5.866 5.866 0 0 0-5.731-4.635 5.867 5.867 0 0 0-5.864 5.871v4.46c0-4.606 3.728-5.99 8.327-5.99z" fill="#EF8318"/><path d="M18.358 13.649v-.319a5.869 5.869 0 0 1 5.04-5.812 5.867 5.867 0 0 0-6.693 5.812v4.46c0-1.871.614-3.21 1.653-4.141z" fill="#DB722C"/><path d="M33.358 23.317c0 4.605-3.728 8.338-8.327 8.338s-8.327-3.733-8.327-8.338v-5.622c0-4.605 3.728-5.989 8.327-5.989 4.6 0 8.327 1.384 8.327 5.99v5.62z" fill="#FFE2B8"/><path d="M18.358 23.317v-5.622c0-4.325 3.29-5.809 7.5-5.973-.272-.01-.548-.016-.827-.016-4.599 0-8.327 1.384-8.327 5.99v5.62c0 4.606 3.728 8.34 8.327 8.34.28 0 .555-.015.827-.042a8.335 8.335 0 0 1-7.5-8.297z" fill="#FFC987"/><path d="M21.064 21.653a.876.876 0 0 1-.875-.877v-1.518a.876.876 0 1 1 1.75 0v1.518a.876.876 0 0 1-.875.877zm7.934 0a.876.876 0 0 1-.875-.877v-1.518a.876.876 0 1 1 1.75 0v1.518a.876.876 0 0 1-.875.877zm-3.208 1.982h-1.05c-.74 0-1.342-.603-1.342-1.344v-2.492a.876.876 0 1 1 1.75 0v2.083h.642a.876.876 0 0 1 0 1.753z" fill="#A53535"/><path d="M24.844 27.318h1.125a1.89 1.89 0 0 1 1.38.572 3.12 3.12 0 0 0 .808-2.099.733.733 0 0 0-.733-.734h-4.786a.733.733 0 0 0-.733.734 3.13 3.13 0 0 0 1.277 2.522c.258-.58.904-.995 1.662-.995z" fill="#F87EAB"/><path d="M24.222 27.418a3.114 3.114 0 0 1-.457-1.627c0-.405.328-.733.733-.733h-1.86a.733.733 0 0 0-.733.733 3.13 3.13 0 0 0 1.277 2.522c.183-.413.563-.74 1.04-.895z" fill="#E26693"/><path d="M34.172 25.104v2.308a.704.704 0 0 1-.703.704h-5.944c.143.223.225.479.225.751 0 .235-.062.458-.17.657h5.889c1.163 0 2.11-.947 2.11-2.112V24.71a2.93 2.93 0 0 1-1.407.395z" fill="#1A2B63"/><path d="M27.844 28.867c0 .904-.844 1.643-1.875 1.643h-1.125c-1.032 0-1.875-.74-1.875-1.643s.843-1.643 1.875-1.643h1.125c1.031 0 1.875.74 1.875 1.643z" fill="#445EA0"/></svg>