<svg width="48" height="48" viewBox="0 0 48 48" fill="none" xmlns="http://www.w3.org/2000/svg"><path d="M.756 30A24.047 24.047 0 0 1 0 24C0 10.745 10.745 0 24 0c6.863 0 13.053 2.881 17.427 7.5H9.375V30H.756z" fill="#FFE13C"/><path d="M47.463 29.063C45.14 39.886 35.518 48 24 48S2.861 39.886.537 29.062h46.926z" fill="#415A87"/><path d="M46.68 31.872a23.903 23.903 0 0 1-1.39 3.22H9.375a.937.937 0 0 1-.937-.938V7.5c0-.518.42-.937.937-.937H40.49a24.13 24.13 0 0 1 3.262 3.804.937.937 0 0 0-.626.883v16.242a4.383 4.383 0 0 0 3.504 4.294.066.066 0 0 1 .05.085z" fill="#5F82C3"/><path d="M12 35.09H9.375a.937.937 0 0 1-.938-.938V7.5c0-.518.42-.938.938-.938H12a.937.937 0 0 0-.938.938v26.652c0 .518.42.938.938.938z" fill="#506EA0"/><path d="M45.938 33.75c-.604 1.31-1.021 2.54-1.97 3.684H8.439a2.812 2.812 0 0 1-2.813-2.813v-.402c0-.26.21-.469.469-.469h39.843zm-15-24.375a.937.937 0 1 0 0-1.875.937.937 0 0 0 0 1.875z" fill="#415A87"/><path d="M41.828 35.559a24.124 24.124 0 0 1-1.407 1.875H8.438a2.812 2.812 0 0 1-2.803-2.583 2.8 2.8 0 0 0 1.865.708h34.328z" fill="#414669"/><path d="M43.715 10.313C46.415 14.194 48 18.913 48 24a23.96 23.96 0 0 1-1.324 7.875H10.781a.469.469 0 0 1-.469-.469V10.781a.47.47 0 0 1 .47-.469h32.933z" fill="#FFE1C3"/><path d="M48 24a23.96 23.96 0 0 1-1.324 7.875h-34.02a.469.469 0 0 1-.469-.469V10.781a.47.47 0 0 1 .47-.469h31.058A23.897 23.897 0 0 1 48 24z" fill="#FFEBDC"/><path d="M15 13.125h30.4a23.897 23.897 0 0 1 2.564 12.188H15a.937.937 0 0 1-.938-.938V14.062c0-.517.42-.937.938-.937z" fill="#FF4B6E"/><path d="M21.068 14.718l.545 1.534a.392.392 0 0 0 .537.222l1.47-.699a.392.392 0 0 1 .522.522l-.698 1.47c-.1.21.003.46.222.537l1.534.546a.392.392 0 0 1 0 .738l-1.534.545a.392.392 0 0 0-.222.537l.698 1.47a.392.392 0 0 1-.521.522l-1.47-.698a.392.392 0 0 0-.538.222l-.545 1.534a.392.392 0 0 1-.738 0l-.546-1.534a.392.392 0 0 0-.537-.223l-1.47.7a.392.392 0 0 1-.522-.523l.7-1.47a.392.392 0 0 0-.223-.537l-1.534-.545a.392.392 0 0 1 0-.738l1.534-.546a.392.392 0 0 0 .222-.537l-.699-1.47a.392.392 0 0 1 .522-.522l1.47.699c.21.1.46-.004.537-.222l.546-1.534a.392.392 0 0 1 .738 0z" fill="#FF82A0"/><path d="M25.781 29.063h-11.25a.469.469 0 0 1-.469-.47v-.937c0-.259.21-.468.47-.468h11.25c.258 0 .468.21.468.468v.938c0 .259-.21.468-.469.468z" fill="#FFC396"/><path d="M43.257 44.025H30a1.875 1.875 0 0 1-1.875-1.875V16.875c0-1.036.84-1.875 1.875-1.875h13.257c1.035 0 1.875.84 1.875 1.875V42.15c0 1.036-.84 1.875-1.875 1.875z" fill="#82AAF0"/><path d="M31.753 44.025H29.26a1.134 1.134 0 0 1-1.134-1.134V16.134c0-.626.508-1.134 1.134-1.134h2.494c-.626 0-1.134.508-1.134 1.134V42.89c0 .626.508 1.134 1.134 1.134z" fill="#6E96DC"/><path d="M42.834 41.077h-12.41a.937.937 0 0 1-.938-.937V19.339c0-.518.42-.938.937-.938h12.41c.519 0 .938.42.938.938v20.8c0 .518-.42.938-.937.938z" fill="#FFF573"/><path d="M43.204 41.077h-11.45a.567.567 0 0 1-.568-.567V18.968c0-.313.254-.567.567-.567h11.451c.313 0 .567.254.567.567V40.51a.567.567 0 0 1-.567.567z" fill="#FFFF91"/><path d="M38.046 41.928a1.417 1.417 0 1 1-2.835 0 1.417 1.417 0 0 1 2.835 0z" fill="#82AAF0"/><path d="M37.479 41.928a.85.85 0 1 1-1.701 0 .85.85 0 0 1 1.7 0zm.283-25.794h-2.267a.567.567 0 1 0 0 1.134h2.267a.567.567 0 1 0 0-1.134z" fill="#6E96DC"/><path d="M42.253 32.813h-11.25a.469.469 0 0 1-.468-.47V20.157c0-.259.21-.468.468-.468h11.25c.26 0 .47.21.47.468v12.188c0 .259-.21.468-.47.468z" fill="#F7D139"/><path d="M36.997 21.75l.546 1.533a.392.392 0 0 0 .537.222l1.47-.698a.392.392 0 0 1 .522.521l-.699 1.47c-.1.21.004.46.223.538l1.533.545a.392.392 0 0 1 0 .738l-1.533.545a.392.392 0 0 0-.223.537l.699 1.47a.392.392 0 0 1-.522.523l-1.47-.7a.392.392 0 0 0-.537.223l-.546 1.534a.392.392 0 0 1-.738 0l-.545-1.534a.392.392 0 0 0-.537-.222l-1.47.698a.392.392 0 0 1-.522-.521l.699-1.47a.392.392 0 0 0-.223-.538l-1.534-.545a.392.392 0 0 1 0-.738l1.534-.545a.392.392 0 0 0 .223-.537l-.7-1.47a.392.392 0 0 1 .523-.523l1.47.7c.21.099.46-.005.537-.223l.545-1.534a.392.392 0 0 1 .738 0z" fill="#FFF573"/><path d="M41.644 35.156v.938c0 .259-.21.468-.469.468h-9.093a.469.469 0 0 1-.47-.468v-.938c0-.259.21-.468.47-.468h9.093c.26 0 .469.21.469.468zM39.038 37.5h-4.82a.469.469 0 0 0-.468.469v.937c0 .26.21.469.469.469h4.82c.258 0 .468-.21.468-.469v-.937a.469.469 0 0 0-.469-.469z" fill="#FFEB50"/></svg>