<svg width="48" height="48" viewBox="0 0 48 48" fill="none" xmlns="http://www.w3.org/2000/svg"><path d="M48 24c0 13.255-10.745 24-24 24S0 37.255 0 24 10.745 0 24 0s24 10.745 24 24z" fill="#FF4B6E"/><path d="M38.063 1.875v41.574A23.89 23.89 0 0 1 24 48a23.89 23.89 0 0 1-14.063-4.551V1.875A1.876 1.876 0 0 1 11.813 0h24.374c1.036 0 1.876.84 1.876 1.875z" fill="#5F82C3"/><path d="M15.938 0c-1.036 0-1.876.84-1.876 1.875v43.977a23.974 23.974 0 0 1-4.124-2.403V1.875C9.938.839 10.777 0 11.812 0h4.126z" fill="#415A87"/><path d="M34.875 43.125h-21.75a.937.937 0 0 1-.938-.938V6.563c0-.518.42-.938.938-.938h21.75c.518 0 .938.42.938.938v35.624c0 .518-.42.938-.938.938z" fill="#C8FFFA"/><path d="M35.813 6.563v35.624c0 .518-.42.938-.938.938H15.937a.937.937 0 0 1-.937-.938v-6.26h6.295l2.373 2.373c.184.183.48.183.663 0l2.374-2.373h7.701v-18.75H15V6.563c0-.518.42-.938.938-.938h18.937c.518 0 .938.42.938.938z" fill="#E1FFFA"/><path d="M16.875 9.844v-.938c0-.259.21-.469.469-.469h13.312c.26 0 .469.21.469.47v.937c0 .259-.21.469-.469.469H17.344a.469.469 0 0 1-.469-.47zm.469 3.281h7.5c.259 0 .468-.21.468-.469v-.937a.469.469 0 0 0-.468-.469h-7.5a.469.469 0 0 0-.469.469v.937c0 .26.21.469.469.469zm7.5 24.375h-7.5a.469.469 0 0 0-.469.469v.937c0 .26.21.469.469.469h7.5c.259 0 .468-.21.468-.469v-.937a.469.469 0 0 0-.468-.469zm8.437 0h-5.625a.469.469 0 0 0-.468.469v.937c0 .26.21.469.468.469h5.625c.26 0 .469-.21.469-.469v-.937a.469.469 0 0 0-.469-.469zm-15.937-.938h13.125c.259 0 .468-.21.468-.468v-.938a.469.469 0 0 0-.468-.468H17.344a.469.469 0 0 0-.469.468v.938c0 .259.21.468.469.468z" fill="#9BF5F0"/><path d="M39.563 15.563v16.874c0 .518-.42.938-.938.938h-11.92l-2.373 2.373a.469.469 0 0 1-.663 0l-2.374-2.373H9.375a.937.937 0 0 1-.938-.938V15.564c0-.518.42-.938.938-.938h29.25c.518 0 .938.42.938.938z" fill="#FFF573"/><path d="M29.25 27.656v.938c0 .259-.21.468-.469.468H19.22a.469.469 0 0 1-.469-.468v-.938c0-.259.21-.468.469-.468h9.562c.26 0 .469.21.469.468zm3.656-4.218H15.094a.469.469 0 0 0-.469.468v.938c0 .259.21.468.469.468h17.812c.26 0 .469-.21.469-.468v-.938a.469.469 0 0 0-.469-.468zm0-3.75H15.094a.469.469 0 0 0-.469.468v.938c0 .259.21.468.469.468h17.812c.26 0 .469-.21.469-.468v-.938a.469.469 0 0 0-.469-.468z" fill="#F7D139"/><path d="M26.344 44.531a2.344 2.344 0 1 1-4.688 0 2.344 2.344 0 0 1 4.688 0z" fill="#5F82C3"/><path d="M26.813 2.813c0 .517-.42.937-.938.937h-3.75a.937.937 0 1 1 0-1.875h3.75c.518 0 .938.42.938.938zM24 43.124a1.406 1.406 0 1 0 0 2.812 1.406 1.406 0 0 0 0-2.812z" fill="#415A87"/></svg>