<svg width="56" height="56" viewBox="0 0 56 56" fill="none" xmlns="http://www.w3.org/2000/svg"><path d="M56 28c0 15.464-12.536 28-28 28S0 43.464 0 28 12.536 0 28 0s28 12.536 28 28z" fill="#415A87"/><path d="M47.611 13.705c-.24.24-.486.47-.738.692a2.734 2.734 0 0 1-4.105 2.618 15.57 15.57 0 0 1-2.877.934l5.533 5.533a.82.82 0 0 1-1.16 1.16l-6.386-6.385a16.04 16.04 0 0 1-1.409.063h-8.305v12.512l4.068-4.069a.82.82 0 0 1 1.16 1.16l-5.228 5.23v6.222a.82.82 0 1 1-1.64 0V28.164H17.76c-.734 0-1.455-.079-2.155-.226l-5.181 5.181a.818.818 0 0 1-1.16 0 .82.82 0 0 1 0-1.16l4.563-4.563a10.557 10.557 0 0 1-4.614-3.637 2.734 2.734 0 1 1 1.685-.496 8.88 8.88 0 0 0 6.862 3.26h7.603l-4.068-4.068a.82.82 0 1 1 1.16-1.16l4.069 4.068V11.277l-4.135-4.134a.82.82 0 0 1 1.16-1.16l3.795 3.794 2.7-2.7a.82.82 0 0 1 1.161 1.16l-3.04 3.04v5.403h8.304a14.11 14.11 0 0 0 5.159-.97 2.734 2.734 0 0 1 4.545-2.895c.093-.088.186-.178.278-.27a.82.82 0 0 1 1.16 1.16z" fill="#C78B00"/><path d="M40.578 37.188v4.374c0 .605-.49 1.094-1.094 1.094h-.957l-1.48 11.85A27.963 27.963 0 0 1 28 56c-3.166 0-6.208-.526-9.046-1.494l-1.481-11.85h-.957c-.604 0-1.094-.49-1.094-1.093v-4.376c0-.604.49-1.093 1.094-1.093h22.968c.605 0 1.094.49 1.094 1.093z" fill="#F63"/><path d="M21.37 46.5c2.304 3.883 5.689 7.112 9.767 9.324A28.26 28.26 0 0 1 28 56c-3.166 0-6.208-.526-9.046-1.494l-1.208-9.662-.273-2.188h21.054l-.273 2.188H22.308c-.85 0-1.372.926-.938 1.657z" fill="#FF5019"/><path d="M11.963 30.844v3.062A6.563 6.563 0 0 1 5.4 40.47H2.338a.219.219 0 0 1-.219-.219v-3.063a6.562 6.562 0 0 1 6.563-6.562h3.062a.22.22 0 0 1 .219.219zm25.447-8.276h-2.507a5.36 5.36 0 0 0-4.145 1.954 5.35 5.35 0 0 0-1.227 3.417v2.507c0 .099.08.179.18.179h2.506a5.371 5.371 0 0 0 5.372-5.372v-2.506a.18.18 0 0 0-.18-.18zm-17.625-5.47h-2.507a.18.18 0 0 0-.18.18v2.507c0 1.668.762 3.16 1.956 4.145a5.35 5.35 0 0 0 3.416 1.226h2.507c.1 0 .18-.08.18-.179V22.47a5.372 5.372 0 0 0-5.372-5.371zm9.878-7.947h1.842a3.948 3.948 0 0 0 3.949-3.948V3.36a.132.132 0 0 0-.132-.131H33.48a3.94 3.94 0 0 0-3.047 1.436 3.932 3.932 0 0 0-.902 2.512v1.842c0 .073.06.132.132.132zM18.36 6.831a5.35 5.35 0 0 0 3.417 1.226h2.506a.18.18 0 0 0 .18-.179V5.372A5.371 5.371 0 0 0 19.091 0h-2.507a.18.18 0 0 0-.179.179v2.507a5.36 5.36 0 0 0 1.955 4.145zm26.58 14.643h-2.507a.179.179 0 0 0-.179.179v2.507c0 1.668.761 3.16 1.955 4.145a5.35 5.35 0 0 0 3.417 1.226h2.506c.1 0 .18-.08.18-.179v-2.507a5.372 5.372 0 0 0-5.372-5.371z" fill="#E3A600"/><path d="M11.9 30.69a.22.22 0 0 1 .063.154v3.062A6.563 6.563 0 0 1 5.4 40.47H2.338a.218.218 0 0 1-.154-.064l9.715-9.716zm17.684-.117a.178.178 0 0 0 .126.052h2.507a5.348 5.348 0 0 0 3.308-1.14 5.362 5.362 0 0 0 2.064-4.232v-2.506a.18.18 0 0 0-.053-.127l-7.952 7.953zm-9.8-13.474h-2.506c-.05 0-.094.02-.126.052l7.952 7.952a.178.178 0 0 0 .052-.126V22.47a5.349 5.349 0 0 0-1.14-3.308 5.363 5.363 0 0 0-4.231-2.063zM31.506 9.15c.918 0 1.762-.313 2.432-.837a3.941 3.941 0 0 0 1.517-3.111V3.36a.131.131 0 0 0-.039-.093L29.57 9.113a.131.131 0 0 0 .093.038h1.842zm-7.041-1.273V5.372a5.348 5.348 0 0 0-1.14-3.309A5.363 5.363 0 0 0 19.092 0h-2.507c-.05 0-.094.02-.126.052l7.952 7.952a.179.179 0 0 0 .052-.126zm24.71 15.66a5.362 5.362 0 0 0-4.233-2.064h-2.507c-.05 0-.094.02-.126.052l7.952 7.952a.178.178 0 0 0 .053-.126v-2.507a5.348 5.348 0 0 0-1.14-3.308zm-32.769-9.865a8.203 8.203 0 1 1-16.406 0 8.203 8.203 0 0 1 16.406 0zM47.796 0a8.203 8.203 0 1 0 .001 16.406 8.203 8.203 0 0 0 0-16.406z" fill="#F2C230"/><path d="M14.73 13.672a6.526 6.526 0 1 1-13.053 0 6.526 6.526 0 0 1 13.052 0zM47.796 1.677a6.526 6.526 0 1 0 0 13.052 6.526 6.526 0 0 0 0-13.052z" fill="#FFF573"/><path d="M12.304 11.132L8.2 15.237l-2.536 2.536a.79.79 0 0 1-1.115 0l-.446-.446a.79.79 0 0 1 0-1.115l2.536-2.536 4.105-4.105a.79.79 0 0 1 1.115 0l.446.446a.79.79 0 0 1 0 1.115zm-7.136.845a1.34 1.34 0 1 0 0-2.68 1.34 1.34 0 0 0 0 2.68zm6.07 3.39a1.34 1.34 0 1 0 0 2.68 1.34 1.34 0 0 0 0-2.68zm40.595-5.492c-.041 1.389-1.216 2.475-2.605 2.475h-.465v.16a.69.69 0 0 1-.69.69h-.552a.69.69 0 0 1-.69-.69v-.16h-1.425a.69.69 0 0 1-.69-.69v-.534a.69.69 0 0 1 .69-.69h1.425V9.16h-.465c-1.389 0-2.564-1.087-2.606-2.475a2.555 2.555 0 0 1 2.551-2.629h.52v-.16a.69.69 0 0 1 .69-.69h.552a.69.69 0 0 1 .69.69v.16h1.424a.69.69 0 0 1 .69.69v.534a.69.69 0 0 1-.69.69h-1.424v1.276h.52a2.555 2.555 0 0 1 2.55 2.63zM46.831 5.97h-.498a.653.653 0 0 0-.654.554c-.05.39.253.722.632.722h.52V5.97zm2.451 3.19h-.52v1.276h.498a.653.653 0 0 0 .655-.554.639.639 0 0 0-.633-.722z" fill="#C78B00"/></svg>