<svg width="62" height="62" viewBox="0 0 62 62" fill="none" xmlns="http://www.w3.org/2000/svg"><path d="M14 50h-.54A5.97 5.97 0 0 0 15 46c0-3.309-2.691-6-6-6s-6 2.691-6 6a5.97 5.97 0 0 0 1.54 4H4c-2.206 0-4 1.794-4 4v8h18v-8c0-2.206-1.794-4-4-4zm-5-8c2.206 0 4 1.794 4 4s-1.794 4-4 4-4-1.794-4-4 1.794-4 4-4zm7 18h-2v-5h-2v5H6v-5H4v5H2v-6c0-1.103.897-2 2-2h10c1.103 0 2 .897 2 2v6zm20-10h-.54A5.97 5.97 0 0 0 37 46c0-3.309-2.691-6-6-6s-6 2.691-6 6a5.97 5.97 0 0 0 1.54 4H26c-2.206 0-4 1.794-4 4v8h18v-8c0-2.206-1.794-4-4-4zm-5-8c2.206 0 4 1.794 4 4s-1.794 4-4 4-4-1.794-4-4 1.794-4 4-4zm7 18h-2v-5h-2v5h-6v-5h-2v5h-2v-6c0-1.103.897-2 2-2h10c1.103 0 2 .897 2 2v6zm20-10h-.54A5.97 5.97 0 0 0 59 46c0-3.309-2.691-6-6-6s-6 2.691-6 6a5.97 5.97 0 0 0 1.54 4H48c-2.206 0-4 1.794-4 4v8h18v-8c0-2.206-1.794-4-4-4zm-5-8c2.206 0 4 1.794 4 4s-1.794 4-4 4-4-1.794-4-4 1.794-4 4-4zm7 18h-2v-5h-2v5h-6v-5h-2v5h-2v-6c0-1.103.897-2 2-2h10c1.103 0 2 .897 2 2v6zM35 19c0-2.206-1.794-4-4-4s-4 1.794-4 4 1.794 4 4 4 4-1.794 4-4zm-4 2c-1.103 0-2-.897-2-2s.897-2 2-2 2 .897 2 2-.897 2-2 2z" fill="#E5E5E5"/><path d="M50 20v-2h-2.051C47.447 9.425 40.575 2.553 32 2.051V0h-2v2.051C21.425 2.553 14.553 9.425 14.051 18H12v2h2.051c.502 8.575 7.374 15.447 15.949 15.949V38h2v-2.051c8.575-.502 15.447-7.374 15.949-15.949H50zM30 4.051v2C23.63 6.539 18.539 11.63 18.051 18h-2C16.547 10.528 22.528 4.547 30 4.051zm0 29.898C22.528 33.453 16.547 27.472 16.051 20h2C18.539 26.37 23.63 31.461 30 31.949v2zM30 28v1.949c-5.268-.478-9.472-4.681-9.949-9.949H22v-2h-1.949c.478-5.268 4.681-9.472 9.949-9.949V10h2V8.051c5.268.478 9.472 4.681 9.949 9.949H40v2h1.949c-.478 5.268-4.681 9.472-9.949 9.949V28h-2zm2 5.949v-2C38.37 31.461 43.461 26.37 43.949 20h2C45.453 27.472 39.472 33.453 32 33.949zM43.949 18C43.461 11.63 38.37 6.539 32 6.051v-2c7.472.496 13.453 6.477 13.949 13.949h-2zM54 34h-2v2h2v-2zm0-4h-2v2h2v-2zm0-4h-2v2h2v-2zm0-4h-2v2h2v-2zm0-4h-2v2h2v-2zM10 34H8v2h2v-2zm0-4H8v2h2v-2zm0-4H8v2h2v-2zm0-4H8v2h2v-2zm0-4H8v2h2v-2z" fill="#E5E5E5"/></svg>