<svg width="62" height="62" viewBox="0 0 62 62" fill="none" xmlns="http://www.w3.org/2000/svg"><path d="M51 16c-6.065 0-11 4.935-11 11v3.695C38.008 27.861 34.72 26 31 26c-6.065 0-11 4.935-11 11v3.695C18.008 37.861 14.72 36 11 36 4.935 36 0 40.935 0 47v15h62V27c0-6.065-4.935-11-11-11zM20 60H2v-6.695C3.992 56.139 7.28 58 11 58c3.72 0 7.008-1.861 9-4.695V60zm-9-4c-4.962 0-9-4.038-9-9s4.038-9 9-9 9 4.038 9 9-4.038 9-9 9zm29 4H22V43.305C23.992 46.139 27.28 48 31 48c3.72 0 7.008-1.861 9-4.695V60zm-9-14c-4.962 0-9-4.038-9-9s4.038-9 9-9 9 4.038 9 9-4.038 9-9 9zm29 14H42V33.305C43.992 36.139 47.28 38 51 38c3.72 0 7.008-1.861 9-4.695V60zm-9-24c-4.962 0-9-4.038-9-9s4.038-9 9-9 9 4.038 9 9-4.038 9-9 9z" fill="#E5E5E5"/><path d="M50 24h2c.551 0 1 .45 1 1h2c0-1.654-1.346-3-3-3v-2h-2v2c-1.654 0-3 1.346-3 3s1.346 3 3 3h2c.551 0 1 .45 1 1 0 .551-.449 1-1 1h-2c-.551 0-1-.449-1-1h-2c0 1.654 1.346 3 3 3v2h2v-2c1.654 0 3-1.346 3-3s-1.346-3-3-3h-2c-.551 0-1-.449-1-1 0-.55.449-1 1-1zM30 34h2c.551 0 1 .449 1 1h2c0-1.654-1.346-3-3-3v-2h-2v2c-1.654 0-3 1.346-3 3s1.346 3 3 3h2c.551 0 1 .449 1 1 0 .551-.449 1-1 1h-2c-.551 0-1-.449-1-1h-2c0 1.654 1.346 3 3 3v2h2v-2c1.654 0 3-1.346 3-3s-1.346-3-3-3h-2c-.551 0-1-.449-1-1 0-.551.449-1 1-1zM10 44h2c.551 0 1 .449 1 1h2c0-1.654-1.346-3-3-3v-2h-2v2c-1.654 0-3 1.346-3 3s1.346 3 3 3h2c.551 0 1 .449 1 1 0 .551-.449 1-1 1h-2c-.551 0-1-.449-1-1H7c0 1.654 1.346 3 3 3v2h2v-2c1.654 0 3-1.346 3-3s-1.346-3-3-3h-2c-.551 0-1-.449-1-1 0-.551.449-1 1-1zM2.525 27.12l.95 1.76 46.92-25.337-2.263 3.961 1.736.992L54.723 0H45v2h4.044L2.525 27.12zm2.949-8.24l11.558-6.224A3.973 3.973 0 0 0 20 14c2.206 0 4-1.794 4-4s-1.794-4-4-4-4 1.794-4 4c0 .305.041.599.106.884L4.526 17.12l.948 1.76zM20 8c1.103 0 2 .897 2 2s-.897 2-2 2-2-.897-2-2 .897-2 2-2zM3.447 19.893l-.894-1.788-2 1 .895 1.788 2-1z" fill="#E5E5E5"/><path d="M19.474 27.88l11.558-6.224A3.973 3.973 0 0 0 34 23c2.206 0 4-1.794 4-4s-1.794-4-4-4-4 1.794-4 4c0 .305.041.599.106.884l-11.58 6.235.948 1.761zM34 17c1.103 0 2 .897 2 2s-.897 2-2 2-2-.897-2-2 .897-2 2-2zM15.447 29.894l2-1-.894-1.788-2 1 .894 1.788z" fill="#E5E5E5"/></svg>