<svg width="62" height="62" viewBox="0 0 62 62" fill="none" xmlns="http://www.w3.org/2000/svg"><path d="M62 31C62 13.907 48.093 0 31 0a30.908 30.908 0 0 0-15.209 4H12V0H6v12.687A30.72 30.72 0 0 0 0 31c0 17.094 13.907 31 31 31 3.809 0 7.527-.685 11.052-2.031A12.91 12.91 0 0 0 49 62c3.118 0 6.134-1.121 8.492-3.156l-1.307-1.514A10.997 10.997 0 0 1 49 60c-6.065 0-11-4.935-11-11s4.935-11 11-11 11 4.935 11 11c0 2.535-.838 4.918-2.425 6.891l1.559 1.254A13.043 13.043 0 0 0 62 49a12.91 12.91 0 0 0-2.033-6.951A30.877 30.877 0 0 0 62 31zM16 10h2v14h-2V10zm-4-4h2v18h-2V6zM8 2h2v22H8V2zm22 57.975C14.804 59.456 2.544 47.196 2.025 32H30v27.975zM30 30H2.04A28.657 28.657 0 0 1 6 16.333V26h22V16h-4v-4h-4V8h-4V6.192a28.875 28.875 0 0 1 14-4.157V30zm-10-6V14h2v10h-2zm4 0v-6h2v6h-2zm35.975 6h-8.561l7.354-7.354A28.848 28.848 0 0 1 59.975 30zm-5.039-15.35L43.767 25.819l1.414 1.414 10.85-10.85a28.963 28.963 0 0 1 2.011 4.161L48.586 30h-6.172l1.293-1.293-1.414-1.414L39.586 30h-6.172l18.773-18.773a29.34 29.34 0 0 1 2.749 3.423zM32 2.025c2.548.087 5.013.501 7.354 1.207L32 10.586V2.025zm0 20.389l12.153-12.153-1.414-1.414L32 19.586v-6.172l9.456-9.456a28.753 28.753 0 0 1 4.161 2.011L44.006 7.58l1.414 1.414 1.93-1.93c1.211.83 2.353 1.75 3.423 2.749L32 28.586v-6.172zM49 36c-7.168 0-13 5.832-13 13 0 3.761 1.615 7.143 4.176 9.519A28.825 28.825 0 0 1 32 59.977V32h27.977a28.85 28.85 0 0 1-1.461 8.173C56.14 37.613 52.759 36 49 36z" fill="#E5E5E5"/><path d="M24.297 36.293l-12 12 1.414 1.414 12-12-1.414-1.414zM23 44c-1.654 0-3 1.346-3 3s1.346 3 3 3 3-1.346 3-3-1.346-3-3-3zm0 4a1.001 1.001 0 0 1 0-2 1.001 1.001 0 0 1 0 2zm-8-12c-1.654 0-3 1.346-3 3s1.346 3 3 3 3-1.346 3-3-1.346-3-3-3zm0 4a1.001 1.001 0 0 1 0-2 1.001 1.001 0 0 1 0 2zm34 8c-1.103 0-2-.897-2-2s.897-2 2-2 2 .897 2 2h2c0-1.859-1.28-3.411-3-3.858V40h-2v2.142c-1.72.447-3 1.999-3 3.858 0 2.206 1.794 4 4 4 1.103 0 2 .897 2 2s-.897 2-2 2-2-.897-2-2h-2c0 1.859 1.28 3.411 3 3.858V58h2v-2.142c1.72-.447 3-1.999 3-3.858 0-2.206-1.794-4-4-4zm9 0h-2v2h2v-2zm-16 0h-2v2h2v-2z" fill="#E5E5E5"/></svg>