<svg width="48" height="46" viewBox="0 0 48 46" fill="none" xmlns="http://www.w3.org/2000/svg"><path d="M24 46c12.685 0 22.969-10.297 22.969-23S36.685 0 24 0 1.031 10.297 1.031 23 11.315 46 24 46z" fill="#FFAF10"/><path d="M26.497 34.625H16.372v4.334h10.125v-4.334z" fill="#445EA0"/><path d="M18.232 34.625h-1.86v4.334h1.86v-4.334z" fill="#2E4C89"/><path d="M31.231 41.212a.47.47 0 0 1-.468.47H12.106a.47.47 0 0 1-.469-.47v-1.877c0-.258.211-.47.469-.47h18.657a.47.47 0 0 1 .468.47v1.877z" fill="#293D7C"/><path d="M13.498 41.212v-1.877c0-.258.21-.47.468-.47h-1.86a.47.47 0 0 0-.469.47v1.877c0 .258.211.47.469.47h1.86a.47.47 0 0 1-.468-.47z" fill="#1A2B63"/><path d="M0 33.78a.94.94 0 0 0 .938.939h28.14v-6.285H0v5.346z" fill="#293D7C"/><path d="M1.86 33.78v-5.346H0v5.346a.94.94 0 0 0 .938.939h1.86a.94.94 0 0 1-.938-.939z" fill="#1A2B63"/><path d="M29.079 25.909c0-.207.168-.375.375-.375h13.415V5.206c0-.568-.464-1.032-1.03-1.032H1.03A1.036 1.036 0 0 0 0 5.207v23.32h29.079V25.91z" fill="#445EA0"/><path d="M29.079 25.909c0-.207.168-.376.375-.376h11.354V6.708a.47.47 0 0 0-.469-.47H2.529a.47.47 0 0 0-.468.47v19.287c0 .258.21.469.469.469h26.549v-.555z" fill="#EEF6FF"/><path d="M21.434 32.962a1.305 1.305 0 1 0-.002-2.61 1.305 1.305 0 0 0 .002 2.61z" fill="#445EA0"/><path d="M39.034 18.341a.47.47 0 0 1-.469.47H23.71a.47.47 0 0 1-.469-.47v-6.826c0-.258.21-.47.469-.47h14.855a.47.47 0 0 1 .469.47v6.826z" fill="#FFAF10"/><path d="M25.101 18.341v-6.826c0-.258.211-.47.47-.47H23.71a.47.47 0 0 0-.469.47v6.826c0 .258.211.47.469.47h1.86a.47.47 0 0 1-.469-.47z" fill="#FF9518"/><path d="M28.056 21.51h-4.042a.703.703 0 0 1 0-1.409h4.042a.704.704 0 0 1 0 1.408zm0 2.14h-4.042a.704.704 0 0 1 0-1.409h4.042a.703.703 0 0 1 0 1.408zm4.876-2.14h-3.005a.703.703 0 0 1 0-1.409h3.005a.704.704 0 0 1 0 1.408zm0 2.14h-3.005a.704.704 0 0 1 0-1.409h3.005a.703.703 0 0 1 0 1.408zm5.672-2.14h-3.829a.704.704 0 0 1 0-1.409h3.829a.704.704 0 0 1 0 1.408zm0 2.14h-3.829a.704.704 0 0 1 0-1.409h3.829a.704.704 0 0 1 0 1.408z" fill="#C3DDF4"/><path d="M33.69 9.396a.47.47 0 0 1-.468.47H32.19a.47.47 0 0 1-.47-.47V8.363a.47.47 0 0 1 .47-.47h1.03a.47.47 0 0 1 .47.47v1.033zm2.625 0a.47.47 0 0 1-.468.47h-1.032a.47.47 0 0 1-.468-.47V8.363a.47.47 0 0 1 .468-.47h1.032a.47.47 0 0 1 .468.47v1.033zm2.625 0a.47.47 0 0 1-.469.47h-1.03a.47.47 0 0 1-.47-.47V8.363c0-.258.211-.47.47-.47h1.03a.47.47 0 0 1 .47.47v1.033z" fill="#EF8318"/><path d="M17.897 23.094h-.844a.703.703 0 0 1 0-1.408h.844a.704.704 0 0 1 0 1.408zm-3.187 0h-.845a.703.703 0 0 1 0-1.408h.844a.704.704 0 0 1 0 1.408zm-3.188 0h-.844a.703.703 0 0 1 0-1.408h.844a.704.704 0 0 1 0 1.408zm-3.188 0H7.49a.704.704 0 0 1 0-1.408h.844a.704.704 0 0 1 0 1.408zm12.305-2.9a.703.703 0 0 1-.703-.704v-.845a.704.704 0 1 1 1.406 0v.845a.703.703 0 0 1-.703.704zm0-3.192a.703.703 0 0 1-.703-.704v-.845a.704.704 0 1 1 1.406 0v.845a.703.703 0 0 1-.703.704zm0-3.192a.703.703 0 0 1-.703-.704v-.845a.704.704 0 1 1 1.406 0v.845a.703.703 0 0 1-.703.704zM4.701 20.194a.704.704 0 0 1-.703-.704v-.845a.704.704 0 1 1 1.406 0v.845a.703.703 0 0 1-.703.704zm0-3.192a.704.704 0 0 1-.703-.704v-.845a.704.704 0 1 1 1.406 0v.845a.703.703 0 0 1-.703.704zm0-3.192a.704.704 0 0 1-.703-.704v-.845a.704.704 0 1 1 1.406 0v.845a.703.703 0 0 1-.703.704zm13.196-3.483h-.844a.704.704 0 0 1 0-1.408h.844a.704.704 0 0 1 0 1.408zm-3.187 0h-.845a.704.704 0 0 1 0-1.408h.844a.704.704 0 0 1 0 1.408zm-3.188 0h-.844a.704.704 0 0 1 0-1.408h.844a.704.704 0 0 1 0 1.408zm-3.188 0H7.49a.704.704 0 0 1 0-1.408h.844a.704.704 0 0 1 0 1.408z" fill="#69CDFF"/><path d="M18.764 20.043a.47.47 0 0 1-.469.47H7.045a.47.47 0 0 1-.469-.47V11.97c0-.258.211-.47.47-.47h11.25a.47.47 0 0 1 .468.47v8.073z" fill="#5DC1D8"/><path d="M8.437 20.043V11.97c0-.258.21-.47.468-.47h-1.86a.47.47 0 0 0-.469.47v8.073c0 .259.211.47.469.47h1.86a.47.47 0 0 1-.468-.47z" fill="#28A5A5"/><path d="M21.951 10.327a.47.47 0 0 1-.469.47h-1.968a.47.47 0 0 1-.47-.47V8.356c0-.258.212-.47.47-.47h1.968a.47.47 0 0 1 .47.47v1.971zm-15.562.188a.47.47 0 0 1-.47.47H3.952a.47.47 0 0 1-.469-.47V8.543a.47.47 0 0 1 .47-.469H5.92a.47.47 0 0 1 .469.47v1.97zm15.562 12.943a.47.47 0 0 1-.469.47h-1.968a.47.47 0 0 1-.47-.47v-1.971c0-.258.212-.47.47-.47h1.968a.47.47 0 0 1 .47.47v1.971zm-15.562 0a.47.47 0 0 1-.47.47H3.952a.47.47 0 0 1-.469-.47v-1.971c0-.258.211-.47.47-.47H5.92a.47.47 0 0 1 .469.47v1.971z" fill="#52BBEF"/><path d="M20.078 10.327V8.356c0-.258.211-.47.469-.47h-1.033a.47.47 0 0 0-.47.47v1.971c0 .258.212.47.47.47h1.033a.47.47 0 0 1-.469-.47zm-15.562.188V8.543a.47.47 0 0 1 .468-.469H3.951a.47.47 0 0 0-.469.47v1.97c0 .259.211.47.47.47h1.032a.47.47 0 0 1-.468-.47zm15.562 12.943v-1.971c0-.258.211-.47.469-.47h-1.033a.47.47 0 0 0-.47.47v1.971c0 .259.212.47.47.47h1.033a.47.47 0 0 1-.469-.47zm-15.562 0v-1.971c0-.258.21-.47.468-.47H3.951a.47.47 0 0 0-.469.47v1.971c0 .259.211.47.47.47h1.032a.47.47 0 0 1-.468-.47z" fill="#1E99D6"/><path d="M40.824 33.4c-.014-.04-.013-.063-.011-.07h.011c.01 0 .03.001.058.012l3.947 1.452v-8.885a.47.47 0 0 0-.469-.47H29.454a.47.47 0 0 0-.469.47v10.777c0 .258.211.47.469.47h12.748l-1.378-3.757z" fill="#5DC1D8"/><path d="M30.845 36.686V25.91c0-.258.211-.47.47-.47h-1.861a.47.47 0 0 0-.469.47v10.777c0 .258.211.47.469.47h1.86a.47.47 0 0 1-.469-.47z" fill="#28A5A5"/><path d="M40.914 33.253c-.154-.056-.235.024-.178.178l2.472 6.74c.057.154.198.185.315.069l1.312-1.315a.3.3 0 0 1 .423 0l1.512 1.515a.3.3 0 0 0 .423 0l.72-.72a.3.3 0 0 0 0-.425L46.4 37.781a.301.301 0 0 1 0-.423l1.312-1.314c.116-.117.085-.259-.07-.315l-6.73-2.476z" fill="#293D7C"/></svg>