<svg width="48" height="48" viewBox="0 0 48 48" fill="none" xmlns="http://www.w3.org/2000/svg"><path d="M48 24a23.9 23.9 0 0 1-5.699 15.526 24.1 24.1 0 0 1-8.567 6.417A23.902 23.902 0 0 1 24 48C10.745 48 0 37.255 0 24S10.745 0 24 0c11.99 0 21.925 8.79 23.713 20.279A24.16 24.16 0 0 1 48 24z" fill="#FFE261"/><path d="M27.002 4.41H2.384A2.384 2.384 0 0 0 0 6.794v14.48a2.384 2.384 0 0 0 2.384 2.384h2.473v7.365l7.365-7.365h17.164V6.794a2.384 2.384 0 0 0-2.384-2.384z" fill="#65A3E6"/><path d="M24.296 36.504l.02.02-3.297.449 3.277-.469z" fill="#1AB0AE"/><path d="M18.613 22.663v14.48a2.385 2.385 0 0 0 2.385 2.384h6.32l6.416 6.416c.37-.164.736-.337 1.097-.52v-5.896h7.47A23.9 23.9 0 0 0 48.001 24v-1.337a2.385 2.385 0 0 0-2.385-2.384H20.998a2.384 2.384 0 0 0-2.385 2.384z" fill="#58D1C1"/><path d="M44.822 27.87h-20.57a1.175 1.175 0 1 1 0-2.351h20.57a1.175 1.175 0 1 1 0 2.35zm0 5.436h-20.57a1.176 1.176 0 0 1 0-2.35h20.57a1.175 1.175 0 1 1 0 2.35zM25.01 12.292H4.44a1.175 1.175 0 1 1 0-2.351h20.57a1.175 1.175 0 1 1 0 2.35zm0 5.436H4.44a1.175 1.175 0 1 1 0-2.35h20.57a1.175 1.175 0 1 1 0 2.35z" fill="#374266"/></svg>