<svg width="48" height="48" viewBox="0 0 48 48" fill="none" xmlns="http://www.w3.org/2000/svg"><path d="M40.97 40.972c-6.228 6.228-15.027 8.316-22.98 6.267a14.058 14.058 0 0 0-3.641-13.588c-3.681-3.681-8.896-4.894-13.588-3.64-2.049-7.954.04-16.753 6.267-22.981 9.373-9.373 24.57-9.373 33.942 0 9.373 9.373 9.373 24.57 0 33.942z" fill="#FF4B6E"/><path d="M41.247 40.688c-.092.095-.183.19-.277.284-6.228 6.228-15.027 8.316-22.98 6.267 1.254-4.692.04-9.907-3.641-13.588a14.055 14.055 0 0 0-13.588-3.64c-2.049-7.954.04-16.753 6.267-22.981.094-.094.19-.185.284-.277l33.935 33.935z" fill="#DC325F"/><path d="M48 9.375a9.375 9.375 0 1 1-18.75 0 9.375 9.375 0 0 1 18.75 0z" fill="#E3A600"/><path d="M40.657 10.986a.626.626 0 0 1-.628.532h-.477v-1.224h.498c.364 0 .655.32.607.692zm-4.065-3.222a.613.613 0 0 0 .607.693h.499V7.233h-.477a.626.626 0 0 0-.629.531zm8.752 1.611a6.719 6.719 0 1 1-13.438 0 6.719 6.719 0 0 1 13.438 0zm-5.294-.918h-.498V7.233h1.367a.662.662 0 0 0 .662-.662v-.513a.662.662 0 0 0-.662-.662h-1.367v-.153a.662.662 0 0 0-.662-.662h-.53a.662.662 0 0 0-.662.662v.153h-.499a2.451 2.451 0 0 0-2.447 2.523c.04 1.332 1.167 2.375 2.5 2.375h.446v1.224H36.33a.662.662 0 0 0-.662.662v.513c0 .365.296.662.662.662h1.367v.153c0 .365.296.662.662.662h.53a.662.662 0 0 0 .662-.662v-.153h.446c1.333 0 2.46-1.043 2.5-2.375a2.451 2.451 0 0 0-2.448-2.523z" fill="#F7D139"/><path d="M34.612 13.388c5.492 5.492 5.492 14.396 0 19.888L24.005 43.883a14.003 14.003 0 0 1-5.65 3.45C9.636 45.23 2.77 38.366.669 29.644a14 14 0 0 1 3.45-5.65l10.607-10.606c5.491-5.492 14.396-5.492 19.887 0z" fill="#64D2CD"/><path d="M36.241 15.338c3.795 5.481 3.252 13.057-1.629 17.938L24.005 43.882a14.001 14.001 0 0 1-5.65 3.45c-6.206-1.496-11.471-5.403-14.75-10.675a14.009 14.009 0 0 1 4.092-9.083l10.607-10.607c4.881-4.88 12.457-5.423 17.937-1.629z" fill="#8CEBEB"/><path d="M22.68 25.32a2.344 2.344 0 0 1 0-3.314l4.64-4.64a2.344 2.344 0 0 1 3.315 3.315l-4.64 4.64c-.916.915-2.4.915-3.315 0z" fill="#6E96DC"/><path d="M25.93 21.942l-.662.663.329.329a.938.938 0 0 1-1.326 1.326l-.296-.296a2.347 2.347 0 0 0-.294 1.95 2.344 2.344 0 0 1-1-3.908l4.64-4.64a2.344 2.344 0 0 1 3.907 1 2.348 2.348 0 0 0-1.95.295l.296.295a.938.938 0 0 1-1.326 1.326l-.328-.329-.663.663.328.329a.938.938 0 0 1-1.326 1.326l-.328-.329z" fill="#415A87"/></svg>