<svg xmlns="http://www.w3.org/2000/svg" height="512" viewBox="0 0 512 512.001" width="512"><path d="M503.469 68.266h-59.735V42.668a8.534 8.534 0 0 0-8.535-8.535h-59.734V8.535A8.533 8.533 0 0 0 366.934 0H8.535A8.534 8.534 0 0 0 0 8.535V435.2a8.534 8.534 0 0 0 8.535 8.535h59.73v25.598a8.534 8.534 0 0 0 8.536 8.535h59.734v25.602c0 4.71 3.82 8.531 8.531 8.531H503.47c4.71 0 8.531-3.82 8.531-8.531V76.8a8.533 8.533 0 0 0-8.531-8.535zM68.266 42.668v384h-51.2V17.066h341.336v17.067H76.801a8.534 8.534 0 0 0-8.535 8.535zm68.27 34.133v384H85.331V51.199h341.336v17.067H145.066a8.533 8.533 0 0 0-8.53 8.535zm358.398 418.133H153.602V85.332h341.332zm0 0" fill="#FFF"/><path d="M401.066 145.066h76.801v17.067h-76.8zm0 42.668h25.602v17.067h-25.602zm51.2 0h25.601v17.067h-25.601zm-51.2 42.664h76.801v17.07h-76.8zm0 42.668h17.067v17.067h-17.067zm42.668 0h34.133v17.067h-34.133zm-42.668 42.668h76.801v17.067h-76.8zM256 418.133h-34.133a8.534 8.534 0 0 0-8.535 8.535v34.133c0 4.71 3.82 8.531 8.535 8.531H256a8.533 8.533 0 0 0 8.535-8.531v-34.133a8.534 8.534 0 0 0-8.535-8.535zm-8.531 34.133h-17.067v-17.067h17.067zm76.797-34.133h-34.133a8.533 8.533 0 0 0-8.531 8.535v34.133c0 4.71 3.82 8.531 8.53 8.531h34.134a8.533 8.533 0 0 0 8.535-8.531v-34.133a8.534 8.534 0 0 0-8.535-8.535zm-8.532 34.133h-17.066v-17.067h17.066zm85.332-93.868h17.067v17.07h-17.067zm34.134 0h25.6v17.07h-25.6zm-256 42.668h187.734c4.71 0 8.53-3.82 8.53-8.53V128c0-4.71-3.82-8.535-8.53-8.535H179.199c-4.71 0-8.531 3.824-8.531 8.535v264.535a8.532 8.532 0 0 0 8.531 8.531zM324.265 384H221.867v-34.133c0-28.277 22.922-51.199 51.2-51.199s51.203 22.922 51.203 51.2V384zm-64.563-102.398a80.897 80.897 0 0 1-20.77-54.309v-22.492a33.888 33.888 0 0 1 10-24.14c13.516-12.876 34.755-12.876 48.266 0a33.85 33.85 0 0 1 10 24.14v22.492a80.897 80.897 0 0 1-20.77 54.309zm-71.969-145.067h170.664V384h-17.066v-34.133c-.035-26.113-14.96-49.918-38.45-61.32a97.786 97.786 0 0 0 21.384-61.254v-22.492c0-28.278-22.922-51.2-51.2-51.2s-51.199 22.922-51.199 51.2v22.492a97.786 97.786 0 0 0 21.383 61.254c-23.488 11.402-38.418 35.207-38.45 61.32V384h-17.07V136.535zm0 0" fill="#FFF"/></svg>