<svg xmlns="http://www.w3.org/2000/svg" viewBox="0 0 512.001 512" width="512" height="512"><path d="M83.043 401.898c14.492 0 27.035-5.199 37.285-15.449s15.45-22.797 15.45-37.285c0-14.488-5.2-27.035-15.45-37.289-10.254-10.246-22.797-15.445-37.285-15.445-14.492 0-27.04 5.199-37.285 15.449-10.25 10.25-15.45 22.793-15.45 37.285 0 14.492 5.196 27.035 15.45 37.285 10.254 10.25 22.797 15.45 37.285 15.45zm0 0" fill="#FFF"/><path d="M166.375 447.746c-.797-4.453-1.836-8.687-3.082-12.586a65.899 65.899 0 0 0-5.469-12.418c-2.48-4.36-5.43-8.191-8.77-11.387-3.687-3.527-8.14-6.34-13.245-8.363-5.063-2.004-10.606-3.02-16.48-3.02-4.927 0-8.786 2.247-12.329 4.551a771.451 771.451 0 0 1-7.188 4.633c-1.12.715-3.269 1.832-7.152 3.086-5.765 1.863-11.222 1.863-16.992 0-3.879-1.254-6.031-2.37-7.145-3.078a890.394 890.394 0 0 1-7.207-4.648c-3.53-2.297-7.39-4.543-12.316-4.543-5.875 0-11.422 1.015-16.477 3.02-5.101 2.019-9.558 4.835-13.257 8.37-3.336 3.196-6.282 7.024-8.758 11.383a65.679 65.679 0 0 0-5.469 12.418c-1.246 3.89-2.281 8.125-3.082 12.578-.777 4.34-1.309 8.488-1.574 12.324A161.64 161.64 0 0 0 0 471.273c0 15.059 6.434 24.348 11.836 29.489 7.64 7.277 17.535 10.96 29.402 10.96h85.856c11.867 0 21.761-3.687 29.406-10.96 5.398-5.137 11.836-14.426 11.836-29.492a163.035 163.035 0 0 0-.387-11.208c-.265-3.824-.793-7.968-1.574-12.316zm207.602-98.582c0 14.492 5.195 27.035 15.449 37.285 10.254 10.25 22.797 15.45 37.281 15.45 14.492 0 27.04-5.2 37.29-15.45s15.444-22.797 15.444-37.285c0-14.488-5.195-27.035-15.449-37.289-10.25-10.246-22.797-15.445-37.285-15.445-14.492 0-27.035 5.199-37.285 15.449s-15.445 22.797-15.445 37.285zm0 0" fill="#FFF"/><path d="M511.617 460.055c-.265-3.825-.797-7.965-1.574-12.309-.8-4.453-1.836-8.687-3.086-12.586a65.899 65.899 0 0 0-5.469-12.418c-2.476-4.36-5.426-8.191-8.765-11.387-3.688-3.527-8.145-6.34-13.25-8.363-5.059-2.004-10.606-3.02-16.477-3.02-4.93 0-8.789 2.247-12.328 4.551a827.034 827.034 0 0 1-7.188 4.633c-1.12.715-3.273 1.832-7.152 3.086-5.766 1.863-11.226 1.863-16.996 0-3.879-1.254-6.031-2.37-7.145-3.078a821.73 821.73 0 0 1-7.203-4.648c-3.53-2.297-7.39-4.543-12.32-4.543-5.875 0-11.418 1.015-16.477 3.02-5.101 2.023-9.558 4.835-13.257 8.37-3.332 3.192-6.278 7.024-8.758 11.383a65.679 65.679 0 0 0-5.469 12.418c-1.246 3.895-2.281 8.125-3.082 12.578-.777 4.344-1.309 8.488-1.574 12.324a161.42 161.42 0 0 0-.379 11.207c0 15.059 6.434 24.348 11.832 29.489 7.645 7.277 17.54 10.96 29.406 10.96h85.856c11.867 0 21.758-3.687 29.402-10.96C505.566 495.625 512 486.336 512 471.27c0-3.829-.129-7.602-.383-11.215zm-256.742-354.59c14.492 0 27.035-5.195 37.285-15.45 10.25-10.25 15.45-22.792 15.45-37.285 0-14.488-5.196-27.03-15.45-37.285C281.91 5.2 269.363 0 254.875 0c-14.492 0-27.035 5.195-37.285 15.45-10.25 10.25-15.45 22.792-15.45 37.284 0 14.489 5.2 27.036 15.454 37.286 10.25 10.25 22.797 15.445 37.281 15.445zm0 0" fill="#FFF"/><path d="M339.785 163.625c-.27-3.824-.797-7.96-1.574-12.309-.8-4.453-1.836-8.687-3.086-12.586a65.645 65.645 0 0 0-5.469-12.414c-2.48-4.363-5.43-8.195-8.765-11.39-3.688-3.528-8.145-6.34-13.254-8.364-5.063-2.003-10.606-3.019-16.477-3.019-4.93 0-8.789 2.246-12.328 4.55a822.024 822.024 0 0 1-7.184 4.634c-1.125.714-3.277 1.832-7.156 3.085-5.758 1.86-11.222 1.864-16.996-.003-3.871-1.25-6.023-2.368-7.14-3.079a984.022 984.022 0 0 1-7.204-4.64c-3.527-2.3-7.386-4.547-12.32-4.547-5.875 0-11.418 1.016-16.477 3.02-5.105 2.019-9.562 4.835-13.257 8.37-3.336 3.192-6.282 7.024-8.758 11.38a65.993 65.993 0 0 0-5.469 12.421c-1.246 3.895-2.285 8.125-3.082 12.578-.777 4.34-1.309 8.485-1.578 12.325a163.8 163.8 0 0 0-.375 11.203c0 15.062 6.43 24.347 11.832 29.492 7.644 7.273 17.535 10.961 29.406 10.961h85.852c11.87 0 21.762-3.688 29.406-10.961 5.402-5.14 11.836-14.426 11.836-29.496a163.191 163.191 0 0 0-.383-11.211zm-37.961 283.137h-93.898c-8.29 0-15.012 6.718-15.012 15.011 0 8.29 6.723 15.012 15.012 15.012h93.898c8.293 0 15.016-6.722 15.016-15.012 0-8.293-6.723-15.011-15.016-15.011zM164.016 225.977c-6.739-4.829-16.118-3.278-20.946 3.46l-25.738 35.915c-4.828 6.738-3.281 16.117 3.461 20.949a14.934 14.934 0 0 0 8.73 2.808c4.676 0 9.286-2.175 12.22-6.265l25.734-35.918c4.828-6.738 3.28-16.117-3.461-20.95zM380.23 289.11c3.024 0 6.083-.91 8.73-2.813 6.743-4.828 8.29-14.207 3.462-20.945l-25.738-35.918c-4.829-6.739-14.207-8.29-20.946-3.457-6.742 4.828-8.289 14.207-3.46 20.949l25.734 35.914c2.933 4.094 7.539 6.27 12.218 6.27zm0 0" fill="#FFF"/></svg>